  0
SECTION
  2
HEADER
  9
$ACADVER
  1
AC1014
  9
$HANDSEED
  5
FFFF
  9
$MEASUREMENT
 70
     1
  0
ENDSEC
  0
SECTION
  2
TABLES
  0
TABLE
  2
VPORT
  5
8
330
0
100
AcDbSymbolTable
 70
     4
  0
VPORT
  5
2E
330
8
100
AcDbSymbolTableRecord
100
AcDbViewportTableRecord
  2
*ACTIVE
 70
     0
 10
0.0
 20
0.0
 11
1.0
 21
1.0
 12
210.0
 22
148.5
 13
0.0
 23
0.0
 14
10.0
 24
10.0
 15
10.0
 25
10.0
 16
0.0
 26
0.0
 36
1.0
 17
0.0
 27
0.0
 37
0.0
 40
341.0
 41
1.24
 42
50.0
 43
0.0
 44
0.0
 50
0.0
 51
0.0
 71
     0
 72
   100
 73
     1
 74
     3
 75
     0
 76
     0
 77
     0
 78
     0
  0
ENDTAB
  0
TABLE
  2
LTYPE
  5
5
330
0
100
AcDbSymbolTable
 70
     1
  0
LTYPE
  5
14
330
5
100
AcDbSymbolTableRecord
100
AcDbLinetypeTableRecord
  2
BYBLOCK
 70
     0
  3

 72
    65
 73
     0
 40
0.0
  0
LTYPE
  5
15
330
5
100
AcDbSymbolTableRecord
100
AcDbLinetypeTableRecord
  2
BYLAYER
 70
     0
  3

 72
    65
 73
     0
 40
0.0
  0
LTYPE
  5
16
330
5
100
AcDbSymbolTableRecord
100
AcDbLinetypeTableRecord
  2
CONTINUOUS
 70
     0
  3
Solid line
 72
    65
 73
     0
 40
0.0
  0
ENDTAB
  0
TABLE
  2
LAYER
  5
2
100
AcDbSymbolTable
 70
2
  0
LAYER
  5
50
100
AcDbSymbolTableRecord
100
AcDbLayerTableRecord
  2
0
 70
0
  6
CONTINUOUS
  0
LAYER
  5
51
100
AcDbSymbolTableRecord
100
AcDbLayerTableRecord
  2
Calque_1
 70
0
  6
CONTINUOUS
  0
ENDTAB
  0
TABLE
  2
STYLE
  5
3
330
0
100
AcDbSymbolTable
 70
     1
  0
STYLE
  5
11
330
3
100
AcDbSymbolTableRecord
100
AcDbTextStyleTableRecord
  2
STANDARD
 70
     0
 40
0.0
 41
1.0
 50
0.0
 71
     0
 42
2.5
  3
txt
  4

  0
ENDTAB
  0
TABLE
  2
VIEW
  5
6
330
0
100
AcDbSymbolTable
 70
     0
  0
ENDTAB
  0
TABLE
  2
UCS
  5
7
330
0
100
AcDbSymbolTable
 70
     0
  0
ENDTAB
  0
TABLE
  2
APPID
  5
9
330
0
100
AcDbSymbolTable
 70
     2
  0
APPID
  5
12
330
9
100
AcDbSymbolTableRecord
100
AcDbRegAppTableRecord
  2
ACAD
 70
     0
  0
ENDTAB
  0
TABLE
  2
DIMSTYLE
  5
A
330
0
100
AcDbSymbolTable
 70
     1
  0
DIMSTYLE
105
27
330
A
100
AcDbSymbolTableRecord
100
AcDbDimStyleTableRecord
  2
ISO-25
 70
     0
  3

  4

  5

  6

  7

 40
1.0
 41
2.5
 42
0.625
 43
3.75
 44
1.25
 45
0.0
 46
0.0
 47
0.0
 48
0.0
140
2.5
141
2.5
142
0.0
143
0.03937007874016
144
1.0
145
0.0
146
1.0
147
0.625
 71
     0
 72
     0
 73
     0
 74
     0
 75
     0
 76
     0
 77
     1
 78
     8
170
     0
171
     3
172
     1
173
     0
174
     0
175
     0
176
     0
177
     0
178
     0
270
     2
271
     2
272
     2
273
     2
274
     3
340
11
275
     0
280
     0
281
     0
282
     0
283
     0
284
     8
285
     0
286
     0
287
     3
288
     0
  0
ENDTAB
  0
TABLE
  2
BLOCK_RECORD
  5
1
330
0
100
AcDbSymbolTable
 70
     1
  0
BLOCK_RECORD
  5
1F
330
1
100
AcDbSymbolTableRecord
100
AcDbBlockTableRecord
  2
*MODEL_SPACE
  0
BLOCK_RECORD
  5
1B
330
1
100
AcDbSymbolTableRecord
100
AcDbBlockTableRecord
  2
*PAPER_SPACE
  0
ENDTAB
  0
ENDSEC
  0
SECTION
  2
BLOCKS
  0
BLOCK
  5
20
330
1F
100
AcDbEntity
  8
0
100
AcDbBlockBegin
  2
*MODEL_SPACE
 70
     0
 10
0.0
 20
0.0
 30
0.0
  3
*MODEL_SPACE
  1

  0
ENDBLK
  5
21
330
1F
100
AcDbEntity
  8
0
100
AcDbBlockEnd
  0
BLOCK
  5
1C
330
1B
100
AcDbEntity
 67
     1
  8
0
100
AcDbBlockBegin
  2
*PAPER_SPACE
  1

  0
ENDBLK
  5
1D
330
1B
100
AcDbEntity
 67
     1
  8
0
100
AcDbBlockEnd
  0
ENDSEC
  0
SECTION
  2
ENTITIES
  0
SPLINE
  5
100
100
AcDbEntity
  8
Calque_1
 62
7
100
AcDbSpline
 70
8
 71
3
 72
8
 73
4
 74
0
 40
0
 40
0
 40
0
 40
0
 40
1
 40
1
 40
1
 40
1
 10
-737.439710
 20
41.732270
 30
0.0
 10
-737.400206
 20
41.778035
 30
0.0
 10
-737.333658
 20
41.780721
 30
0.0
 10
-737.291070
 20
41.738270
 30
0.0
  0
SPLINE
  5
101
100
AcDbEntity
  8
Calque_1
 62
7
100
AcDbSpline
 70
8
 71
3
 72
8
 73
4
 74
0
 40
0
 40
0
 40
0
 40
0
 40
1
 40
1
 40
1
 40
1
 10
-737.291070
 20
41.738270
 30
0.0
 10
-737.248648
 20
41.695640
 30
0.0
 10
-737.246409
 20
41.624127
 30
0.0
 10
-737.286070
 20
41.578530
 30
0.0
  0
SPLINE
  5
102
100
AcDbEntity
  8
Calque_1
 62
7
100
AcDbSpline
 70
8
 71
3
 72
8
 73
4
 74
0
 40
0
 40
0
 40
0
 40
0
 40
1
 40
1
 40
1
 40
1
 10
-737.286070
 20
41.578530
 30
0.0
 10
-737.325574
 20
41.532765
 30
0.0
 10
-737.392122
 20
41.530079
 30
0.0
 10
-737.434710
 20
41.572530
 30
0.0
  0
SPLINE
  5
103
100
AcDbEntity
  8
Calque_1
 62
7
100
AcDbSpline
 70
8
 71
3
 72
8
 73
4
 74
0
 40
0
 40
0
 40
0
 40
0
 40
1
 40
1
 40
1
 40
1
 10
-737.434710
 20
41.572530
 30
0.0
 10
-737.477126
 20
41.615159
 30
0.0
 10
-737.479364
 20
41.686664
 30
0.0
 10
-737.439710
 20
41.732260
 30
0.0
  0
SPLINE
  5
104
100
AcDbEntity
  8
Calque_1
 62
7
100
AcDbSpline
 70
8
 71
3
 72
8
 73
4
 74
0
 40
0
 40
0
 40
0
 40
0
 40
1
 40
1
 40
1
 40
1
 10
244.657510
 20
400.464814
 30
0.0
 10
243.575610
 20
403.264594
 30
0.0
 10
242.255330
 20
406.044534
 30
0.0
 10
241.723550
 20
406.642444
 30
0.0
  0
SPLINE
  5
105
100
AcDbEntity
  8
Calque_1
 62
7
100
AcDbSpline
 70
8
 71
3
 72
8
 73
4
 74
0
 40
0
 40
0
 40
0
 40
0
 40
1
 40
1
 40
1
 40
1
 10
241.723550
 20
406.642444
 30
0.0
 10
240.148040
 20
408.413904
 30
0.0
 10
237.383750
 20
405.240344
 30
0.0
 10
235.380030
 20
399.359790
 30
0.0
  0
SPLINE
  5
106
100
AcDbEntity
  8
Calque_1
 62
7
100
AcDbSpline
 70
8
 71
3
 72
8
 73
4
 74
0
 40
0
 40
0
 40
0
 40
0
 40
1
 40
1
 40
1
 40
1
 10
235.380030
 20
399.359790
 30
0.0
 10
233.527190
 20
393.921990
 30
0.0
 10
233.528730
 20
393.912890
 30
0.0
 10
236.191050
 20
394.626550
 30
0.0
  0
SPLINE
  5
107
100
AcDbEntity
  8
Calque_1
 62
7
100
AcDbSpline
 70
8
 71
3
 72
8
 73
4
 74
0
 40
0
 40
0
 40
0
 40
0
 40
1
 40
1
 40
1
 40
1
 10
236.191050
 20
394.626550
 30
0.0
 10
237.658130
 20
395.019810
 30
0.0
 10
240.605860
 20
395.348930
 30
0.0
 10
242.741550
 20
395.357930
 30
0.0
  0
LWPOLYLINE
  5
108
100
AcDbEntity
  8
Calque_1
 62
7
100
AcDbPolyline
 90
3
 70
0
 10
242.741550
 20
395.357880
 30
0.0
 10
246.624600
 20
395.374280
 30
0.0
 10
244.657510
 20
400.464814
 30
0.0
  0
SPLINE
  5
109
100
AcDbEntity
  8
Calque_1
 62
7
100
AcDbSpline
 70
8
 71
3
 72
8
 73
4
 74
0
 40
0
 40
0
 40
0
 40
0
 40
1
 40
1
 40
1
 40
1
 10
230.838550
 20
391.216820
 30
0.0
 10
229.851650
 20
392.203740
 30
0.0
 10
233.117740
 20
403.489654
 30
0.0
 10
235.442240
 20
407.124824
 30
0.0
  0
SPLINE
  5
10a
100
AcDbEntity
  8
Calque_1
 62
7
100
AcDbSpline
 70
8
 71
3
 72
8
 73
4
 74
0
 40
0
 40
0
 40
0
 40
0
 40
1
 40
1
 40
1
 40
1
 10
235.442240
 20
407.124824
 30
0.0
 10
238.369550
 20
411.702640
 30
0.0
 10
243.086040
 20
410.266122
 30
0.0
 10
246.344560
 20
403.804284
 30
0.0
  0
SPLINE
  5
10b
100
AcDbEntity
  8
Calque_1
 62
7
100
AcDbSpline
 70
8
 71
3
 72
8
 73
4
 74
0
 40
0
 40
0
 40
0
 40
0
 40
1
 40
1
 40
1
 40
1
 10
246.344560
 20
403.804284
 30
0.0
 10
250.708700
 20
395.149900
 30
0.0
 10
250.165090
 20
393.445910
 30
0.0
 10
242.751240
 20
392.540940
 30
0.0
  0
SPLINE
  5
10c
100
AcDbEntity
  8
Calque_1
 62
7
100
AcDbSpline
 70
8
 71
3
 72
8
 73
4
 74
0
 40
0
 40
0
 40
0
 40
0
 40
1
 40
1
 40
1
 40
1
 10
242.751240
 20
392.540940
 30
0.0
 10
239.292670
 20
392.118760
 30
0.0
 10
235.371240
 20
391.474340
 30
0.0
 10
234.036930
 20
391.108900
 30
0.0
  0
SPLINE
  5
10d
100
AcDbEntity
  8
Calque_1
 62
7
100
AcDbSpline
 70
8
 71
3
 72
8
 73
4
 74
0
 40
0
 40
0
 40
0
 40
0
 40
1
 40
1
 40
1
 40
1
 10
234.036930
 20
391.108900
 30
0.0
 10
232.702640
 20
390.743450
 30
0.0
 10
231.263360
 20
390.792020
 30
0.0
 10
230.838550
 20
391.216820
 30
0.0
  0
LWPOLYLINE
  5
10e
100
AcDbEntity
  8
Calque_1
 62
7
100
AcDbPolyline
 90
1
 70
1
 10
242.741550
 20
395.357930
 30
0.0
  0
SPLINE
  5
10f
100
AcDbEntity
  8
Calque_1
 62
7
100
AcDbSpline
 70
8
 71
3
 72
8
 73
4
 74
0
 40
0
 40
0
 40
0
 40
0
 40
1
 40
1
 40
1
 40
1
 10
271.135550
 20
396.871450
 30
0.0
 10
267.873910
 20
407.550914
 30
0.0
 10
265.401830
 20
409.530194
 30
0.0
 10
262.644130
 20
403.670184
 30
0.0
  0
SPLINE
  5
110
100
AcDbEntity
  8
Calque_1
 62
7
100
AcDbSpline
 70
8
 71
3
 72
8
 73
4
 74
0
 40
0
 40
0
 40
0
 40
0
 40
1
 40
1
 40
1
 40
1
 10
262.644130
 20
403.670184
 30
0.0
 10
259.310670
 20
396.586790
 30
0.0
 10
259.430280
 20
395.568640
 30
0.0
 10
263.656910
 20
395.047050
 30
0.0
  0
SPLINE
  5
111
100
AcDbEntity
  8
Calque_1
 62
7
100
AcDbSpline
 70
8
 71
3
 72
8
 73
4
 74
0
 40
0
 40
0
 40
0
 40
0
 40
1
 40
1
 40
1
 40
1
 10
263.656910
 20
395.047050
 30
0.0
 10
272.090360
 20
394.006330
 30
0.0
 10
272.016120
 20
393.988220
 30
0.0
 10
271.135550
 20
396.871450
 30
0.0
  0
LWPOLYLINE
  5
112
100
AcDbEntity
  8
Calque_1
 62
7
100
AcDbPolyline
 90
1
 70
1
 10
230.838550
 20
391.216820
 30
0.0
  0
SPLINE
  5
113
100
AcDbEntity
  8
Calque_1
 62
7
100
AcDbSpline
 70
8
 71
3
 72
8
 73
4
 74
0
 40
0
 40
0
 40
0
 40
0
 40
1
 40
1
 40
1
 40
1
 10
264.964170
 20
391.702900
 30
0.0
 10
260.876620
 20
392.784190
 30
0.0
 10
257.239970
 20
393.961190
 30
0.0
 10
256.882700
 20
394.318450
 30
0.0
  0
SPLINE
  5
114
100
AcDbEntity
  8
Calque_1
 62
7
100
AcDbSpline
 70
8
 71
3
 72
8
 73
4
 74
0
 40
0
 40
0
 40
0
 40
0
 40
1
 40
1
 40
1
 40
1
 10
256.882700
 20
394.318450
 30
0.0
 10
256.117390
 20
395.083760
 30
0.0
 10
259.630170
 20
406.079044
 30
0.0
 10
261.333670
 20
408.250274
 30
0.0
  0
SPLINE
  5
115
100
AcDbEntity
  8
Calque_1
 62
7
100
AcDbSpline
 70
8
 71
3
 72
8
 73
4
 74
0
 40
0
 40
0
 40
0
 40
0
 40
1
 40
1
 40
1
 40
1
 10
261.333670
 20
408.250274
 30
0.0
 10
261.979740
 20
409.073754
 30
0.0
 10
264.078490
 20
409.747501
 30
0.0
 10
265.997560
 20
409.747501
 30
0.0
  0
SPLINE
  5
116
100
AcDbEntity
  8
Calque_1
 62
7
100
AcDbSpline
 70
8
 71
3
 72
8
 73
4
 74
0
 40
0
 40
0
 40
0
 40
0
 40
1
 40
1
 40
1
 40
1
 10
265.997560
 20
409.747501
 30
0.0
 10
269.015100
 20
409.747501
 30
0.0
 10
269.813630
 20
408.984984
 30
0.0
 10
271.904610
 20
404.106944
 30
0.0
  0
SPLINE
  5
117
100
AcDbEntity
  8
Calque_1
 62
7
100
AcDbSpline
 70
8
 71
3
 72
8
 73
4
 74
0
 40
0
 40
0
 40
0
 40
0
 40
1
 40
1
 40
1
 40
1
 10
271.904610
 20
404.106944
 30
0.0
 10
274.567730
 20
397.894140
 30
0.0
 10
275.465950
 20
390.388350
 30
0.0
 10
273.593850
 20
389.991090
 30
0.0
  0
SPLINE
  5
118
100
AcDbEntity
  8
Calque_1
 62
7
100
AcDbSpline
 70
8
 71
3
 72
8
 73
4
 74
0
 40
0
 40
0
 40
0
 40
0
 40
1
 40
1
 40
1
 40
1
 10
273.593850
 20
389.991090
 30
0.0
 10
272.935090
 20
389.851300
 30
0.0
 10
269.051730
 20
390.621610
 30
0.0
 10
264.964170
 20
391.702900
 30
0.0
  0
LWPOLYLINE
  5
119
100
AcDbEntity
  8
Calque_1
 62
7
100
AcDbPolyline
 90
1
 70
1
 10
271.135550
 20
396.871450
 30
0.0
  0
SPLINE
  5
11a
100
AcDbEntity
  8
Calque_1
 62
7
100
AcDbSpline
 70
8
 71
3
 72
8
 73
4
 74
0
 40
0
 40
0
 40
0
 40
0
 40
1
 40
1
 40
1
 40
1
 10
154.137120
 20
408.512294
 30
0.0
 10
153.699230
 20
419.408624
 30
0.0
 10
152.882230
 20
424.397311
 30
0.0
 10
150.266640
 20
432.145758
 30
0.0
  0
SPLINE
  5
11b
100
AcDbEntity
  8
Calque_1
 62
7
100
AcDbSpline
 70
8
 71
3
 72
8
 73
4
 74
0
 40
0
 40
0
 40
0
 40
0
 40
1
 40
1
 40
1
 40
1
 10
150.266640
 20
432.145758
 30
0.0
 10
144.625510
 20
448.857032
 30
0.0
 10
140.137680
 20
449.577728
 30
0.0
 10
134.798930
 20
434.629703
 30
0.0
  0
SPLINE
  5
11c
100
AcDbEntity
  8
Calque_1
 62
7
100
AcDbSpline
 70
8
 71
3
 72
8
 73
4
 74
0
 40
0
 40
0
 40
0
 40
0
 40
1
 40
1
 40
1
 40
1
 10
134.798930
 20
434.629703
 30
0.0
 10
131.281680
 20
424.781681
 30
0.0
 10
129.284760
 20
413.557547
 30
0.0
 10
129.271430
 20
403.561054
 30
0.0
  0
LWPOLYLINE
  5
11d
100
AcDbEntity
  8
Calque_1
 62
7
100
AcDbPolyline
 90
1
 70
1
 10
264.964170
 20
391.702900
 30
0.0
  0
SPLINE
  5
11e
100
AcDbEntity
  8
Calque_1
 62
7
100
AcDbSpline
 70
8
 71
3
 72
8
 73
4
 74
0
 40
0
 40
0
 40
0
 40
0
 40
1
 40
1
 40
1
 40
1
 10
141.540580
 20
393.834530
 30
0.0
 10
152.442480
 20
391.222790
 30
0.0
 10
153.866770
 20
391.106560
 30
0.0
 10
154.255470
 20
392.796930
 30
0.0
  0
SPLINE
  5
11f
100
AcDbEntity
  8
Calque_1
 62
7
100
AcDbSpline
 70
8
 71
3
 72
8
 73
4
 74
0
 40
0
 40
0
 40
0
 40
0
 40
1
 40
1
 40
1
 40
1
 10
154.255470
 20
392.796930
 30
0.0
 10
154.496210
 20
393.843900
 30
0.0
 10
154.443420
 20
400.915814
 30
0.0
 10
154.138160
 20
408.512294
 30
0.0
  0
LWPOLYLINE
  5
120
100
AcDbEntity
  8
Calque_1
 62
7
100
AcDbPolyline
 90
3
 70
0
 10
129.271430
 20
403.561054
 30
0.0
 10
129.263430
 20
396.775750
 30
0.0
 10
141.540580
 20
393.834530
 30
0.0
  0
SPLINE
  5
121
100
AcDbEntity
  8
Calque_1
 62
7
100
AcDbSpline
 70
8
 71
3
 72
8
 73
4
 74
0
 40
0
 40
0
 40
0
 40
0
 40
1
 40
1
 40
1
 40
1
 10
143.036740
 20
390.142190
 30
0.0
 10
139.084110
 20
391.100930
 30
0.0
 10
133.757650
 20
392.440810
 30
0.0
 10
131.200200
 20
393.119710
 30
0.0
  0
LWPOLYLINE
  5
122
100
AcDbEntity
  8
Calque_1
 62
7
100
AcDbPolyline
 90
2
 70
0
 10
154.138160
 20
408.512294
 30
0.0
 10
154.137120
 20
408.512294
 30
0.0
  0
SPLINE
  5
123
100
AcDbEntity
  8
Calque_1
 62
7
100
AcDbSpline
 70
8
 71
3
 72
8
 73
4
 74
0
 40
0
 40
0
 40
0
 40
0
 40
1
 40
1
 40
1
 40
1
 10
127.179810
 20
408.937954
 30
0.0
 10
127.859930
 20
424.693192
 30
0.0
 10
130.625890
 20
436.028742
 30
0.0
 10
135.586240
 20
443.389378
 30
0.0
  0
SPLINE
  5
124
100
AcDbEntity
  8
Calque_1
 62
7
100
AcDbSpline
 70
8
 71
3
 72
8
 73
4
 74
0
 40
0
 40
0
 40
0
 40
0
 40
1
 40
1
 40
1
 40
1
 10
135.586240
 20
443.389378
 30
0.0
 10
137.832790
 20
446.723040
 30
0.0
 10
139.105790
 20
447.477303
 30
0.0
 10
142.485580
 20
447.477303
 30
0.0
  0
SPLINE
  5
125
100
AcDbEntity
  8
Calque_1
 62
7
100
AcDbSpline
 70
8
 71
3
 72
8
 73
4
 74
0
 40
0
 40
0
 40
0
 40
0
 40
1
 40
1
 40
1
 40
1
 10
142.485580
 20
447.477303
 30
0.0
 10
146.314590
 20
447.477303
 30
0.0
 10
146.878810
 20
446.975842
 30
0.0
 10
149.897890
 20
440.889559
 30
0.0
  0
SPLINE
  5
126
100
AcDbEntity
  8
Calque_1
 62
7
100
AcDbSpline
 70
8
 71
3
 72
8
 73
4
 74
0
 40
0
 40
0
 40
0
 40
0
 40
1
 40
1
 40
1
 40
1
 10
149.897890
 20
440.889559
 30
0.0
 10
155.152980
 20
430.295576
 30
0.0
 10
157.125070
 20
420.369383
 30
0.0
 10
157.274940
 20
403.758634
 30
0.0
  0
LWPOLYLINE
  5
127
100
AcDbEntity
  8
Calque_1
 62
7
100
AcDbPolyline
 90
3
 70
0
 10
131.200200
 20
393.119710
 30
0.0
 10
126.550250
 20
394.354040
 30
0.0
 10
127.179810
 20
408.937954
 30
0.0
  0
SPLINE
  5
128
100
AcDbEntity
  8
Calque_1
 62
7
100
AcDbSpline
 70
8
 71
3
 72
8
 73
4
 74
0
 40
0
 40
0
 40
0
 40
0
 40
1
 40
1
 40
1
 40
1
 10
153.816690
 20
388.592760
 30
0.0
 10
151.840360
 20
388.486230
 30
0.0
 10
146.989400
 20
389.183460
 30
0.0
 10
143.036740
 20
390.142190
 30
0.0
  0
LWPOLYLINE
  5
129
100
AcDbEntity
  8
Calque_1
 62
7
100
AcDbPolyline
 90
3
 70
0
 10
157.274940
 20
403.758634
 30
0.0
 10
157.410010
 20
388.786500
 30
0.0
 10
153.816690
 20
388.592760
 30
0.0
  0
LWPOLYLINE
  5
12a
100
AcDbEntity
  8
Calque_1
 62
7
100
AcDbPolyline
 90
1
 70
1
 10
143.036740
 20
390.142190
 30
0.0
  0
SPLINE
  5
12b
100
AcDbEntity
  8
Calque_1
 62
7
100
AcDbSpline
 70
8
 71
3
 72
8
 73
4
 74
0
 40
0
 40
0
 40
0
 40
0
 40
1
 40
1
 40
1
 40
1
 10
375.280710
 20
410.999395
 30
0.0
 10
375.165250
 20
426.043720
 30
0.0
 10
374.900100
 20
427.808622
 30
0.0
 10
371.292980
 20
437.545116
 30
0.0
  0
SPLINE
  5
12c
100
AcDbEntity
  8
Calque_1
 62
7
100
AcDbSpline
 70
8
 71
3
 72
8
 73
4
 74
0
 40
0
 40
0
 40
0
 40
0
 40
1
 40
1
 40
1
 40
1
 10
371.292980
 20
437.545116
 30
0.0
 10
367.339800
 20
448.215727
 30
0.0
 10
364.604990
 20
451.042195
 30
0.0
 10
361.071250
 20
448.109452
 30
0.0
  0
SPLINE
  5
12d
100
AcDbEntity
  8
Calque_1
 62
7
100
AcDbSpline
 70
8
 71
3
 72
8
 73
4
 74
0
 40
0
 40
0
 40
0
 40
0
 40
1
 40
1
 40
1
 40
1
 10
361.071250
 20
448.109452
 30
0.0
 10
358.704850
 20
446.145497
 30
0.0
 10
353.477510
 20
430.820488
 30
0.0
 10
352.071640
 20
421.725212
 30
0.0
  0
SPLINE
  5
12e
100
AcDbEntity
  8
Calque_1
 62
7
100
AcDbSpline
 70
8
 71
3
 72
8
 73
4
 74
0
 40
0
 40
0
 40
0
 40
0
 40
1
 40
1
 40
1
 40
1
 10
352.071640
 20
421.725212
 30
0.0
 10
351.409750
 20
417.443179
 30
0.0
 10
350.864150
 20
408.428444
 30
0.0
 10
350.859170
 20
401.692474
 30
0.0
  0
LWPOLYLINE
  5
12f
100
AcDbEntity
  8
Calque_1
 62
7
100
AcDbPolyline
 90
3
 70
0
 10
366.421160
 20
392.828620
 30
0.0
 10
375.404430
 20
394.883590
 30
0.0
 10
375.280710
 20
410.999395
 30
0.0
  0
SPLINE
  5
130
100
AcDbEntity
  8
Calque_1
 62
7
100
AcDbSpline
 70
8
 71
3
 72
8
 73
4
 74
0
 40
0
 40
0
 40
0
 40
0
 40
1
 40
1
 40
1
 40
1
 10
354.145050
 20
390.109450
 30
0.0
 10
355.956670
 20
390.474770
 30
0.0
 10
361.481390
 20
391.698400
 30
0.0
 10
366.422210
 20
392.828620
 30
0.0
  0
LWPOLYLINE
  5
131
100
AcDbEntity
  8
Calque_1
 62
7
100
AcDbPolyline
 90
3
 70
0
 10
350.859170
 20
401.692474
 30
0.0
 10
350.851170
 20
389.445280
 30
0.0
 10
354.145050
 20
390.109450
 30
0.0
  0
SPLINE
  5
132
100
AcDbEntity
  8
Calque_1
 62
7
100
AcDbSpline
 70
8
 71
3
 72
8
 73
4
 74
0
 40
0
 40
0
 40
0
 40
0
 40
1
 40
1
 40
1
 40
1
 10
348.707750
 20
407.052514
 30
0.0
 10
349.153830
 20
425.144084
 30
0.0
 10
349.531520
 20
428.077571
 30
0.0
 10
352.552080
 20
436.910763
 30
0.0
  0
SPLINE
  5
133
100
AcDbEntity
  8
Calque_1
 62
7
100
AcDbSpline
 70
8
 71
3
 72
8
 73
4
 74
0
 40
0
 40
0
 40
0
 40
0
 40
1
 40
1
 40
1
 40
1
 10
352.552080
 20
436.910763
 30
0.0
 10
356.608310
 20
448.772676
 30
0.0
 10
359.203570
 20
451.945461
 30
0.0
 10
364.434790
 20
451.437764
 30
0.0
  0
SPLINE
  5
134
100
AcDbEntity
  8
Calque_1
 62
7
100
AcDbSpline
 70
8
 71
3
 72
8
 73
4
 74
0
 40
0
 40
0
 40
0
 40
0
 40
1
 40
1
 40
1
 40
1
 10
364.434790
 20
451.437764
 30
0.0
 10
367.780240
 20
451.113084
 30
0.0
 10
368.661270
 20
450.170087
 30
0.0
 10
372.051780
 20
443.285101
 30
0.0
  0
SPLINE
  5
135
100
AcDbEntity
  8
Calque_1
 62
7
100
AcDbSpline
 70
8
 71
3
 72
8
 73
4
 74
0
 40
0
 40
0
 40
0
 40
0
 40
1
 40
1
 40
1
 40
1
 10
372.051780
 20
443.285101
 30
0.0
 10
377.012660
 20
433.211165
 30
0.0
 10
378.669940
 20
423.190456
 30
0.0
 10
378.188840
 20
406.177314
 30
0.0
  0
LWPOLYLINE
  5
136
100
AcDbEntity
  8
Calque_1
 62
7
100
AcDbPolyline
 90
2
 70
0
 10
366.422210
 20
392.828620
 30
0.0
 10
366.421160
 20
392.828620
 30
0.0
  0
SPLINE
  5
137
100
AcDbEntity
  8
Calque_1
 62
7
100
AcDbSpline
 70
8
 71
3
 72
8
 73
4
 74
0
 40
0
 40
0
 40
0
 40
0
 40
1
 40
1
 40
1
 40
1
 10
367.020030
 20
389.794390
 30
0.0
 10
361.091060
 20
388.346940
 30
0.0
 10
354.434010
 20
387.123790
 30
0.0
 10
352.226570
 20
387.076260
 30
0.0
  0
LWPOLYLINE
  5
138
100
AcDbEntity
  8
Calque_1
 62
7
100
AcDbPolyline
 90
3
 70
0
 10
378.188840
 20
406.177314
 30
0.0
 10
377.799980
 20
392.426090
 30
0.0
 10
367.020030
 20
389.794390
 30
0.0
  0
SPLINE
  5
139
100
AcDbEntity
  8
Calque_1
 62
7
100
AcDbSpline
 70
8
 71
3
 72
8
 73
4
 74
0
 40
0
 40
0
 40
0
 40
0
 40
1
 40
1
 40
1
 40
1
 10
337.444040
 20
457.059475
 30
0.0
 10
339.039050
 20
453.106828
 30
0.0
 10
341.072140
 20
445.830366
 30
0.0
 10
341.962000
 20
440.889559
 30
0.0
  0
SPLINE
  5
13a
100
AcDbEntity
  8
Calque_1
 62
7
100
AcDbSpline
 70
8
 71
3
 72
8
 73
4
 74
0
 40
0
 40
0
 40
0
 40
0
 40
1
 40
1
 40
1
 40
1
 10
341.962000
 20
440.889559
 30
0.0
 10
343.930490
 20
429.959809
 30
0.0
 10
344.290360
 20
386.320880
 30
0.0
 10
342.421530
 20
385.165870
 30
0.0
  0
SPLINE
  5
13b
100
AcDbEntity
  8
Calque_1
 62
7
100
AcDbSpline
 70
8
 71
3
 72
8
 73
4
 74
0
 40
0
 40
0
 40
0
 40
0
 40
1
 40
1
 40
1
 40
1
 10
342.421530
 20
385.165870
 30
0.0
 10
341.738450
 20
384.743700
 30
0.0
 10
336.544970
 20
383.648060
 30
0.0
 10
330.880460
 20
382.731080
 30
0.0
  0
SPLINE
  5
13c
100
AcDbEntity
  8
Calque_1
 62
7
100
AcDbSpline
 70
8
 71
3
 72
8
 73
4
 74
0
 40
0
 40
0
 40
0
 40
0
 40
1
 40
1
 40
1
 40
1
 10
330.880460
 20
382.731080
 30
0.0
 10
325.215940
 20
381.814120
 30
0.0
 10
319.325810
 20
380.241230
 30
0.0
 10
317.791290
 20
379.235770
 30
0.0
  0
SPLINE
  5
13d
100
AcDbEntity
  8
Calque_1
 62
7
100
AcDbSpline
 70
8
 71
3
 72
8
 73
4
 74
0
 40
0
 40
0
 40
0
 40
0
 40
1
 40
1
 40
1
 40
1
 10
317.791290
 20
379.235770
 30
0.0
 10
316.256770
 20
378.230310
 30
0.0
 10
314.443290
 20
377.407670
 30
0.0
 10
313.761340
 20
377.407670
 30
0.0
  0
SPLINE
  5
13e
100
AcDbEntity
  8
Calque_1
 62
7
100
AcDbSpline
 70
8
 71
3
 72
8
 73
4
 74
0
 40
0
 40
0
 40
0
 40
0
 40
1
 40
1
 40
1
 40
1
 10
313.761340
 20
377.407670
 30
0.0
 10
312.940870
 20
377.407670
 30
0.0
 10
312.528460
 20
387.030570
 30
0.0
 10
312.542230
 20
405.854734
 30
0.0
  0
SPLINE
  5
13f
100
AcDbEntity
  8
Calque_1
 62
7
100
AcDbSpline
 70
8
 71
3
 72
8
 73
4
 74
0
 40
0
 40
0
 40
0
 40
0
 40
1
 40
1
 40
1
 40
1
 10
312.542230
 20
405.854734
 30
0.0
 10
312.564330
 20
436.144467
 30
0.0
 10
313.517710
 20
444.074031
 30
0.0
 10
318.714280
 20
457.191585
 30
0.0
  0
SPLINE
  5
140
100
AcDbEntity
  8
Calque_1
 62
7
100
AcDbSpline
 70
8
 71
3
 72
8
 73
4
 74
0
 40
0
 40
0
 40
0
 40
0
 40
1
 40
1
 40
1
 40
1
 10
318.714280
 20
457.191585
 30
0.0
 10
320.977720
 20
462.905151
 30
0.0
 10
323.834630
 20
465.977832
 30
0.0
 10
327.991010
 20
466.300730
 30
0.0
  0
SPLINE
  5
141
100
AcDbEntity
  8
Calque_1
 62
7
100
AcDbSpline
 70
8
 71
3
 72
8
 73
4
 74
0
 40
0
 40
0
 40
0
 40
0
 40
1
 40
1
 40
1
 40
1
 10
327.991010
 20
466.300730
 30
0.0
 10
333.952200
 20
466.172200
 30
0.0
 10
336.003820
 20
460.548072
 30
0.0
 10
337.444040
 20
457.059475
 30
0.0
  0
LWPOLYLINE
  5
142
100
AcDbEntity
  8
Calque_1
 62
7
100
AcDbPolyline
 90
3
 70
0
 10
352.226570
 20
387.076260
 30
0.0
 10
348.213040
 20
386.989860
 30
0.0
 10
348.707750
 20
407.052514
 30
0.0
  0
SPLINE
  5
143
100
AcDbEntity
  8
Calque_1
 62
7
100
AcDbSpline
 70
8
 71
3
 72
8
 73
4
 74
0
 40
0
 40
0
 40
0
 40
0
 40
1
 40
1
 40
1
 40
1
 10
326.042930
 20
463.956822
 30
0.0
 10
323.857320
 20
463.081549
 30
0.0
 10
320.245570
 20
453.744035
 30
0.0
 10
317.821440
 20
445.006790
 30
0.0
  0
SPLINE
  5
144
100
AcDbEntity
  8
Calque_1
 62
7
100
AcDbSpline
 70
8
 71
3
 72
8
 73
4
 74
0
 40
0
 40
0
 40
0
 40
0
 40
1
 40
1
 40
1
 40
1
 10
317.821440
 20
445.006790
 30
0.0
 10
316.348980
 20
439.699633
 30
0.0
 10
315.691130
 20
430.607401
 30
0.0
 10
315.228840
 20
409.173734
 30
0.0
  0
SPLINE
  5
145
100
AcDbEntity
  8
Calque_1
 62
7
100
AcDbSpline
 70
8
 71
3
 72
8
 73
4
 74
0
 40
0
 40
0
 40
0
 40
0
 40
1
 40
1
 40
1
 40
1
 10
315.228840
 20
409.173734
 30
0.0
 10
314.677840
 20
383.627740
 30
0.0
 10
314.809660
 20
380.618600
 30
0.0
 10
316.421180
 20
381.956040
 30
0.0
  0
SPLINE
  5
146
100
AcDbEntity
  8
Calque_1
 62
7
100
AcDbSpline
 70
8
 71
3
 72
8
 73
4
 74
0
 40
0
 40
0
 40
0
 40
0
 40
1
 40
1
 40
1
 40
1
 10
316.421180
 20
381.956040
 30
0.0
 10
317.856840
 20
383.147540
 30
0.0
 10
335.187850
 20
386.980940
 30
0.0
 10
339.171850
 20
386.988200
 30
0.0
  0
SPLINE
  5
147
100
AcDbEntity
  8
Calque_1
 62
7
100
AcDbSpline
 70
8
 71
3
 72
8
 73
4
 74
0
 40
0
 40
0
 40
0
 40
0
 40
1
 40
1
 40
1
 40
1
 10
339.171850
 20
386.988200
 30
0.0
 10
340.876530
 20
386.991200
 30
0.0
 10
340.154900
 20
436.188011
 30
0.0
 10
338.337140
 20
443.894389
 30
0.0
  0
SPLINE
  5
148
100
AcDbEntity
  8
Calque_1
 62
7
100
AcDbSpline
 70
8
 71
3
 72
8
 73
4
 74
0
 40
0
 40
0
 40
0
 40
0
 40
1
 40
1
 40
1
 40
1
 10
338.337140
 20
443.894389
 30
0.0
 10
336.351780
 20
452.311329
 30
0.0
 10
332.145440
 20
462.581744
 30
0.0
 10
330.113080
 20
463.974695
 30
0.0
  0
SPLINE
  5
149
100
AcDbEntity
  8
Calque_1
 62
7
100
AcDbSpline
 70
8
 71
3
 72
8
 73
4
 74
0
 40
0
 40
0
 40
0
 40
0
 40
1
 40
1
 40
1
 40
1
 10
330.113080
 20
463.974695
 30
0.0
 10
328.634080
 20
464.668262
 30
0.0
 10
327.311860
 20
464.464989
 30
0.0
 10
326.042930
 20
463.956825
 30
0.0
  0
LWPOLYLINE
  5
14a
100
AcDbEntity
  8
Calque_1
 62
7
100
AcDbPolyline
 90
1
 70
1
 10
337.444040
 20
457.059475
 30
0.0
  0
SPLINE
  5
14b
100
AcDbEntity
  8
Calque_1
 62
7
100
AcDbSpline
 70
8
 71
3
 72
8
 73
4
 74
0
 40
0
 40
0
 40
0
 40
0
 40
1
 40
1
 40
1
 40
1
 10
179.884420
 20
463.347775
 30
0.0
 10
182.696500
 20
461.211938
 30
0.0
 10
186.346650
 20
451.981502
 30
0.0
 10
188.498130
 20
441.565486
 30
0.0
  0
SPLINE
  5
14c
100
AcDbEntity
  8
Calque_1
 62
7
100
AcDbSpline
 70
8
 71
3
 72
8
 73
4
 74
0
 40
0
 40
0
 40
0
 40
0
 40
1
 40
1
 40
1
 40
1
 10
188.498130
 20
441.565486
 30
0.0
 10
190.703680
 20
430.887690
 30
0.0
 10
191.197140
 20
376.424860
 30
0.0
 10
189.055010
 20
380.102680
 30
0.0
  0
SPLINE
  5
14d
100
AcDbEntity
  8
Calque_1
 62
7
100
AcDbSpline
 70
8
 71
3
 72
8
 73
4
 74
0
 40
0
 40
0
 40
0
 40
0
 40
1
 40
1
 40
1
 40
1
 10
189.055010
 20
380.102680
 30
0.0
 10
187.227220
 20
383.240770
 30
0.0
 10
182.069650
 20
385.495010
 30
0.0
 10
173.172950
 20
387.044310
 30
0.0
  0
LWPOLYLINE
  5
14e
100
AcDbEntity
  8
Calque_1
 62
7
100
AcDbPolyline
 90
1
 70
1
 10
326.042930
 20
463.956825
 30
0.0
  0
SPLINE
  5
14f
100
AcDbEntity
  8
Calque_1
 62
7
100
AcDbSpline
 70
8
 71
3
 72
8
 73
4
 74
0
 40
0
 40
0
 40
0
 40
0
 40
1
 40
1
 40
1
 40
1
 10
165.195520
 20
410.519832
 30
0.0
 10
165.195520
 20
425.773881
 30
0.0
 10
165.768000
 20
435.377666
 30
0.0
 10
167.046130
 20
441.565486
 30
0.0
  0
SPLINE
  5
150
100
AcDbEntity
  8
Calque_1
 62
7
100
AcDbSpline
 70
8
 71
3
 72
8
 73
4
 74
0
 40
0
 40
0
 40
0
 40
0
 40
1
 40
1
 40
1
 40
1
 10
167.046130
 20
441.565486
 30
0.0
 10
169.197610
 20
451.981502
 30
0.0
 10
172.847750
 20
461.211938
 30
0.0
 10
175.659830
 20
463.347775
 30
0.0
  0
SPLINE
  5
151
100
AcDbEntity
  8
Calque_1
 62
7
100
AcDbSpline
 70
8
 71
3
 72
8
 73
4
 74
0
 40
0
 40
0
 40
0
 40
0
 40
1
 40
1
 40
1
 40
1
 10
175.659830
 20
463.347775
 30
0.0
 10
177.645140
 20
464.944133
 30
0.0
 10
178.770490
 20
464.161755
 30
0.0
 10
179.884420
 20
463.347775
 30
0.0
  0
LWPOLYLINE
  5
152
100
AcDbEntity
  8
Calque_1
 62
7
100
AcDbPolyline
 90
3
 70
0
 10
173.172950
 20
387.044310
 30
0.0
 10
165.195520
 20
388.433530
 30
0.0
 10
165.195520
 20
410.519832
 30
0.0
  0
SPLINE
  5
153
100
AcDbEntity
  8
Calque_1
 62
7
100
AcDbSpline
 70
8
 71
3
 72
8
 73
4
 74
0
 40
0
 40
0
 40
0
 40
0
 40
1
 40
1
 40
1
 40
1
 10
177.557330
 20
465.939002
 30
0.0
 10
179.896130
 20
466.593301
 30
0.0
 10
184.305730
 20
463.507631
 30
0.0
 10
187.081740
 20
457.358918
 30
0.0
  0
SPLINE
  5
154
100
AcDbEntity
  8
Calque_1
 62
7
100
AcDbSpline
 70
8
 71
3
 72
8
 73
4
 74
0
 40
0
 40
0
 40
0
 40
0
 40
1
 40
1
 40
1
 40
1
 10
187.081740
 20
457.358918
 30
0.0
 10
192.695370
 20
444.925005
 30
0.0
 10
192.744270
 20
438.920138
 30
0.0
 10
192.744270
 20
404.897444
 30
0.0
  0
SPLINE
  5
155
100
AcDbEntity
  8
Calque_1
 62
7
100
AcDbSpline
 70
8
 71
3
 72
8
 73
4
 74
0
 40
0
 40
0
 40
0
 40
0
 40
1
 40
1
 40
1
 40
1
 10
192.744270
 20
404.897444
 30
0.0
 10
192.744270
 20
377.001860
 30
0.0
 10
192.500200
 20
372.616580
 30
0.0
 10
190.947610
 20
372.616580
 30
0.0
  0
SPLINE
  5
156
100
AcDbEntity
  8
Calque_1
 62
7
100
AcDbSpline
 70
8
 71
3
 72
8
 73
4
 74
0
 40
0
 40
0
 40
0
 40
0
 40
1
 40
1
 40
1
 40
1
 10
190.947610
 20
372.616580
 30
0.0
 10
189.959450
 20
372.616580
 30
0.0
 10
189.150950
 20
373.114210
 30
0.0
 10
189.150950
 20
373.722450
 30
0.0
  0
SPLINE
  5
157
100
AcDbEntity
  8
Calque_1
 62
7
100
AcDbSpline
 70
8
 71
3
 72
8
 73
4
 74
0
 40
0
 40
0
 40
0
 40
0
 40
1
 40
1
 40
1
 40
1
 10
189.150950
 20
373.722450
 30
0.0
 10
189.150950
 20
374.330670
 30
0.0
 10
187.784370
 20
376.452420
 30
0.0
 10
186.114090
 20
378.437420
 30
0.0
  0
SPLINE
  5
158
100
AcDbEntity
  8
Calque_1
 62
7
100
AcDbSpline
 70
8
 71
3
 72
8
 73
4
 74
0
 40
0
 40
0
 40
0
 40
0
 40
1
 40
1
 40
1
 40
1
 10
186.114090
 20
378.437420
 30
0.0
 10
183.109510
 20
382.008170
 30
0.0
 10
182.722710
 20
382.141680
 30
0.0
 10
166.093850
 20
385.347410
 30
0.0
  0
LWPOLYLINE
  5
159
100
AcDbEntity
  8
Calque_1
 62
7
100
AcDbPolyline
 90
1
 70
1
 10
179.884420
 20
463.347775
 30
0.0
  0
SPLINE
  5
15a
100
AcDbEntity
  8
Calque_1
 62
7
100
AcDbSpline
 70
8
 71
3
 72
8
 73
4
 74
0
 40
0
 40
0
 40
0
 40
0
 40
1
 40
1
 40
1
 40
1
 10
162.799980
 20
411.580366
 30
0.0
 10
162.799980
 20
438.610221
 30
0.0
 10
163.609320
 20
445.153267
 30
0.0
 10
168.462530
 20
457.358918
 30
0.0
  0
SPLINE
  5
15b
100
AcDbEntity
  8
Calque_1
 62
7
100
AcDbSpline
 70
8
 71
3
 72
8
 73
4
 74
0
 40
0
 40
0
 40
0
 40
0
 40
1
 40
1
 40
1
 40
1
 10
168.462530
 20
457.358918
 30
0.0
 10
169.858690
 20
460.071127
 30
0.0
 10
173.989370
 20
465.855766
 30
0.0
 10
177.557330
 20
465.939002
 30
0.0
  0
LWPOLYLINE
  5
15c
100
AcDbEntity
  8
Calque_1
 62
7
100
AcDbPolyline
 90
3
 70
0
 10
166.093850
 20
385.347410
 30
0.0
 10
162.799980
 20
385.982410
 30
0.0
 10
162.799980
 20
411.580366
 30
0.0
  0
SPLINE
  5
15d
100
AcDbEntity
  8
Calque_1
 62
7
100
AcDbSpline
 70
8
 71
3
 72
8
 73
4
 74
0
 40
0
 40
0
 40
0
 40
0
 40
1
 40
1
 40
1
 40
1
 10
307.310430
 20
391.182040
 30
0.0
 10
306.632970
 20
410.553024
 30
0.0
 10
305.049030
 20
419.604697
 30
0.0
 10
300.561560
 20
429.749351
 30
0.0
  0
SPLINE
  5
15e
100
AcDbEntity
  8
Calque_1
 62
7
100
AcDbSpline
 70
8
 71
3
 72
8
 73
4
 74
0
 40
0
 40
0
 40
0
 40
0
 40
1
 40
1
 40
1
 40
1
 10
300.561560
 20
429.749351
 30
0.0
 10
296.137040
 20
439.751721
 30
0.0
 10
291.986770
 20
438.188095
 30
0.0
 10
286.960030
 20
424.624926
 30
0.0
  0
SPLINE
  5
15f
100
AcDbEntity
  8
Calque_1
 62
7
100
AcDbSpline
 70
8
 71
3
 72
8
 73
4
 74
0
 40
0
 40
0
 40
0
 40
0
 40
1
 40
1
 40
1
 40
1
 10
286.960030
 20
424.624926
 30
0.0
 10
284.102230
 20
416.913973
 30
0.0
 10
283.335960
 20
412.653708
 30
0.0
 10
282.867810
 20
401.872894
 30
0.0
  0
LWPOLYLINE
  5
160
100
AcDbEntity
  8
Calque_1
 62
7
100
AcDbPolyline
 90
1
 70
1
 10
177.557330
 20
465.939002
 30
0.0
  0
SPLINE
  5
161
100
AcDbEntity
  8
Calque_1
 62
7
100
AcDbSpline
 70
8
 71
3
 72
8
 73
4
 74
0
 40
0
 40
0
 40
0
 40
0
 40
1
 40
1
 40
1
 40
1
 10
286.327240
 20
383.123870
 30
0.0
 10
289.011060
 20
379.476320
 30
0.0
 10
292.076480
 20
376.962270
 30
0.0
 10
295.479600
 20
375.617730
 30
0.0
  0
SPLINE
  5
162
100
AcDbEntity
  8
Calque_1
 62
7
100
AcDbSpline
 70
8
 71
3
 72
8
 73
4
 74
0
 40
0
 40
0
 40
0
 40
0
 40
1
 40
1
 40
1
 40
1
 10
295.479600
 20
375.617730
 30
0.0
 10
298.293930
 20
374.505810
 30
0.0
 10
301.527910
 20
372.325290
 30
0.0
 10
302.666230
 20
370.772140
 30
0.0
  0
SPLINE
  5
163
100
AcDbEntity
  8
Calque_1
 62
7
100
AcDbSpline
 70
8
 71
3
 72
8
 73
4
 74
0
 40
0
 40
0
 40
0
 40
0
 40
1
 40
1
 40
1
 40
1
 10
302.666230
 20
370.772140
 30
0.0
 10
304.583530
 20
368.156150
 30
0.0
 10
304.855370
 20
368.098040
 30
0.0
 10
306.358290
 20
369.982950
 30
0.0
  0
SPLINE
  5
164
100
AcDbEntity
  8
Calque_1
 62
7
100
AcDbSpline
 70
8
 71
3
 72
8
 73
4
 74
0
 40
0
 40
0
 40
0
 40
0
 40
1
 40
1
 40
1
 40
1
 10
306.358290
 20
369.982950
 30
0.0
 10
307.637270
 20
371.587020
 30
0.0
 10
307.838790
 20
376.074070
 30
0.0
 10
307.310430
 20
391.182040
 30
0.0
  0
LWPOLYLINE
  5
165
100
AcDbEntity
  8
Calque_1
 62
7
100
AcDbPolyline
 90
3
 70
0
 10
282.867810
 20
401.872894
 30
0.0
 10
282.291800
 20
388.608320
 30
0.0
 10
286.327240
 20
383.123870
 30
0.0
  0
SPLINE
  5
166
100
AcDbEntity
  8
Calque_1
 62
7
100
AcDbSpline
 70
8
 71
3
 72
8
 73
4
 74
0
 40
0
 40
0
 40
0
 40
0
 40
1
 40
1
 40
1
 40
1
 10
300.308790
 20
368.301920
 30
0.0
 10
298.439030
 20
370.558160
 30
0.0
 10
295.035210
 20
372.811200
 30
0.0
 10
292.223840
 20
373.653510
 30
0.0
  0
SPLINE
  5
167
100
AcDbEntity
  8
Calque_1
 62
7
100
AcDbSpline
 70
8
 71
3
 72
8
 73
4
 74
0
 40
0
 40
0
 40
0
 40
0
 40
1
 40
1
 40
1
 40
1
 10
292.223840
 20
373.653510
 30
0.0
 10
289.553250
 20
374.453630
 30
0.0
 10
287.368240
 20
375.624090
 30
0.0
 10
287.368240
 20
376.254520
 30
0.0
  0
SPLINE
  5
168
100
AcDbEntity
  8
Calque_1
 62
7
100
AcDbSpline
 70
8
 71
3
 72
8
 73
4
 74
0
 40
0
 40
0
 40
0
 40
0
 40
1
 40
1
 40
1
 40
1
 10
287.368240
 20
376.254520
 30
0.0
 10
287.368240
 20
376.884960
 30
0.0
 10
285.401990
 20
379.577160
 30
0.0
 10
282.998790
 20
382.237210
 30
0.0
  0
LWPOLYLINE
  5
169
100
AcDbEntity
  8
Calque_1
 62
7
100
AcDbPolyline
 90
1
 70
1
 10
307.310430
 20
391.182040
 30
0.0
  0
SPLINE
  5
16a
100
AcDbEntity
  8
Calque_1
 62
7
100
AcDbSpline
 70
8
 71
3
 72
8
 73
4
 74
0
 40
0
 40
0
 40
0
 40
0
 40
1
 40
1
 40
1
 40
1
 10
279.368600
 20
399.907780
 30
0.0
 10
280.177940
 20
413.959380
 30
0.0
 10
281.902880
 20
421.613068
 30
0.0
 10
286.546230
 20
431.755481
 30
0.0
  0
SPLINE
  5
16b
100
AcDbEntity
  8
Calque_1
 62
7
100
AcDbSpline
 70
8
 71
3
 72
8
 73
4
 74
0
 40
0
 40
0
 40
0
 40
0
 40
1
 40
1
 40
1
 40
1
 10
286.546230
 20
431.755481
 30
0.0
 10
288.792680
 20
436.662356
 30
0.0
 10
290.400120
 20
438.608092
 30
0.0
 10
292.680250
 20
439.180365
 30
0.0
  0
SPLINE
  5
16c
100
AcDbEntity
  8
Calque_1
 62
7
100
AcDbSpline
 70
8
 71
3
 72
8
 73
4
 74
0
 40
0
 40
0
 40
0
 40
0
 40
1
 40
1
 40
1
 40
1
 10
292.680250
 20
439.180365
 30
0.0
 10
297.777360
 20
440.459655
 30
0.0
 10
301.102250
 20
437.196913
 30
0.0
 10
304.600480
 20
427.482969
 30
0.0
  0
SPLINE
  5
16d
100
AcDbEntity
  8
Calque_1
 62
7
100
AcDbSpline
 70
8
 71
3
 72
8
 73
4
 74
0
 40
0
 40
0
 40
0
 40
0
 40
1
 40
1
 40
1
 40
1
 10
304.600480
 20
427.482969
 30
0.0
 10
309.181850
 20
414.761284
 30
0.0
 10
310.125890
 20
407.962824
 30
0.0
 10
310.125890
 20
387.691750
 30
0.0
  0
SPLINE
  5
16e
100
AcDbEntity
  8
Calque_1
 62
7
100
AcDbSpline
 70
8
 71
3
 72
8
 73
4
 74
0
 40
0
 40
0
 40
0
 40
0
 40
1
 40
1
 40
1
 40
1
 10
310.125890
 20
387.691750
 30
0.0
 10
310.125890
 20
373.216290
 30
0.0
 10
309.749580
 20
369.019040
 30
0.0
 10
308.261320
 20
366.894230
 30
0.0
  0
SPLINE
  5
16f
100
AcDbEntity
  8
Calque_1
 62
7
100
AcDbSpline
 70
8
 71
3
 72
8
 73
4
 74
0
 40
0
 40
0
 40
0
 40
0
 40
1
 40
1
 40
1
 40
1
 10
308.261320
 20
366.894230
 30
0.0
 10
305.782880
 20
363.355770
 30
0.0
 10
304.171360
 20
363.641050
 30
0.0
 10
300.308790
 20
368.301920
 30
0.0
  0
LWPOLYLINE
  5
170
100
AcDbEntity
  8
Calque_1
 62
7
100
AcDbPolyline
 90
3
 70
0
 10
282.998790
 20
382.237210
 30
0.0
 10
278.629380
 20
387.073630
 30
0.0
 10
279.368600
 20
399.907780
 30
0.0
  0
SPLINE
  5
171
100
AcDbEntity
  8
Calque_1
 62
7
100
AcDbSpline
 70
8
 71
3
 72
8
 73
4
 74
0
 40
0
 40
0
 40
0
 40
0
 40
1
 40
1
 40
1
 40
1
 10
213.422780
 20
364.929150
 30
0.0
 10
214.080640
 20
375.081810
 30
0.0
 10
216.664040
 20
382.027220
 30
0.0
 10
221.363340
 20
386.277150
 30
0.0
  0
SPLINE
  5
172
100
AcDbEntity
  8
Calque_1
 62
7
100
AcDbSpline
 70
8
 71
3
 72
8
 73
4
 74
0
 40
0
 40
0
 40
0
 40
0
 40
1
 40
1
 40
1
 40
1
 10
221.363340
 20
386.277150
 30
0.0
 10
223.427320
 20
388.143770
 30
0.0
 10
223.886330
 20
389.950730
 30
0.0
 10
223.886330
 20
396.209260
 30
0.0
  0
SPLINE
  5
173
100
AcDbEntity
  8
Calque_1
 62
7
100
AcDbSpline
 70
8
 71
3
 72
8
 73
4
 74
0
 40
0
 40
0
 40
0
 40
0
 40
1
 40
1
 40
1
 40
1
 10
223.886330
 20
396.209260
 30
0.0
 10
223.886330
 20
406.159614
 30
0.0
 10
220.903450
 20
420.548243
 30
0.0
 10
217.044720
 20
429.211285
 30
0.0
  0
SPLINE
  5
174
100
AcDbEntity
  8
Calque_1
 62
7
100
AcDbSpline
 70
8
 71
3
 72
8
 73
4
 74
0
 40
0
 40
0
 40
0
 40
0
 40
1
 40
1
 40
1
 40
1
 10
217.044720
 20
429.211285
 30
0.0
 10
214.532420
 20
434.851550
 30
0.0
 10
213.452560
 20
436.098472
 30
0.0
 10
211.080250
 20
436.098472
 30
0.0
  0
SPLINE
  5
175
100
AcDbEntity
  8
Calque_1
 62
7
100
AcDbSpline
 70
8
 71
3
 72
8
 73
4
 74
0
 40
0
 40
0
 40
0
 40
0
 40
1
 40
1
 40
1
 40
1
 10
211.080250
 20
436.098472
 30
0.0
 10
208.705880
 20
436.098472
 30
0.0
 10
207.633420
 20
434.856419
 30
0.0
 10
205.133430
 20
429.211285
 30
0.0
  0
SPLINE
  5
176
100
AcDbEntity
  8
Calque_1
 62
7
100
AcDbSpline
 70
8
 71
3
 72
8
 73
4
 74
0
 40
0
 40
0
 40
0
 40
0
 40
1
 40
1
 40
1
 40
1
 10
205.133430
 20
429.211285
 30
0.0
 10
200.167290
 20
417.997458
 30
0.0
 10
198.775070
 20
408.627844
 30
0.0
 10
198.770870
 20
386.390950
 30
0.0
  0
LWPOLYLINE
  5
177
100
AcDbEntity
  8
Calque_1
 62
7
100
AcDbPolyline
 90
1
 70
1
 10
300.308790
 20
368.301920
 30
0.0
  0
SPLINE
  5
178
100
AcDbEntity
  8
Calque_1
 62
7
100
AcDbSpline
 70
8
 71
3
 72
8
 73
4
 74
0
 40
0
 40
0
 40
0
 40
0
 40
1
 40
1
 40
1
 40
1
 10
204.932170
 20
359.035430
 30
0.0
 10
209.293720
 20
354.087260
 30
0.0
 10
211.345040
 20
352.510960
 30
0.0
 10
211.946420
 20
353.645450
 30
0.0
  0
SPLINE
  5
179
100
AcDbEntity
  8
Calque_1
 62
7
100
AcDbSpline
 70
8
 71
3
 72
8
 73
4
 74
0
 40
0
 40
0
 40
0
 40
0
 40
1
 40
1
 40
1
 40
1
 10
211.946420
 20
353.645450
 30
0.0
 10
212.413900
 20
354.527350
 30
0.0
 10
213.078630
 20
359.605010
 30
0.0
 10
213.423630
 20
364.929150
 30
0.0
  0
LWPOLYLINE
  5
17a
100
AcDbEntity
  8
Calque_1
 62
7
100
AcDbPolyline
 90
3
 70
0
 10
198.770870
 20
386.390950
 30
0.0
 10
198.767870
 20
366.028830
 30
0.0
 10
204.932170
 20
359.035430
 30
0.0
  0
LWPOLYLINE
  5
17b
100
AcDbEntity
  8
Calque_1
 62
7
100
AcDbPolyline
 90
2
 70
0
 10
213.423630
 20
364.929150
 30
0.0
 10
213.422780
 20
364.929150
 30
0.0
  0
SPLINE
  5
17c
100
AcDbEntity
  8
Calque_1
 62
7
100
AcDbSpline
 70
8
 71
3
 72
8
 73
4
 74
0
 40
0
 40
0
 40
0
 40
0
 40
1
 40
1
 40
1
 40
1
 10
196.562480
 20
390.267430
 30
0.0
 10
196.936780
 20
415.111768
 30
0.0
 10
197.107550
 20
416.753763
 30
0.0
 10
200.200850
 20
425.252426
 30
0.0
  0
SPLINE
  5
17d
100
AcDbEntity
  8
Calque_1
 62
7
100
AcDbSpline
 70
8
 71
3
 72
8
 73
4
 74
0
 40
0
 40
0
 40
0
 40
0
 40
1
 40
1
 40
1
 40
1
 10
200.200850
 20
425.252426
 30
0.0
 10
204.301120
 20
436.517770
 30
0.0
 10
208.082400
 20
440.657365
 30
0.0
 10
212.767360
 20
439.009754
 30
0.0
  0
SPLINE
  5
17e
100
AcDbEntity
  8
Calque_1
 62
7
100
AcDbSpline
 70
8
 71
3
 72
8
 73
4
 74
0
 40
0
 40
0
 40
0
 40
0
 40
1
 40
1
 40
1
 40
1
 10
212.767360
 20
439.009754
 30
0.0
 10
219.800770
 20
436.536237
 30
0.0
 10
226.281880
 20
417.180790
 30
0.0
 10
226.281880
 20
398.649420
 30
0.0
  0
SPLINE
  5
17f
100
AcDbEntity
  8
Calque_1
 62
7
100
AcDbSpline
 70
8
 71
3
 72
8
 73
4
 74
0
 40
0
 40
0
 40
0
 40
0
 40
1
 40
1
 40
1
 40
1
 10
226.281880
 20
398.649420
 30
0.0
 10
226.281880
 20
388.802350
 30
0.0
 10
226.024660
 20
387.629500
 30
0.0
 10
223.105930
 20
384.168320
 30
0.0
  0
SPLINE
  5
180
100
AcDbEntity
  8
Calque_1
 62
7
100
AcDbSpline
 70
8
 71
3
 72
8
 73
4
 74
0
 40
0
 40
0
 40
0
 40
0
 40
1
 40
1
 40
1
 40
1
 10
223.105930
 20
384.168320
 30
0.0
 10
218.490930
 20
378.695540
 30
0.0
 10
217.036530
 20
374.395000
 30
0.0
 10
216.161310
 20
363.633290
 30
0.0
  0
SPLINE
  5
181
100
AcDbEntity
  8
Calque_1
 62
7
100
AcDbSpline
 70
8
 71
3
 72
8
 73
4
 74
0
 40
0
 40
0
 40
0
 40
0
 40
1
 40
1
 40
1
 40
1
 10
216.161310
 20
363.633290
 30
0.0
 10
214.689670
 20
345.538460
 30
0.0
 10
214.302700
 20
345.316020
 30
0.0
 10
203.630160
 20
356.430380
 30
0.0
  0
LWPOLYLINE
  5
182
100
AcDbEntity
  8
Calque_1
 62
7
100
AcDbPolyline
 90
3
 70
0
 10
203.630160
 20
356.430380
 30
0.0
 10
196.169760
 20
364.199610
 30
0.0
 10
196.562480
 20
390.267430
 30
0.0
  0
SPLINE
  5
183
100
AcDbEntity
  8
Calque_1
 62
7
100
AcDbSpline
 70
8
 71
3
 72
8
 73
4
 74
0
 40
0
 40
0
 40
0
 40
0
 40
1
 40
1
 40
1
 40
1
 10
459.868430
 20
303.657190
 30
0.0
 10
455.596380
 20
298.083420
 30
0.0
 10
453.193350
 20
293.416080
 30
0.0
 10
451.411390
 20
287.231280
 30
0.0
  0
SPLINE
  5
184
100
AcDbEntity
  8
Calque_1
 62
7
100
AcDbSpline
 70
8
 71
3
 72
8
 73
4
 74
0
 40
0
 40
0
 40
0
 40
0
 40
1
 40
1
 40
1
 40
1
 10
451.411390
 20
287.231280
 30
0.0
 10
446.488050
 20
270.143300
 30
0.0
 10
444.855650
 20
268.261950
 30
0.0
 10
433.102070
 20
266.129920
 30
0.0
  0
SPLINE
  5
185
100
AcDbEntity
  8
Calque_1
 62
7
100
AcDbSpline
 70
8
 71
3
 72
8
 73
4
 74
0
 40
0
 40
0
 40
0
 40
0
 40
1
 40
1
 40
1
 40
1
 10
433.102070
 20
266.129920
 30
0.0
 10
418.567780
 20
263.493440
 30
0.0
 10
404.104560
 20
251.807320
 30
0.0
 10
390.711070
 20
231.878410
 30
0.0
  0
SPLINE
  5
186
100
AcDbEntity
  8
Calque_1
 62
7
100
AcDbSpline
 70
8
 71
3
 72
8
 73
4
 74
0
 40
0
 40
0
 40
0
 40
0
 40
1
 40
1
 40
1
 40
1
 10
390.711070
 20
231.878410
 30
0.0
 10
383.528530
 20
221.191110
 30
0.0
 10
373.644070
 20
211.274860
 30
0.0
 10
351.636850
 20
192.678480
 30
0.0
  0
SPLINE
  5
187
100
AcDbEntity
  8
Calque_1
 62
7
100
AcDbSpline
 70
8
 71
3
 72
8
 73
4
 74
0
 40
0
 40
0
 40
0
 40
0
 40
1
 40
1
 40
1
 40
1
 10
351.636850
 20
192.678480
 30
0.0
 10
341.406790
 20
184.033950
 30
0.0
 10
326.294430
 20
175.580110
 30
0.0
 10
313.719200
 20
171.467360
 30
0.0
  0
SPLINE
  5
188
100
AcDbEntity
  8
Calque_1
 62
7
100
AcDbSpline
 70
8
 71
3
 72
8
 73
4
 74
0
 40
0
 40
0
 40
0
 40
0
 40
1
 40
1
 40
1
 40
1
 10
313.719200
 20
171.467360
 30
0.0
 10
304.492090
 20
168.449620
 30
0.0
 10
290.096240
 20
167.120250
 30
0.0
 10
287.068790
 20
169.006350
 30
0.0
  0
SPLINE
  5
189
100
AcDbEntity
  8
Calque_1
 62
7
100
AcDbSpline
 70
8
 71
3
 72
8
 73
4
 74
0
 40
0
 40
0
 40
0
 40
0
 40
1
 40
1
 40
1
 40
1
 10
287.068790
 20
169.006350
 30
0.0
 10
284.318670
 20
170.719660
 30
0.0
 10
284.447690
 20
174.843880
 30
0.0
 10
287.368240
 20
178.577580
 30
0.0
  0
SPLINE
  5
18a
100
AcDbEntity
  8
Calque_1
 62
7
100
AcDbSpline
 70
8
 71
3
 72
8
 73
4
 74
0
 40
0
 40
0
 40
0
 40
0
 40
1
 40
1
 40
1
 40
1
 10
287.368240
 20
178.577580
 30
0.0
 10
288.656470
 20
180.224520
 30
0.0
 10
289.722500
 20
181.918270
 30
0.0
 10
289.737140
 20
182.341500
 30
0.0
  0
SPLINE
  5
18b
100
AcDbEntity
  8
Calque_1
 62
7
100
AcDbSpline
 70
8
 71
3
 72
8
 73
4
 74
0
 40
0
 40
0
 40
0
 40
0
 40
1
 40
1
 40
1
 40
1
 10
289.737140
 20
182.341500
 30
0.0
 10
289.751740
 20
182.764720
 30
0.0
 10
287.068790
 20
185.166210
 30
0.0
 10
283.774910
 20
187.678150
 30
0.0
  0
SPLINE
  5
18c
100
AcDbEntity
  8
Calque_1
 62
7
100
AcDbSpline
 70
8
 71
3
 72
8
 73
4
 74
0
 40
0
 40
0
 40
0
 40
0
 40
1
 40
1
 40
1
 40
1
 10
283.774910
 20
187.678150
 30
0.0
 10
280.448530
 20
190.214890
 30
0.0
 10
277.786050
 20
193.216060
 30
0.0
 10
277.786050
 20
194.428880
 30
0.0
  0
SPLINE
  5
18d
100
AcDbEntity
  8
Calque_1
 62
7
100
AcDbSpline
 70
8
 71
3
 72
8
 73
4
 74
0
 40
0
 40
0
 40
0
 40
0
 40
1
 40
1
 40
1
 40
1
 10
277.786050
 20
194.428880
 30
0.0
 10
277.786050
 20
199.326910
 30
0.0
 10
295.303050
 20
228.371220
 30
0.0
 10
301.928150
 20
234.458070
 30
0.0
  0
SPLINE
  5
18e
100
AcDbEntity
  8
Calque_1
 62
7
100
AcDbSpline
 70
8
 71
3
 72
8
 73
4
 74
0
 40
0
 40
0
 40
0
 40
0
 40
1
 40
1
 40
1
 40
1
 10
301.928150
 20
234.458070
 30
0.0
 10
303.472420
 20
235.876870
 30
0.0
 10
312.012390
 20
240.254280
 30
0.0
 10
320.905830
 20
244.185620
 30
0.0
  0
SPLINE
  5
18f
100
AcDbEntity
  8
Calque_1
 62
7
100
AcDbSpline
 70
8
 71
3
 72
8
 73
4
 74
0
 40
0
 40
0
 40
0
 40
0
 40
1
 40
1
 40
1
 40
1
 10
320.905830
 20
244.185620
 30
0.0
 10
348.535450
 20
256.399290
 30
0.0
 10
369.517940
 20
269.745430
 30
0.0
 10
385.537130
 20
285.295080
 30
0.0
  0
SPLINE
  5
190
100
AcDbEntity
  8
Calque_1
 62
7
100
AcDbSpline
 70
8
 71
3
 72
8
 73
4
 74
0
 40
0
 40
0
 40
0
 40
0
 40
1
 40
1
 40
1
 40
1
 10
385.537130
 20
285.295080
 30
0.0
 10
395.377720
 20
294.847240
 30
0.0
 10
397.175300
 20
295.959200
 30
0.0
 10
402.776750
 20
295.959200
 30
0.0
  0
SPLINE
  5
191
100
AcDbEntity
  8
Calque_1
 62
7
100
AcDbSpline
 70
8
 71
3
 72
8
 73
4
 74
0
 40
0
 40
0
 40
0
 40
0
 40
1
 40
1
 40
1
 40
1
 10
402.776750
 20
295.959200
 30
0.0
 10
406.220170
 20
295.959200
 30
0.0
 10
407.384530
 20
296.662270
 30
0.0
 10
409.434690
 20
299.979490
 30
0.0
  0
SPLINE
  5
192
100
AcDbEntity
  8
Calque_1
 62
7
100
AcDbSpline
 70
8
 71
3
 72
8
 73
4
 74
0
 40
0
 40
0
 40
0
 40
0
 40
1
 40
1
 40
1
 40
1
 10
409.434690
 20
299.979490
 30
0.0
 10
417.532410
 20
313.081870
 30
0.0
 10
439.356920
 20
325.903480
 30
0.0
 10
453.561650
 20
325.903480
 30
0.0
  0
SPLINE
  5
193
100
AcDbEntity
  8
Calque_1
 62
7
100
AcDbSpline
 70
8
 71
3
 72
8
 73
4
 74
0
 40
0
 40
0
 40
0
 40
0
 40
1
 40
1
 40
1
 40
1
 10
453.561650
 20
325.903480
 30
0.0
 10
459.641070
 20
325.903480
 30
0.0
 10
464.037750
 20
324.457510
 30
0.0
 10
465.204770
 20
318.789230
 30
0.0
  0
SPLINE
  5
194
100
AcDbEntity
  8
Calque_1
 62
7
100
AcDbSpline
 70
8
 71
3
 72
8
 73
4
 74
0
 40
0
 40
0
 40
0
 40
0
 40
1
 40
1
 40
1
 40
1
 10
465.204770
 20
318.789230
 30
0.0
 10
465.772860
 20
316.029990
 30
0.0
 10
467.089810
 20
311.754360
 30
0.0
 10
459.868430
 20
303.657190
 30
0.0
  0
SPLINE
  5
195
100
AcDbEntity
  8
Calque_1
 62
7
100
AcDbSpline
 70
8
 71
3
 72
8
 73
4
 74
0
 40
0
 40
0
 40
0
 40
0
 40
1
 40
1
 40
1
 40
1
 10
462.635680
 20
319.401840
 30
0.0
 10
460.338780
 20
323.922430
 30
0.0
 10
450.036810
 20
322.829630
 30
0.0
 10
448.144510
 20
322.373810
 30
0.0
  0
SPLINE
  5
196
100
AcDbEntity
  8
Calque_1
 62
7
100
AcDbSpline
 70
8
 71
3
 72
8
 73
4
 74
0
 40
0
 40
0
 40
0
 40
0
 40
1
 40
1
 40
1
 40
1
 10
448.144510
 20
322.373810
 30
0.0
 10
434.017760
 20
318.867220
 30
0.0
 10
419.993360
 20
309.848320
 30
0.0
 10
413.089270
 20
299.830210
 30
0.0
  0
SPLINE
  5
197
100
AcDbEntity
  8
Calque_1
 62
7
100
AcDbSpline
 70
8
 71
3
 72
8
 73
4
 74
0
 40
0
 40
0
 40
0
 40
0
 40
1
 40
1
 40
1
 40
1
 10
413.089270
 20
299.830210
 30
0.0
 10
409.272810
 20
294.292390
 30
0.0
 10
408.494240
 20
293.769330
 30
0.0
 10
403.327490
 20
293.272170
 30
0.0
  0
SPLINE
  5
198
100
AcDbEntity
  8
Calque_1
 62
7
100
AcDbSpline
 70
8
 71
3
 72
8
 73
4
 74
0
 40
0
 40
0
 40
0
 40
0
 40
1
 40
1
 40
1
 40
1
 10
403.327490
 20
293.272170
 30
0.0
 10
398.197740
 20
292.778550
 30
0.0
 10
396.751090
 20
291.826470
 30
0.0
 10
386.573550
 20
282.245750
 30
0.0
  0
SPLINE
  5
199
100
AcDbEntity
  8
Calque_1
 62
7
100
AcDbSpline
 70
8
 71
3
 72
8
 73
4
 74
0
 40
0
 40
0
 40
0
 40
0
 40
1
 40
1
 40
1
 40
1
 10
386.573550
 20
282.245750
 30
0.0
 10
369.477300
 20
266.152070
 30
0.0
 10
341.583550
 20
248.738850
 30
0.0
 10
318.141250
 20
239.525580
 30
0.0
  0
SPLINE
  5
19a
100
AcDbEntity
  8
Calque_1
 62
7
100
AcDbSpline
 70
8
 71
3
 72
8
 73
4
 74
0
 40
0
 40
0
 40
0
 40
0
 40
1
 40
1
 40
1
 40
1
 10
318.141250
 20
239.525580
 30
0.0
 10
314.720970
 20
238.181330
 30
0.0
 10
310.235240
 20
236.284230
 30
0.0
 10
308.172980
 20
235.309750
 30
0.0
  0
SPLINE
  5
19b
100
AcDbEntity
  8
Calque_1
 62
7
100
AcDbSpline
 70
8
 71
3
 72
8
 73
4
 74
0
 40
0
 40
0
 40
0
 40
0
 40
1
 40
1
 40
1
 40
1
 10
308.172980
 20
235.309750
 30
0.0
 10
303.637330
 20
233.166570
 30
0.0
 10
293.235200
 20
219.055160
 30
0.0
 10
285.571390
 20
204.648700
 30
0.0
  0
LWPOLYLINE
  5
19c
100
AcDbEntity
  8
Calque_1
 62
7
100
AcDbPolyline
 90
1
 70
1
 10
203.630160
 20
356.430380
 30
0.0
  0
SPLINE
  5
19d
100
AcDbEntity
  8
Calque_1
 62
7
100
AcDbSpline
 70
8
 71
3
 72
8
 73
4
 74
0
 40
0
 40
0
 40
0
 40
0
 40
1
 40
1
 40
1
 40
1
 10
286.109190
 20
189.769710
 30
0.0
 10
292.878970
 20
184.715590
 30
0.0
 10
293.749480
 20
181.575870
 30
0.0
 10
289.780100
 20
176.529610
 30
0.0
  0
SPLINE
  5
19e
100
AcDbEntity
  8
Calque_1
 62
7
100
AcDbSpline
 70
8
 71
3
 72
8
 73
4
 74
0
 40
0
 40
0
 40
0
 40
0
 40
1
 40
1
 40
1
 40
1
 10
289.780100
 20
176.529610
 30
0.0
 10
288.471520
 20
174.866040
 30
0.0
 10
287.694840
 20
173.029280
 30
0.0
 10
288.054130
 20
172.447930
 30
0.0
  0
SPLINE
  5
19f
100
AcDbEntity
  8
Calque_1
 62
7
100
AcDbSpline
 70
8
 71
3
 72
8
 73
4
 74
0
 40
0
 40
0
 40
0
 40
0
 40
1
 40
1
 40
1
 40
1
 10
288.054130
 20
172.447930
 30
0.0
 10
289.253250
 20
170.507680
 30
0.0
 10
302.587330
 20
171.360390
 30
0.0
 10
310.898050
 20
173.908810
 30
0.0
  0
SPLINE
  5
1a0
100
AcDbEntity
  8
Calque_1
 62
7
100
AcDbSpline
 70
8
 71
3
 72
8
 73
4
 74
0
 40
0
 40
0
 40
0
 40
0
 40
1
 40
1
 40
1
 40
1
 10
310.898050
 20
173.908810
 30
0.0
 10
322.666750
 20
177.517570
 30
0.0
 10
340.692060
 20
187.133190
 30
0.0
 10
349.053470
 20
194.262850
 30
0.0
  0
SPLINE
  5
1a1
100
AcDbEntity
  8
Calque_1
 62
7
100
AcDbSpline
 70
8
 71
3
 72
8
 73
4
 74
0
 40
0
 40
0
 40
0
 40
0
 40
1
 40
1
 40
1
 40
1
 10
349.053470
 20
194.262850
 30
0.0
 10
365.778590
 20
208.524160
 30
0.0
 10
382.635040
 20
225.051310
 30
0.0
 10
386.302140
 20
230.783930
 30
0.0
  0
SPLINE
  5
1a2
100
AcDbEntity
  8
Calque_1
 62
7
100
AcDbSpline
 70
8
 71
3
 72
8
 73
4
 74
0
 40
0
 40
0
 40
0
 40
0
 40
1
 40
1
 40
1
 40
1
 10
386.302140
 20
230.783930
 30
0.0
 10
400.272630
 20
252.623320
 30
0.0
 10
415.488590
 20
265.528810
 30
0.0
 10
431.264230
 20
268.918730
 30
0.0
  0
SPLINE
  5
1a3
100
AcDbEntity
  8
Calque_1
 62
7
100
AcDbSpline
 70
8
 71
3
 72
8
 73
4
 74
0
 40
0
 40
0
 40
0
 40
0
 40
1
 40
1
 40
1
 40
1
 10
431.264230
 20
268.918730
 30
0.0
 10
444.021210
 20
271.659980
 30
0.0
 10
443.883980
 20
271.519600
 30
0.0
 10
447.805750
 20
285.841120
 30
0.0
  0
SPLINE
  5
1a4
100
AcDbEntity
  8
Calque_1
 62
7
100
AcDbSpline
 70
8
 71
3
 72
8
 73
4
 74
0
 40
0
 40
0
 40
0
 40
0
 40
1
 40
1
 40
1
 40
1
 10
447.805750
 20
285.841120
 30
0.0
 10
450.644880
 20
296.209070
 30
0.0
 10
454.950260
 20
303.845720
 30
0.0
 10
461.577020
 20
310.267970
 30
0.0
  0
SPLINE
  5
1a5
100
AcDbEntity
  8
Calque_1
 62
7
100
AcDbSpline
 70
8
 71
3
 72
8
 73
4
 74
0
 40
0
 40
0
 40
0
 40
0
 40
1
 40
1
 40
1
 40
1
 10
461.577020
 20
310.267970
 30
0.0
 10
463.788250
 20
312.410960
 30
0.0
 10
463.974950
 20
316.992280
 30
0.0
 10
462.635680
 20
319.401840
 30
0.0
  0
SPLINE
  5
1a6
100
AcDbEntity
  8
Calque_1
 62
7
100
AcDbSpline
 70
8
 71
3
 72
8
 73
4
 74
0
 40
0
 40
0
 40
0
 40
0
 40
1
 40
1
 40
1
 40
1
 10
42.525518
 20
307.950510
 30
0.0
 10
49.472637
 20
300.011640
 30
0.0
 10
51.765534
 20
294.697820
 30
0.0
 10
54.480607
 20
284.065330
 30
0.0
  0
SPLINE
  5
1a7
100
AcDbEntity
  8
Calque_1
 62
7
100
AcDbSpline
 70
8
 71
3
 72
8
 73
4
 74
0
 40
0
 40
0
 40
0
 40
0
 40
1
 40
1
 40
1
 40
1
 10
54.480607
 20
284.065330
 30
0.0
 10
57.587838
 20
271.897150
 30
0.0
 10
58.294380
 20
271.267700
 30
0.0
 10
71.988030
 20
268.468400
 30
0.0
  0
SPLINE
  5
1a8
100
AcDbEntity
  8
Calque_1
 62
7
100
AcDbSpline
 70
8
 71
3
 72
8
 73
4
 74
0
 40
0
 40
0
 40
0
 40
0
 40
1
 40
1
 40
1
 40
1
 10
71.988030
 20
268.468400
 30
0.0
 10
84.796826
 20
265.850000
 30
0.0
 10
100.359970
 20
252.761280
 30
0.0
 10
112.713950
 20
234.217580
 30
0.0
  0
SPLINE
  5
1a9
100
AcDbEntity
  8
Calque_1
 62
7
100
AcDbSpline
 70
8
 71
3
 72
8
 73
4
 74
0
 40
0
 40
0
 40
0
 40
0
 40
1
 40
1
 40
1
 40
1
 10
112.713950
 20
234.217580
 30
0.0
 10
118.546380
 20
225.462930
 30
0.0
 10
133.905970
 20
209.787290
 30
0.0
 10
150.530970
 20
195.622400
 30
0.0
  0
SPLINE
  5
1aa
100
AcDbEntity
  8
Calque_1
 62
7
100
AcDbSpline
 70
8
 71
3
 72
8
 73
4
 74
0
 40
0
 40
0
 40
0
 40
0
 40
1
 40
1
 40
1
 40
1
 10
150.530970
 20
195.622400
 30
0.0
 10
161.354500
 20
186.400480
 30
0.0
 10
176.749540
 20
177.838660
 30
0.0
 10
189.576580
 20
173.907460
 30
0.0
  0
SPLINE
  5
1ab
100
AcDbEntity
  8
Calque_1
 62
7
100
AcDbSpline
 70
8
 71
3
 72
8
 73
4
 74
0
 40
0
 40
0
 40
0
 40
0
 40
1
 40
1
 40
1
 40
1
 10
189.576580
 20
173.907460
 30
0.0
 10
197.792420
 20
171.389500
 30
0.0
 10
213.106400
 20
170.426080
 30
0.0
 10
213.106400
 20
172.427180
 30
0.0
  0
SPLINE
  5
1ac
100
AcDbEntity
  8
Calque_1
 62
7
100
AcDbSpline
 70
8
 71
3
 72
8
 73
4
 74
0
 40
0
 40
0
 40
0
 40
0
 40
1
 40
1
 40
1
 40
1
 10
213.106400
 20
172.427180
 30
0.0
 10
213.106400
 20
172.997120
 30
0.0
 10
212.028400
 20
174.833880
 30
0.0
 10
210.710850
 20
176.508860
 30
0.0
  0
SPLINE
  5
1ad
100
AcDbEntity
  8
Calque_1
 62
7
100
AcDbSpline
 70
8
 71
3
 72
8
 73
4
 74
0
 40
0
 40
0
 40
0
 40
0
 40
1
 40
1
 40
1
 40
1
 10
210.710850
 20
176.508860
 30
0.0
 10
206.995680
 20
181.231940
 30
0.0
 10
207.731980
 20
183.848190
 30
0.0
 10
214.391050
 20
189.585310
 30
0.0
  0
LWPOLYLINE
  5
1ae
100
AcDbEntity
  8
Calque_1
 62
7
100
AcDbPolyline
 90
3
 70
0
 10
285.571390
 20
204.648700
 30
0.0
 10
280.059030
 20
194.286560
 30
0.0
 10
286.109190
 20
189.769710
 30
0.0
  0
SPLINE
  5
1af
100
AcDbEntity
  8
Calque_1
 62
7
100
AcDbSpline
 70
8
 71
3
 72
8
 73
4
 74
0
 40
0
 40
0
 40
0
 40
0
 40
1
 40
1
 40
1
 40
1
 10
216.042820
 20
203.168090
 30
0.0
 10
211.413810
 20
211.903250
 30
0.0
 10
198.423520
 20
231.485830
 30
0.0
 10
195.967590
 20
233.431080
 30
0.0
  0
SPLINE
  5
1b0
100
AcDbEntity
  8
Calque_1
 62
7
100
AcDbSpline
 70
8
 71
3
 72
8
 73
4
 74
0
 40
0
 40
0
 40
0
 40
0
 40
1
 40
1
 40
1
 40
1
 10
195.967590
 20
233.431080
 30
0.0
 10
195.182930
 20
234.052580
 30
0.0
 10
189.150950
 20
236.829790
 30
0.0
 10
182.563210
 20
239.602640
 30
0.0
  0
SPLINE
  5
1b1
100
AcDbEntity
  8
Calque_1
 62
7
100
AcDbSpline
 70
8
 71
3
 72
8
 73
4
 74
0
 40
0
 40
0
 40
0
 40
0
 40
1
 40
1
 40
1
 40
1
 10
182.563210
 20
239.602640
 30
0.0
 10
155.490960
 20
250.997670
 30
0.0
 10
133.063600
 20
265.033320
 30
0.0
 10
116.023010
 20
281.245290
 30
0.0
  0
SPLINE
  5
1b2
100
AcDbEntity
  8
Calque_1
 62
7
100
AcDbSpline
 70
8
 71
3
 72
8
 73
4
 74
0
 40
0
 40
0
 40
0
 40
0
 40
1
 40
1
 40
1
 40
1
 10
116.023010
 20
281.245290
 30
0.0
 10
105.463710
 20
291.291130
 30
0.0
 10
101.734020
 20
293.563660
 30
0.0
 10
95.805963
 20
293.563660
 30
0.0
  0
SPLINE
  5
1b3
100
AcDbEntity
  8
Calque_1
 62
7
100
AcDbSpline
 70
8
 71
3
 72
8
 73
4
 74
0
 40
0
 40
0
 40
0
 40
0
 40
1
 40
1
 40
1
 40
1
 10
95.805963
 20
293.563660
 30
0.0
 10
93.255745
 20
293.563660
 30
0.0
 10
91.734549
 20
294.642260
 30
0.0
 10
89.471336
 20
298.055290
 30
0.0
  0
SPLINE
  5
1b4
100
AcDbEntity
  8
Calque_1
 62
7
100
AcDbSpline
 70
8
 71
3
 72
8
 73
4
 74
0
 40
0
 40
0
 40
0
 40
0
 40
1
 40
1
 40
1
 40
1
 10
89.471336
 20
298.055290
 30
0.0
 10
82.327870
 20
308.827930
 30
0.0
 10
70.011224
 20
317.563920
 30
0.0
 10
56.280352
 20
321.597030
 30
0.0
  0
SPLINE
  5
1b5
100
AcDbEntity
  8
Calque_1
 62
7
100
AcDbSpline
 70
8
 71
3
 72
8
 73
4
 74
0
 40
0
 40
0
 40
0
 40
0
 40
1
 40
1
 40
1
 40
1
 10
56.280352
 20
321.597030
 30
0.0
 10
50.186556
 20
323.275910
 30
0.0
 10
38.371216
 20
322.725180
 30
0.0
 10
37.376275
 20
316.864160
 30
0.0
  0
SPLINE
  5
1b6
100
AcDbEntity
  8
Calque_1
 62
7
100
AcDbSpline
 70
8
 71
3
 72
8
 73
4
 74
0
 40
0
 40
0
 40
0
 40
0
 40
1
 40
1
 40
1
 40
1
 10
37.376275
 20
316.864160
 30
0.0
 10
37.285425
 20
315.576090
 30
0.0
 10
36.390713
 20
314.399990
 30
0.0
 10
42.525518
 20
307.950510
 30
0.0
  0
LWPOLYLINE
  5
1b7
100
AcDbEntity
  8
Calque_1
 62
7
100
AcDbPolyline
 90
3
 70
0
 10
214.391050
 20
189.585310
 30
0.0
 10
220.466780
 20
194.819870
 30
0.0
 10
216.042820
 20
203.168090
 30
0.0
  0
SPLINE
  5
1b8
100
AcDbEntity
  8
Calque_1
 62
7
100
AcDbSpline
 70
8
 71
3
 72
8
 73
4
 74
0
 40
0
 40
0
 40
0
 40
0
 40
1
 40
1
 40
1
 40
1
 10
39.314960
 20
323.426380
 30
0.0
 10
50.412578
 20
331.328580
 30
0.0
 10
78.923822
 20
318.944710
 30
0.0
 10
91.537158
 20
300.743650
 30
0.0
  0
SPLINE
  5
1b9
100
AcDbEntity
  8
Calque_1
 62
7
100
AcDbSpline
 70
8
 71
3
 72
8
 73
4
 74
0
 40
0
 40
0
 40
0
 40
0
 40
1
 40
1
 40
1
 40
1
 10
91.537158
 20
300.743650
 30
0.0
 10
94.459919
 20
296.526100
 30
0.0
 10
95.415001
 20
295.959200
 30
0.0
 10
99.597451
 20
295.959200
 30
0.0
  0
SPLINE
  5
1ba
100
AcDbEntity
  8
Calque_1
 62
7
100
AcDbSpline
 70
8
 71
3
 72
8
 73
4
 74
0
 40
0
 40
0
 40
0
 40
0
 40
1
 40
1
 40
1
 40
1
 10
99.597451
 20
295.959200
 30
0.0
 10
103.781950
 20
295.959200
 30
0.0
 10
105.282830
 20
295.066930
 30
0.0
 10
112.310600
 20
288.401250
 30
0.0
  0
SPLINE
  5
1bb
100
AcDbEntity
  8
Calque_1
 62
7
100
AcDbSpline
 70
8
 71
3
 72
8
 73
4
 74
0
 40
0
 40
0
 40
0
 40
0
 40
1
 40
1
 40
1
 40
1
 10
112.310600
 20
288.401250
 30
0.0
 10
133.907610
 20
267.916960
 30
0.0
 10
156.976500
 20
253.244210
 30
0.0
 10
186.156520
 20
241.432280
 30
0.0
  0
SPLINE
  5
1bc
100
AcDbEntity
  8
Calque_1
 62
7
100
AcDbSpline
 70
8
 71
3
 72
8
 73
4
 74
0
 40
0
 40
0
 40
0
 40
0
 40
1
 40
1
 40
1
 40
1
 10
186.156520
 20
241.432280
 30
0.0
 10
190.767950
 20
239.565600
 30
0.0
 10
196.082940
 20
236.652330
 30
0.0
 10
197.967610
 20
234.958360
 30
0.0
  0
SPLINE
  5
1bd
100
AcDbEntity
  8
Calque_1
 62
7
100
AcDbSpline
 70
8
 71
3
 72
8
 73
4
 74
0
 40
0
 40
0
 40
0
 40
0
 40
1
 40
1
 40
1
 40
1
 10
197.967610
 20
234.958360
 30
0.0
 10
205.140470
 20
228.511290
 30
0.0
 10
222.688560
 20
199.741570
 30
0.0
 10
222.688560
 20
194.428880
 30
0.0
  0
SPLINE
  5
1be
100
AcDbEntity
  8
Calque_1
 62
7
100
AcDbSpline
 70
8
 71
3
 72
8
 73
4
 74
0
 40
0
 40
0
 40
0
 40
0
 40
1
 40
1
 40
1
 40
1
 10
222.688560
 20
194.428880
 30
0.0
 10
222.688560
 20
193.216060
 30
0.0
 10
220.026080
 20
190.214890
 30
0.0
 10
216.699710
 20
187.678150
 30
0.0
  0
SPLINE
  5
1bf
100
AcDbEntity
  8
Calque_1
 62
7
100
AcDbSpline
 70
8
 71
3
 72
8
 73
4
 74
0
 40
0
 40
0
 40
0
 40
0
 40
1
 40
1
 40
1
 40
1
 10
216.699710
 20
187.678150
 30
0.0
 10
213.405830
 20
185.166210
 30
0.0
 10
210.722830
 20
182.764720
 30
0.0
 10
210.737470
 20
182.341500
 30
0.0
  0
SPLINE
  5
1c0
100
AcDbEntity
  8
Calque_1
 62
7
100
AcDbSpline
 70
8
 71
3
 72
8
 73
4
 74
0
 40
0
 40
0
 40
0
 40
0
 40
1
 40
1
 40
1
 40
1
 10
210.737470
 20
182.341500
 30
0.0
 10
210.752070
 20
181.918270
 30
0.0
 10
211.818140
 20
180.224520
 30
0.0
 10
213.106400
 20
178.577580
 30
0.0
  0
SPLINE
  5
1c1
100
AcDbEntity
  8
Calque_1
 62
7
100
AcDbSpline
 70
8
 71
3
 72
8
 73
4
 74
0
 40
0
 40
0
 40
0
 40
0
 40
1
 40
1
 40
1
 40
1
 10
213.106400
 20
178.577580
 30
0.0
 10
220.664510
 20
168.915080
 30
0.0
 10
210.997820
 20
165.189150
 30
0.0
 10
191.567690
 20
170.275690
 30
0.0
  0
SPLINE
  5
1c2
100
AcDbEntity
  8
Calque_1
 62
7
100
AcDbSpline
 70
8
 71
3
 72
8
 73
4
 74
0
 40
0
 40
0
 40
0
 40
0
 40
1
 40
1
 40
1
 40
1
 10
191.567690
 20
170.275690
 30
0.0
 10
177.557630
 20
173.943340
 30
0.0
 10
161.856560
 20
182.218570
 30
0.0
 10
149.945050
 20
192.212870
 30
0.0
  0
SPLINE
  5
1c3
100
AcDbEntity
  8
Calque_1
 62
7
100
AcDbSpline
 70
8
 71
3
 72
8
 73
4
 74
0
 40
0
 40
0
 40
0
 40
0
 40
1
 40
1
 40
1
 40
1
 10
149.945050
 20
192.212870
 30
0.0
 10
129.774930
 20
209.136530
 30
0.0
 10
116.297000
 20
222.804330
 30
0.0
 10
109.508010
 20
233.219580
 30
0.0
  0
SPLINE
  5
1c4
100
AcDbEntity
  8
Calque_1
 62
7
100
AcDbSpline
 70
8
 71
3
 72
8
 73
4
 74
0
 40
0
 40
0
 40
0
 40
0
 40
1
 40
1
 40
1
 40
1
 10
109.508010
 20
233.219580
 30
0.0
 10
97.302757
 20
251.944100
 30
0.0
 10
82.887306
 20
263.532860
 30
0.0
 10
68.570319
 20
266.129920
 30
0.0
  0
SPLINE
  5
1c5
100
AcDbEntity
  8
Calque_1
 62
7
100
AcDbSpline
 70
8
 71
3
 72
8
 73
4
 74
0
 40
0
 40
0
 40
0
 40
0
 40
1
 40
1
 40
1
 40
1
 10
68.570319
 20
266.129920
 30
0.0
 10
56.814790
 20
268.262320
 30
0.0
 10
55.185135
 20
270.141290
 30
0.0
 10
50.256691
 20
287.245480
 30
0.0
  0
SPLINE
  5
1c6
100
AcDbEntity
  8
Calque_1
 62
7
100
AcDbSpline
 70
8
 71
3
 72
8
 73
4
 74
0
 40
0
 40
0
 40
0
 40
0
 40
1
 40
1
 40
1
 40
1
 10
50.256691
 20
287.245480
 30
0.0
 10
48.488766
 20
293.381040
 30
0.0
 10
46.434826
 20
296.432010
 30
0.0
 10
42.206805
 20
302.018000
 30
0.0
  0
SPLINE
  5
1c7
100
AcDbEntity
  8
Calque_1
 62
7
100
AcDbSpline
 70
8
 71
3
 72
8
 73
4
 74
0
 40
0
 40
0
 40
0
 40
0
 40
1
 40
1
 40
1
 40
1
 10
42.206805
 20
302.018000
 30
0.0
 10
37.883421
 20
307.729990
 30
0.0
 10
38.612781
 20
307.137420
 30
0.0
 10
36.712970
 20
309.719290
 30
0.0
  0
SPLINE
  5
1c8
100
AcDbEntity
  8
Calque_1
 62
7
100
AcDbSpline
 70
8
 71
3
 72
8
 73
4
 74
0
 40
0
 40
0
 40
0
 40
0
 40
1
 40
1
 40
1
 40
1
 10
36.712970
 20
309.719290
 30
0.0
 10
31.470792
 20
317.328850
 30
0.0
 10
37.100707
 20
321.802100
 30
0.0
 10
39.314960
 20
323.426380
 30
0.0
  0
LWPOLYLINE
  5
1c9
100
AcDbEntity
  8
Calque_1
 62
7
100
AcDbPolyline
 90
1
 70
1
 10
42.525518
 20
307.950510
 30
0.0
  0
SPLINE
  5
1ca
100
AcDbEntity
  8
Calque_1
 62
7
100
AcDbSpline
 70
8
 71
3
 72
8
 73
4
 74
0
 40
0
 40
0
 40
0
 40
0
 40
1
 40
1
 40
1
 40
1
 10
76.398331
 20
402.852473
 30
0.0
 10
104.711270
 20
387.741700
 30
0.0
 10
140.224990
 20
376.675690
 30
0.0
 10
169.697350
 20
381.441740
 30
0.0
  0
SPLINE
  5
1cb
100
AcDbEntity
  8
Calque_1
 62
7
100
AcDbSpline
 70
8
 71
3
 72
8
 73
4
 74
0
 40
0
 40
0
 40
0
 40
0
 40
1
 40
1
 40
1
 40
1
 10
169.697350
 20
381.441740
 30
0.0
 10
179.886420
 20
381.585270
 30
0.0
 10
180.302730
 20
370.784720
 30
0.0
 10
181.352850
 20
364.523250
 30
0.0
  0
SPLINE
  5
1cc
100
AcDbEntity
  8
Calque_1
 62
7
100
AcDbSpline
 70
8
 71
3
 72
8
 73
4
 74
0
 40
0
 40
0
 40
0
 40
0
 40
1
 40
1
 40
1
 40
1
 10
181.352850
 20
364.523250
 30
0.0
 10
187.928550
 20
348.278690
 30
0.0
 10
203.038380
 20
337.959290
 30
0.0
 10
218.188460
 20
331.924940
 30
0.0
  0
SPLINE
  5
1cd
100
AcDbEntity
  8
Calque_1
 62
7
100
AcDbSpline
 70
8
 71
3
 72
8
 73
4
 74
0
 40
0
 40
0
 40
0
 40
0
 40
1
 40
1
 40
1
 40
1
 10
218.188460
 20
331.924940
 30
0.0
 10
221.027970
 20
331.899340
 30
0.0
 10
219.813080
 20
335.652720
 30
0.0
 10
219.614570
 20
338.164360
 30
0.0
  0
SPLINE
  5
1ce
100
AcDbEntity
  8
Calque_1
 62
7
100
AcDbSpline
 70
8
 71
3
 72
8
 73
4
 74
0
 40
0
 40
0
 40
0
 40
0
 40
1
 40
1
 40
1
 40
1
 10
219.614570
 20
338.164360
 30
0.0
 10
218.499820
 20
347.206580
 30
0.0
 10
218.173000
 20
355.261770
 30
0.0
 10
220.253990
 20
364.459030
 30
0.0
  0
SPLINE
  5
1cf
100
AcDbEntity
  8
Calque_1
 62
7
100
AcDbSpline
 70
8
 71
3
 72
8
 73
4
 74
0
 40
0
 40
0
 40
0
 40
0
 40
1
 40
1
 40
1
 40
1
 10
220.253990
 20
364.459030
 30
0.0
 10
226.682510
 20
380.326810
 30
0.0
 10
236.015040
 20
385.799400
 30
0.0
 10
252.002870
 20
387.220760
 30
0.0
  0
SPLINE
  5
1d0
100
AcDbEntity
  8
Calque_1
 62
7
100
AcDbSpline
 70
8
 71
3
 72
8
 73
4
 74
0
 40
0
 40
0
 40
0
 40
0
 40
1
 40
1
 40
1
 40
1
 10
252.002870
 20
387.220760
 30
0.0
 10
256.580930
 20
387.865670
 30
0.0
 10
260.763720
 20
387.582790
 30
0.0
 10
264.723310
 20
386.737010
 30
0.0
  0
SPLINE
  5
1d1
100
AcDbEntity
  8
Calque_1
 62
7
100
AcDbSpline
 70
8
 71
3
 72
8
 73
4
 74
0
 40
0
 40
0
 40
0
 40
0
 40
1
 40
1
 40
1
 40
1
 10
264.723310
 20
386.737010
 30
0.0
 10
269.591250
 20
386.171140
 30
0.0
 10
273.620300
 20
384.667610
 30
0.0
 10
276.685750
 20
382.097180
 30
0.0
  0
SPLINE
  5
1d2
100
AcDbEntity
  8
Calque_1
 62
7
100
AcDbSpline
 70
8
 71
3
 72
8
 73
4
 74
0
 40
0
 40
0
 40
0
 40
0
 40
1
 40
1
 40
1
 40
1
 10
276.685750
 20
382.097180
 30
0.0
 10
279.677180
 20
379.302120
 30
0.0
 10
282.511210
 20
375.912170
 30
0.0
 10
283.323330
 20
372.392660
 30
0.0
  0
SPLINE
  5
1d3
100
AcDbEntity
  8
Calque_1
 62
7
100
AcDbSpline
 70
8
 71
3
 72
8
 73
4
 74
0
 40
0
 40
0
 40
0
 40
0
 40
1
 40
1
 40
1
 40
1
 10
283.323330
 20
372.392660
 30
0.0
 10
285.415360
 20
367.526210
 30
0.0
 10
286.580540
 20
366.696520
 30
0.0
 10
289.492680
 20
365.285610
 30
0.0
  0
SPLINE
  5
1d4
100
AcDbEntity
  8
Calque_1
 62
7
100
AcDbSpline
 70
8
 71
3
 72
8
 73
4
 74
0
 40
0
 40
0
 40
0
 40
0
 40
1
 40
1
 40
1
 40
1
 10
289.492680
 20
365.285610
 30
0.0
 10
291.969180
 20
364.012230
 30
0.0
 10
293.933250
 20
363.439170
 30
0.0
 10
295.600410
 20
362.100700
 30
0.0
  0
SPLINE
  5
1d5
100
AcDbEntity
  8
Calque_1
 62
7
100
AcDbSpline
 70
8
 71
3
 72
8
 73
4
 74
0
 40
0
 40
0
 40
0
 40
0
 40
1
 40
1
 40
1
 40
1
 10
295.600410
 20
362.100700
 30
0.0
 10
302.832550
 20
356.888770
 30
0.0
 10
306.021930
 20
356.135500
 30
0.0
 10
296.282480
 20
350.034300
 30
0.0
  0
SPLINE
  5
1d6
100
AcDbEntity
  8
Calque_1
 62
7
100
AcDbSpline
 70
8
 71
3
 72
8
 73
4
 74
0
 40
0
 40
0
 40
0
 40
0
 40
1
 40
1
 40
1
 40
1
 10
296.282480
 20
350.034300
 30
0.0
 10
290.866870
 20
349.960700
 30
0.0
 10
288.820760
 20
350.173360
 30
0.0
 10
283.677490
 20
345.600780
 30
0.0
  0
SPLINE
  5
1d7
100
AcDbEntity
  8
Calque_1
 62
7
100
AcDbSpline
 70
8
 71
3
 72
8
 73
4
 74
0
 40
0
 40
0
 40
0
 40
0
 40
1
 40
1
 40
1
 40
1
 10
283.677490
 20
345.600780
 30
0.0
 10
282.298670
 20
344.388550
 30
0.0
 10
282.011950
 20
343.197660
 30
0.0
 10
282.228000
 20
340.927740
 30
0.0
  0
SPLINE
  5
1d8
100
AcDbEntity
  8
Calque_1
 62
7
100
AcDbSpline
 70
8
 71
3
 72
8
 73
4
 74
0
 40
0
 40
0
 40
0
 40
0
 40
1
 40
1
 40
1
 40
1
 10
282.228000
 20
340.927740
 30
0.0
 10
282.563030
 20
338.145560
 30
0.0
 10
284.688080
 20
334.817460
 30
0.0
 10
288.733680
 20
335.293670
 30
0.0
  0
SPLINE
  5
1d9
100
AcDbEntity
  8
Calque_1
 62
7
100
AcDbSpline
 70
8
 71
3
 72
8
 73
4
 74
0
 40
0
 40
0
 40
0
 40
0
 40
1
 40
1
 40
1
 40
1
 10
288.733680
 20
335.293670
 30
0.0
 10
303.601180
 20
339.216520
 30
0.0
 10
316.612650
 20
347.038330
 30
0.0
 10
319.051550
 20
362.512950
 30
0.0
  0
SPLINE
  5
1da
100
AcDbEntity
  8
Calque_1
 62
7
100
AcDbSpline
 70
8
 71
3
 72
8
 73
4
 74
0
 40
0
 40
0
 40
0
 40
0
 40
1
 40
1
 40
1
 40
1
 10
319.051550
 20
362.512950
 30
0.0
 10
320.147730
 20
370.807780
 30
0.0
 10
325.339460
 20
375.119310
 30
0.0
 10
332.583560
 20
377.211230
 30
0.0
  0
SPLINE
  5
1db
100
AcDbEntity
  8
Calque_1
 62
7
100
AcDbSpline
 70
8
 71
3
 72
8
 73
4
 74
0
 40
0
 40
0
 40
0
 40
0
 40
1
 40
1
 40
1
 40
1
 10
332.583560
 20
377.211230
 30
0.0
 10
365.921060
 20
376.764100
 30
0.0
 10
400.235270
 20
383.870950
 30
0.0
 10
428.627790
 20
402.096943
 30
0.0
  0
SPLINE
  5
1dc
100
AcDbEntity
  8
Calque_1
 62
7
100
AcDbSpline
 70
8
 71
3
 72
8
 73
4
 74
0
 40
0
 40
0
 40
0
 40
0
 40
1
 40
1
 40
1
 40
1
 10
428.627790
 20
402.096943
 30
0.0
 10
429.885700
 20
402.592253
 30
0.0
 10
434.257230
 20
408.541313
 30
0.0
 10
433.417480
 20
395.547200
 30
0.0
  0
SPLINE
  5
1dd
100
AcDbEntity
  8
Calque_1
 62
7
100
AcDbSpline
 70
8
 71
3
 72
8
 73
4
 74
0
 40
0
 40
0
 40
0
 40
0
 40
1
 40
1
 40
1
 40
1
 10
433.417480
 20
395.547200
 30
0.0
 10
429.407920
 20
345.096020
 30
0.0
 10
404.142900
 20
302.423860
 30
0.0
 10
358.854720
 20
272.485070
 30
0.0
  0
SPLINE
  5
1de
100
AcDbEntity
  8
Calque_1
 62
7
100
AcDbSpline
 70
8
 71
3
 72
8
 73
4
 74
0
 40
0
 40
0
 40
0
 40
0
 40
1
 40
1
 40
1
 40
1
 10
358.854720
 20
272.485070
 30
0.0
 10
325.064380
 20
250.147220
 30
0.0
 10
295.306320
 20
237.221220
 30
0.0
 10
279.701580
 20
219.205320
 30
0.0
  0
SPLINE
  5
1df
100
AcDbEntity
  8
Calque_1
 62
7
100
AcDbSpline
 70
8
 71
3
 72
8
 73
4
 74
0
 40
0
 40
0
 40
0
 40
0
 40
1
 40
1
 40
1
 40
1
 10
279.701580
 20
219.205320
 30
0.0
 10
275.354190
 20
214.180150
 30
0.0
 10
268.470620
 20
205.445250
 30
0.0
 10
268.225870
 20
200.867730
 30
0.0
  0
SPLINE
  5
1e0
100
AcDbEntity
  8
Calque_1
 62
7
100
AcDbSpline
 70
8
 71
3
 72
8
 73
4
 74
0
 40
0
 40
0
 40
0
 40
0
 40
1
 40
1
 40
1
 40
1
 10
268.225870
 20
200.867730
 30
0.0
 10
276.808400
 20
189.644900
 30
0.0
 10
280.740330
 20
180.612540
 30
0.0
 10
280.657420
 20
175.321760
 30
0.0
  0
SPLINE
  5
1e1
100
AcDbEntity
  8
Calque_1
 62
7
100
AcDbSpline
 70
8
 71
3
 72
8
 73
4
 74
0
 40
0
 40
0
 40
0
 40
0
 40
1
 40
1
 40
1
 40
1
 10
280.657420
 20
175.321760
 30
0.0
 10
280.657420
 20
175.321760
 30
0.0
 10
258.760350
 20
150.141800
 30
0.0
 10
250.930150
 20
150.079690
 30
0.0
  0
SPLINE
  5
1e2
100
AcDbEntity
  8
Calque_1
 62
7
100
AcDbSpline
 70
8
 71
3
 72
8
 73
4
 74
0
 40
0
 40
0
 40
0
 40
0
 40
1
 40
1
 40
1
 40
1
 10
250.930150
 20
150.079690
 30
0.0
 10
243.466470
 20
150.020390
 30
0.0
 10
220.980660
 20
175.529090
 30
0.0
 10
220.980660
 20
175.529090
 30
0.0
  0
SPLINE
  5
1e3
100
AcDbEntity
  8
Calque_1
 62
7
100
AcDbSpline
 70
8
 71
3
 72
8
 73
4
 74
0
 40
0
 40
0
 40
0
 40
0
 40
1
 40
1
 40
1
 40
1
 10
220.980660
 20
175.529090
 30
0.0
 10
220.884560
 20
182.152970
 30
0.0
 10
225.933770
 20
191.165850
 30
0.0
 10
234.725560
 20
201.100450
 30
0.0
  0
SPLINE
  5
1e4
100
AcDbEntity
  8
Calque_1
 62
7
100
AcDbSpline
 70
8
 71
3
 72
8
 73
4
 74
0
 40
0
 40
0
 40
0
 40
0
 40
1
 40
1
 40
1
 40
1
 10
234.725560
 20
201.100450
 30
0.0
 10
232.151770
 20
208.924130
 30
0.0
 10
230.419700
 20
212.452490
 30
0.0
 10
225.922100
 20
219.186310
 30
0.0
  0
SPLINE
  5
1e5
100
AcDbEntity
  8
Calque_1
 62
7
100
AcDbSpline
 70
8
 71
3
 72
8
 73
4
 74
0
 40
0
 40
0
 40
0
 40
0
 40
1
 40
1
 40
1
 40
1
 10
225.922100
 20
219.186310
 30
0.0
 10
203.629670
 20
240.397560
 30
0.0
 10
144.340400
 20
266.767440
 30
0.0
 10
129.791780
 20
282.617660
 30
0.0
  0
SPLINE
  5
1e6
100
AcDbEntity
  8
Calque_1
 62
7
100
AcDbSpline
 70
8
 71
3
 72
8
 73
4
 74
0
 40
0
 40
0
 40
0
 40
0
 40
1
 40
1
 40
1
 40
1
 10
129.791780
 20
282.617660
 30
0.0
 10
89.543574
 20
326.466660
 30
0.0
 10
71.007205
 20
358.681580
 30
0.0
 10
70.116744
 20
392.763890
 30
0.0
  0
SPLINE
  5
1e7
100
AcDbEntity
  8
Calque_1
 62
7
100
AcDbSpline
 70
8
 71
3
 72
8
 73
4
 74
0
 40
0
 40
0
 40
0
 40
0
 40
1
 40
1
 40
1
 40
1
 10
70.116744
 20
392.763890
 30
0.0
 10
70.136324
 20
398.548780
 30
0.0
 10
70.066974
 20
405.472963
 30
0.0
 10
76.398331
 20
402.852473
 30
0.0
  0
LWPOLYLINE
  5
1e8
100
AcDbEntity
  8
Calque_1
 62
7
100
AcDbPolyline
 90
1
 70
1
 10
39.314960
 20
323.426380
 30
0.0
  0
SPLINE
  5
1e9
100
AcDbEntity
  8
Calque_1
 62
7
100
AcDbSpline
 70
8
 71
3
 72
8
 73
4
 74
0
 40
0
 40
0
 40
0
 40
0
 40
1
 40
1
 40
1
 40
1
 10
495.417080
 20
249.760880
 30
0.0
 10
495.417080
 20
114.560423
 30
0.0
 10
385.815462
 20
4.958796
 30
0.0
 10
250.615010
 20
4.958790
 30
0.0
  0
SPLINE
  5
1ea
100
AcDbEntity
  8
Calque_1
 62
7
100
AcDbSpline
 70
8
 71
3
 72
8
 73
4
 74
0
 40
0
 40
0
 40
0
 40
0
 40
1
 40
1
 40
1
 40
1
 10
250.615010
 20
4.958790
 30
0.0
 10
185.689461
 20
4.958789
 30
0.0
 10
123.423093
 20
30.750364
 30
0.0
 10
77.513797
 20
76.659661
 30
0.0
  0
SPLINE
  5
1eb
100
AcDbEntity
  8
Calque_1
 62
7
100
AcDbSpline
 70
8
 71
3
 72
8
 73
4
 74
0
 40
0
 40
0
 40
0
 40
0
 40
1
 40
1
 40
1
 40
1
 10
77.513797
 20
76.659661
 30
0.0
 10
31.604501
 20
122.568959
 30
0.0
 10
5.812927
 20
184.835328
 30
0.0
 10
5.812927
 20
249.760880
 30
0.0
  0
SPLINE
  5
1ec
100
AcDbEntity
  8
Calque_1
 62
7
100
AcDbSpline
 70
8
 71
3
 72
8
 73
4
 74
0
 40
0
 40
0
 40
0
 40
0
 40
1
 40
1
 40
1
 40
1
 10
5.812927
 20
249.760880
 30
0.0
 10
5.812927
 20
314.686435
 30
0.0
 10
31.604501
 20
376.952804
 30
0.0
 10
77.513797
 20
422.862102
 30
0.0
  0
SPLINE
  5
1ed
100
AcDbEntity
  8
Calque_1
 62
7
100
AcDbSpline
 70
8
 71
3
 72
8
 73
4
 74
0
 40
0
 40
0
 40
0
 40
0
 40
1
 40
1
 40
1
 40
1
 10
77.513797
 20
422.862102
 30
0.0
 10
123.423093
 20
468.771399
 30
0.0
 10
185.689461
 20
494.562974
 30
0.0
 10
250.615010
 20
494.562973
 30
0.0
  0
SPLINE
  5
1ee
100
AcDbEntity
  8
Calque_1
 62
7
100
AcDbSpline
 70
8
 71
3
 72
8
 73
4
 74
0
 40
0
 40
0
 40
0
 40
0
 40
1
 40
1
 40
1
 40
1
 10
250.615010
 20
494.562973
 30
0.0
 10
385.815462
 20
494.562967
 30
0.0
 10
495.417080
 20
384.961340
 30
0.0
 10
495.417080
 20
249.760883
 30
0.0
  0
LWPOLYLINE
  5
1ef
100
AcDbEntity
  8
Calque_1
 62
7
100
AcDbPolyline
 90
1
 70
1
 10
76.398331
 20
402.852473
 30
0.0
  0
SPLINE
  5
1f0
100
AcDbEntity
  8
Calque_1
 62
7
100
AcDbSpline
 70
8
 71
3
 72
8
 73
4
 74
0
 40
0
 40
0
 40
0
 40
0
 40
1
 40
1
 40
1
 40
1
 10
79.586568
 20
398.102130
 30
0.0
 10
107.829200
 20
384.249730
 30
0.0
 10
143.638670
 20
374.331150
 30
0.0
 10
167.953060
 20
378.263090
 30
0.0
  0
SPLINE
  5
1f1
100
AcDbEntity
  8
Calque_1
 62
7
100
AcDbSpline
 70
8
 71
3
 72
8
 73
4
 74
0
 40
0
 40
0
 40
0
 40
0
 40
1
 40
1
 40
1
 40
1
 10
167.953060
 20
378.263090
 30
0.0
 10
176.358940
 20
378.381490
 30
0.0
 10
177.258880
 20
369.211540
 30
0.0
 10
178.125220
 20
364.045880
 30
0.0
  0
SPLINE
  5
1f2
100
AcDbEntity
  8
Calque_1
 62
7
100
AcDbSpline
 70
8
 71
3
 72
8
 73
4
 74
0
 40
0
 40
0
 40
0
 40
0
 40
1
 40
1
 40
1
 40
1
 10
178.125220
 20
364.045880
 30
0.0
 10
183.550110
 20
350.644290
 30
0.0
 10
204.148660
 20
333.495320
 30
0.0
 10
216.647320
 20
328.517050
 30
0.0
  0
SPLINE
  5
1f3
100
AcDbEntity
  8
Calque_1
 62
7
100
AcDbSpline
 70
8
 71
3
 72
8
 73
4
 74
0
 40
0
 40
0
 40
0
 40
0
 40
1
 40
1
 40
1
 40
1
 10
216.647320
 20
328.517050
 30
0.0
 10
220.209300
 20
327.280110
 30
0.0
 10
223.574280
 20
330.714900
 30
0.0
 10
223.339540
 20
332.780130
 30
0.0
  0
SPLINE
  5
1f4
100
AcDbEntity
  8
Calque_1
 62
7
100
AcDbSpline
 70
8
 71
3
 72
8
 73
4
 74
0
 40
0
 40
0
 40
0
 40
0
 40
1
 40
1
 40
1
 40
1
 10
223.339540
 20
332.780130
 30
0.0
 10
222.490680
 20
340.248260
 30
0.0
 10
220.834220
 20
352.063010
 30
0.0
 10
222.550980
 20
359.650650
 30
0.0
  0
SPLINE
  5
1f5
100
AcDbEntity
  8
Calque_1
 62
7
100
AcDbSpline
 70
8
 71
3
 72
8
 73
4
 74
0
 40
0
 40
0
 40
0
 40
0
 40
1
 40
1
 40
1
 40
1
 10
222.550980
 20
359.650650
 30
0.0
 10
227.854440
 20
372.741410
 30
0.0
 10
231.861210
 20
380.971170
 30
0.0
 10
245.051020
 20
382.143770
 30
0.0
  0
SPLINE
  5
1f6
100
AcDbEntity
  8
Calque_1
 62
7
100
AcDbSpline
 70
8
 71
3
 72
8
 73
4
 74
0
 40
0
 40
0
 40
0
 40
0
 40
1
 40
1
 40
1
 40
1
 10
245.051020
 20
382.143770
 30
0.0
 10
248.827870
 20
382.675820
 30
0.0
 10
257.319670
 20
384.030220
 30
0.0
 10
260.586280
 20
383.332470
 30
0.0
  0
SPLINE
  5
1f7
100
AcDbEntity
  8
Calque_1
 62
7
100
AcDbSpline
 70
8
 71
3
 72
8
 73
4
 74
0
 40
0
 40
0
 40
0
 40
0
 40
1
 40
1
 40
1
 40
1
 10
260.586280
 20
383.332470
 30
0.0
 10
264.602290
 20
382.865640
 30
0.0
 10
274.032600
 20
379.492320
 30
0.0
 10
276.561560
 20
377.371740
 30
0.0
  0
SPLINE
  5
1f8
100
AcDbEntity
  8
Calque_1
 62
7
100
AcDbSpline
 70
8
 71
3
 72
8
 73
4
 74
0
 40
0
 40
0
 40
0
 40
0
 40
1
 40
1
 40
1
 40
1
 10
276.561560
 20
377.371740
 30
0.0
 10
279.029470
 20
375.065840
 30
0.0
 10
281.466640
 20
372.600000
 30
0.0
 10
282.136620
 20
369.696440
 30
0.0
  0
SPLINE
  5
1f9
100
AcDbEntity
  8
Calque_1
 62
7
100
AcDbSpline
 70
8
 71
3
 72
8
 73
4
 74
0
 40
0
 40
0
 40
0
 40
0
 40
1
 40
1
 40
1
 40
1
 10
282.136620
 20
369.696440
 30
0.0
 10
283.862540
 20
365.681680
 30
0.0
 10
285.346440
 20
364.421680
 30
0.0
 10
287.735990
 20
363.231360
 30
0.0
  0
SPLINE
  5
1fa
100
AcDbEntity
  8
Calque_1
 62
7
100
AcDbSpline
 70
8
 71
3
 72
8
 73
4
 74
0
 40
0
 40
0
 40
0
 40
0
 40
1
 40
1
 40
1
 40
1
 10
287.735990
 20
363.231360
 30
0.0
 10
289.792330
 20
362.207020
 30
0.0
 10
292.942900
 20
361.287320
 30
0.0
 10
294.318290
 20
360.183090
 30
0.0
  0
SPLINE
  5
1fb
100
AcDbEntity
  8
Calque_1
 62
7
100
AcDbSpline
 70
8
 71
3
 72
8
 73
4
 74
0
 40
0
 40
0
 40
0
 40
0
 40
1
 40
1
 40
1
 40
1
 10
294.318290
 20
360.183090
 30
0.0
 10
300.284730
 20
355.883300
 30
0.0
 10
301.675480
 20
357.668490
 30
0.0
 10
293.640530
 20
352.635060
 30
0.0
  0
SPLINE
  5
1fc
100
AcDbEntity
  8
Calque_1
 62
7
100
AcDbSpline
 70
8
 71
3
 72
8
 73
4
 74
0
 40
0
 40
0
 40
0
 40
0
 40
1
 40
1
 40
1
 40
1
 10
293.640530
 20
352.635060
 30
0.0
 10
289.172710
 20
352.574260
 30
0.0
 10
287.371860
 20
352.359710
 30
0.0
 10
283.128720
 20
348.587380
 30
0.0
  0
SPLINE
  5
1fd
100
AcDbEntity
  8
Calque_1
 62
7
100
AcDbSpline
 70
8
 71
3
 72
8
 73
4
 74
0
 40
0
 40
0
 40
0
 40
0
 40
1
 40
1
 40
1
 40
1
 10
283.128720
 20
348.587380
 30
0.0
 10
281.991200
 20
347.587310
 30
0.0
 10
279.240710
 20
343.962460
 30
0.0
 10
279.418940
 20
342.089800
 30
0.0
  0
SPLINE
  5
1fe
100
AcDbEntity
  8
Calque_1
 62
7
100
AcDbSpline
 70
8
 71
3
 72
8
 73
4
 74
0
 40
0
 40
0
 40
0
 40
0
 40
1
 40
1
 40
1
 40
1
 10
279.418940
 20
342.089800
 30
0.0
 10
279.695350
 20
339.794540
 30
0.0
 10
281.892160
 20
332.962330
 30
0.0
 10
285.229730
 20
333.355200
 30
0.0
  0
SPLINE
  5
1ff
100
AcDbEntity
  8
Calque_1
 62
7
100
AcDbSpline
 70
8
 71
3
 72
8
 73
4
 74
0
 40
0
 40
0
 40
0
 40
0
 40
1
 40
1
 40
1
 40
1
 10
285.229730
 20
333.355200
 30
0.0
 10
296.988450
 20
332.217780
 30
0.0
 10
316.657120
 20
345.999880
 30
0.0
 10
318.886930
 20
350.948240
 30
0.0
  0
SPLINE
  5
200
100
AcDbEntity
  8
Calque_1
 62
7
100
AcDbSpline
 70
8
 71
3
 72
8
 73
4
 74
0
 40
0
 40
0
 40
0
 40
0
 40
1
 40
1
 40
1
 40
1
 10
318.886930
 20
350.948240
 30
0.0
 10
323.550910
 20
364.770390
 30
0.0
 10
322.806600
 20
368.366980
 30
0.0
 10
332.229020
 20
373.356450
 30
0.0
  0
SPLINE
  5
201
100
AcDbEntity
  8
Calque_1
 62
7
100
AcDbSpline
 70
8
 71
3
 72
8
 73
4
 74
0
 40
0
 40
0
 40
0
 40
0
 40
1
 40
1
 40
1
 40
1
 10
332.229020
 20
373.356450
 30
0.0
 10
359.732120
 20
372.987560
 30
0.0
 10
399.919900
 20
380.380980
 30
0.0
 10
423.343450
 20
395.417240
 30
0.0
  0
SPLINE
  5
202
100
AcDbEntity
  8
Calque_1
 62
7
100
AcDbSpline
 70
8
 71
3
 72
8
 73
4
 74
0
 40
0
 40
0
 40
0
 40
0
 40
1
 40
1
 40
1
 40
1
 10
423.343450
 20
395.417240
 30
0.0
 10
424.381200
 20
395.825860
 30
0.0
 10
432.241180
 20
405.179833
 30
0.0
 10
431.548390
 20
394.459820
 30
0.0
  0
SPLINE
  5
203
100
AcDbEntity
  8
Calque_1
 62
7
100
AcDbSpline
 70
8
 71
3
 72
8
 73
4
 74
0
 40
0
 40
0
 40
0
 40
0
 40
1
 40
1
 40
1
 40
1
 10
431.548390
 20
394.459820
 30
0.0
 10
424.464490
 20
319.421780
 30
0.0
 10
366.700280
 20
279.068750
 30
0.0
 10
337.699570
 20
262.096480
 30
0.0
  0
SPLINE
  5
204
100
AcDbEntity
  8
Calque_1
 62
7
100
AcDbSpline
 70
8
 71
3
 72
8
 73
4
 74
0
 40
0
 40
0
 40
0
 40
0
 40
1
 40
1
 40
1
 40
1
 10
337.699570
 20
262.096480
 30
0.0
 10
306.253720
 20
243.693240
 30
0.0
 10
289.795890
 20
235.455350
 30
0.0
 10
276.922140
 20
220.592420
 30
0.0
  0
SPLINE
  5
205
100
AcDbEntity
  8
Calque_1
 62
7
100
AcDbSpline
 70
8
 71
3
 72
8
 73
4
 74
0
 40
0
 40
0
 40
0
 40
0
 40
1
 40
1
 40
1
 40
1
 10
276.922140
 20
220.592420
 30
0.0
 10
273.335580
 20
216.446710
 30
0.0
 10
266.204720
 20
203.839150
 30
0.0
 10
266.002820
 20
200.062740
 30
0.0
  0
SPLINE
  5
206
100
AcDbEntity
  8
Calque_1
 62
7
100
AcDbSpline
 70
8
 71
3
 72
8
 73
4
 74
0
 40
0
 40
0
 40
0
 40
0
 40
1
 40
1
 40
1
 40
1
 10
266.002820
 20
200.062740
 30
0.0
 10
273.083310
 20
190.804010
 30
0.0
 10
278.487020
 20
180.383890
 30
0.0
 10
278.418620
 20
176.019050
 30
0.0
  0
SPLINE
  5
207
100
AcDbEntity
  8
Calque_1
 62
7
100
AcDbSpline
 70
8
 71
3
 72
8
 73
4
 74
0
 40
0
 40
0
 40
0
 40
0
 40
1
 40
1
 40
1
 40
1
 10
278.418620
 20
176.019050
 30
0.0
 10
278.418620
 20
176.019050
 30
0.0
 10
257.770300
 20
152.140350
 30
0.0
 10
251.310460
 20
152.089110
 30
0.0
  0
SPLINE
  5
208
100
AcDbEntity
  8
Calque_1
 62
7
100
AcDbSpline
 70
8
 71
3
 72
8
 73
4
 74
0
 40
0
 40
0
 40
0
 40
0
 40
1
 40
1
 40
1
 40
1
 10
251.310460
 20
152.089110
 30
0.0
 10
245.152990
 20
152.040110
 30
0.0
 10
223.534690
 20
176.109560
 30
0.0
 10
223.534690
 20
176.109560
 30
0.0
  0
SPLINE
  5
209
100
AcDbEntity
  8
Calque_1
 62
7
100
AcDbSpline
 70
8
 71
3
 72
8
 73
4
 74
0
 40
0
 40
0
 40
0
 40
0
 40
1
 40
1
 40
1
 40
1
 10
223.534690
 20
176.109560
 30
0.0
 10
223.455490
 20
181.574200
 30
0.0
 10
230.258880
 20
192.487410
 30
0.0
 10
237.512020
 20
200.683350
 30
0.0
  0
SPLINE
  5
20a
100
AcDbEntity
  8
Calque_1
 62
7
100
AcDbSpline
 70
8
 71
3
 72
8
 73
4
 74
0
 40
0
 40
0
 40
0
 40
0
 40
1
 40
1
 40
1
 40
1
 10
237.512020
 20
200.683350
 30
0.0
 10
235.388670
 20
207.137810
 30
0.0
 10
234.333580
 20
212.437320
 30
0.0
 10
230.623100
 20
217.992650
 30
0.0
  0
SPLINE
  5
20b
100
AcDbEntity
  8
Calque_1
 62
7
100
AcDbSpline
 70
8
 71
3
 72
8
 73
4
 74
0
 40
0
 40
0
 40
0
 40
0
 40
1
 40
1
 40
1
 40
1
 10
230.623100
 20
217.992650
 30
0.0
 10
213.929180
 20
236.041550
 30
0.0
 10
169.094160
 20
258.829640
 30
0.0
 10
150.657730
 20
272.033210
 30
0.0
  0
SPLINE
  5
20c
100
AcDbEntity
  8
Calque_1
 62
7
100
AcDbSpline
 70
8
 71
3
 72
8
 73
4
 74
0
 40
0
 40
0
 40
0
 40
0
 40
1
 40
1
 40
1
 40
1
 10
150.657730
 20
272.033210
 30
0.0
 10
128.231360
 20
283.393440
 30
0.0
 10
65.221925
 20
367.612680
 30
0.0
 10
74.463156
 20
397.904420
 30
0.0
  0
SPLINE
  5
20d
100
AcDbEntity
  8
Calque_1
 62
7
100
AcDbSpline
 70
8
 71
3
 72
8
 73
4
 74
0
 40
0
 40
0
 40
0
 40
0
 40
1
 40
1
 40
1
 40
1
 10
74.463156
 20
397.904420
 30
0.0
 10
75.100554
 20
398.924390
 30
0.0
 10
76.262004
 20
399.854380
 30
0.0
 10
79.586568
 20
398.102130
 30
0.0
  0
LWPOLYLINE
  5
20e
100
AcDbEntity
  8
Calque_1
 62
7
100
AcDbPolyline
 90
1
 70
1
 10
495.417080
 20
249.760883
 30
0.0
  0
SPLINE
  5
20f
100
AcDbEntity
  8
Calque_1
 62
7
100
AcDbSpline
 70
8
 71
3
 72
8
 73
4
 74
0
 40
0
 40
0
 40
0
 40
0
 40
1
 40
1
 40
1
 40
1
 10
213.870349
 20
68.611318
 30
0.0
 10
219.516878
 20
68.611318
 30
0.0
 10
223.420175
 20
68.128783
 30
0.0
 10
225.523412
 20
67.143615
 30
0.0
  0
SPLINE
  5
210
100
AcDbEntity
  8
Calque_1
 62
7
100
AcDbSpline
 70
8
 71
3
 72
8
 73
4
 74
0
 40
0
 40
0
 40
0
 40
0
 40
1
 40
1
 40
1
 40
1
 10
225.523412
 20
67.143615
 30
0.0
 10
225.712890
 20
67.043078
 30
0.0
 10
225.902368
 20
67.002874
 30
0.0
 10
226.072906
 20
67.002874
 30
0.0
  0
SPLINE
  5
211
100
AcDbEntity
  8
Calque_1
 62
7
100
AcDbSpline
 70
8
 71
3
 72
8
 73
4
 74
0
 40
0
 40
0
 40
0
 40
0
 40
1
 40
1
 40
1
 40
1
 10
226.072906
 20
67.002874
 30
0.0
 10
226.773979
 20
67.002874
 30
0.0
 10
227.209784
 20
67.565828
 30
0.0
 10
227.228734
 20
68.249417
 30
0.0
  0
SPLINE
  5
212
100
AcDbEntity
  8
Calque_1
 62
7
100
AcDbSpline
 70
8
 71
3
 72
8
 73
4
 74
0
 40
0
 40
0
 40
0
 40
0
 40
1
 40
1
 40
1
 40
1
 10
227.228734
 20
68.249417
 30
0.0
 10
227.247664
 20
68.832478
 30
0.0
 10
227.020306
 20
69.274799
 30
0.0
 10
226.527651
 20
69.516067
 30
0.0
  0
SPLINE
  5
213
100
AcDbEntity
  8
Calque_1
 62
7
100
AcDbSpline
 70
8
 71
3
 72
8
 73
4
 74
0
 40
0
 40
0
 40
0
 40
0
 40
1
 40
1
 40
1
 40
1
 10
226.527651
 20
69.516067
 30
0.0
 10
224.443364
 20
70.501245
 30
0.0
 10
221.013771
 20
71.044092
 30
0.0
 10
216.182014
 20
71.204940
 30
0.0
  0
SPLINE
  5
214
100
AcDbEntity
  8
Calque_1
 62
7
100
AcDbSpline
 70
8
 71
3
 72
8
 73
4
 74
0
 40
0
 40
0
 40
0
 40
0
 40
1
 40
1
 40
1
 40
1
 10
216.182014
 20
71.204940
 30
0.0
 10
213.699821
 20
71.285390
 30
0.0
 10
211.369207
 20
71.265304
 30
0.0
 10
209.209130
 20
71.124490
 30
0.0
  0
LWPOLYLINE
  5
215
100
AcDbEntity
  8
Calque_1
 62
7
100
AcDbPolyline
 90
1
 70
1
 10
79.586568
 20
398.102130
 30
0.0
  0
SPLINE
  5
216
100
AcDbEntity
  8
Calque_1
 62
7
100
AcDbSpline
 70
8
 71
3
 72
8
 73
4
 74
0
 40
0
 40
0
 40
0
 40
0
 40
1
 40
1
 40
1
 40
1
 10
207.844875
 20
71.023954
 30
0.0
 10
207.238532
 20
70.983780
 30
0.0
 10
206.689038
 20
70.400677
 30
0.0
 10
206.689038
 20
69.737196
 30
0.0
  0
SPLINE
  5
217
100
AcDbEntity
  8
Calque_1
 62
7
100
AcDbSpline
 70
8
 71
3
 72
8
 73
4
 74
0
 40
0
 40
0
 40
0
 40
0
 40
1
 40
1
 40
1
 40
1
 10
206.689038
 20
69.737196
 30
0.0
 10
206.689038
 20
65.695978
 30
0.0
 10
206.821676
 20
61.976447
 30
0.0
 10
206.821676
 20
58.618817
 30
0.0
  0
SPLINE
  5
218
100
AcDbEntity
  8
Calque_1
 62
7
100
AcDbSpline
 70
8
 71
3
 72
8
 73
4
 74
0
 40
0
 40
0
 40
0
 40
0
 40
1
 40
1
 40
1
 40
1
 10
206.821676
 20
58.618817
 30
0.0
 10
206.821676
 20
54.175493
 30
0.0
 10
206.442720
 20
44.504709
 30
0.0
 10
206.442720
 20
43.760809
 30
0.0
  0
SPLINE
  5
219
100
AcDbEntity
  8
Calque_1
 62
7
100
AcDbSpline
 70
8
 71
3
 72
8
 73
4
 74
0
 40
0
 40
0
 40
0
 40
0
 40
1
 40
1
 40
1
 40
1
 10
206.442720
 20
43.760809
 30
0.0
 10
206.442720
 20
43.016898
 30
0.0
 10
207.049054
 20
42.393632
 30
0.0
 10
207.674337
 20
42.393632
 30
0.0
  0
SPLINE
  5
21a
100
AcDbEntity
  8
Calque_1
 62
7
100
AcDbSpline
 70
8
 71
3
 72
8
 73
4
 74
0
 40
0
 40
0
 40
0
 40
0
 40
1
 40
1
 40
1
 40
1
 10
207.674337
 20
42.393632
 30
0.0
 10
216.617819
 20
42.393632
 30
0.0
 10
222.340137
 20
42.494169
 30
0.0
 10
224.822330
 20
42.735426
 30
0.0
  0
SPLINE
  5
21b
100
AcDbEntity
  8
Calque_1
 62
7
100
AcDbSpline
 70
8
 71
3
 72
8
 73
4
 74
0
 40
0
 40
0
 40
0
 40
0
 40
1
 40
1
 40
1
 40
1
 10
224.822330
 20
42.735426
 30
0.0
 10
225.561302
 20
42.795790
 30
0.0
 10
225.902368
 20
43.398907
 30
0.0
 10
225.902368
 20
44.022184
 30
0.0
  0
SPLINE
  5
21c
100
AcDbEntity
  8
Calque_1
 62
7
100
AcDbSpline
 70
8
 71
3
 72
8
 73
4
 74
0
 40
0
 40
0
 40
0
 40
0
 40
1
 40
1
 40
1
 40
1
 10
225.902368
 20
44.022184
 30
0.0
 10
225.902368
 20
44.685665
 30
0.0
 10
225.485513
 20
45.429565
 30
0.0
 10
224.727591
 20
45.349146
 30
0.0
  0
SPLINE
  5
21d
100
AcDbEntity
  8
Calque_1
 62
7
100
AcDbSpline
 70
8
 71
3
 72
8
 73
4
 74
0
 40
0
 40
0
 40
0
 40
0
 40
1
 40
1
 40
1
 40
1
 10
224.727591
 20
45.349146
 30
0.0
 10
222.472775
 20
45.148093
 30
0.0
 10
217.243112
 20
45.027459
 30
0.0
 10
208.962803
 20
45.007352
 30
0.0
  0
LWPOLYLINE
  5
21e
100
AcDbEntity
  8
Calque_1
 62
7
100
AcDbPolyline
 90
2
 70
0
 10
209.209130
 20
71.124490
 30
0.0
 10
207.844875
 20
71.023954
 30
0.0
  0
SPLINE
  5
21f
100
AcDbEntity
  8
Calque_1
 62
7
100
AcDbSpline
 70
8
 71
3
 72
8
 73
4
 74
0
 40
0
 40
0
 40
0
 40
0
 40
1
 40
1
 40
1
 40
1
 10
209.057552
 20
46.937483
 30
0.0
 10
209.152300
 20
49.048570
 30
0.0
 10
209.228080
 20
51.883460
 30
0.0
 10
209.265979
 20
55.462250
 30
0.0
  0
LWPOLYLINE
  5
220
100
AcDbEntity
  8
Calque_1
 62
7
100
AcDbPolyline
 90
2
 70
0
 10
208.962803
 20
45.007352
 30
0.0
 10
209.057552
 20
46.937483
 30
0.0
  0
SPLINE
  5
221
100
AcDbEntity
  8
Calque_1
 62
7
100
AcDbSpline
 70
8
 71
3
 72
8
 73
4
 74
0
 40
0
 40
0
 40
0
 40
0
 40
1
 40
1
 40
1
 40
1
 10
223.003320
 20
55.361713
 30
0.0
 10
223.799131
 20
55.341627
 30
0.0
 10
224.197047
 20
56.005087
 30
0.0
 10
224.197047
 20
56.668568
 30
0.0
  0
SPLINE
  5
222
100
AcDbEntity
  8
Calque_1
 62
7
100
AcDbSpline
 70
8
 71
3
 72
8
 73
4
 74
0
 40
0
 40
0
 40
0
 40
0
 40
1
 40
1
 40
1
 40
1
 10
224.197047
 20
56.668568
 30
0.0
 10
224.197047
 20
57.311952
 30
0.0
 10
223.799131
 20
57.975433
 30
0.0
 10
223.022260
 20
57.975433
 30
0.0
  0
LWPOLYLINE
  5
223
100
AcDbEntity
  8
Calque_1
 62
7
100
AcDbPolyline
 90
2
 70
0
 10
209.265979
 20
55.462250
 30
0.0
 10
223.003320
 20
55.361713
 30
0.0
  0
SPLINE
  5
224
100
AcDbEntity
  8
Calque_1
 62
7
100
AcDbSpline
 70
8
 71
3
 72
8
 73
4
 74
0
 40
0
 40
0
 40
0
 40
0
 40
1
 40
1
 40
1
 40
1
 10
209.284929
 20
58.075970
 30
0.0
 10
209.284929
 20
61.152117
 30
0.0
 10
209.247068
 20
64.630381
 30
0.0
 10
209.171240
 20
68.490653
 30
0.0
  0
SPLINE
  5
225
100
AcDbEntity
  8
Calque_1
 62
7
100
AcDbSpline
 70
8
 71
3
 72
8
 73
4
 74
0
 40
0
 40
0
 40
0
 40
0
 40
1
 40
1
 40
1
 40
1
 10
209.171240
 20
68.490653
 30
0.0
 10
210.364967
 20
68.571103
 30
0.0
 10
212.278717
 20
68.611287
 30
0.0
 10
213.870349
 20
68.611287
 30
0.0
  0
LWPOLYLINE
  5
226
100
AcDbEntity
  8
Calque_1
 62
7
100
AcDbPolyline
 90
2
 70
0
 10
223.022260
 20
57.975433
 30
0.0
 10
209.284929
 20
58.075970
 30
0.0
  0
SPLINE
  5
227
100
AcDbEntity
  8
Calque_1
 62
7
100
AcDbSpline
 70
8
 71
3
 72
8
 73
4
 74
0
 40
0
 40
0
 40
0
 40
0
 40
1
 40
1
 40
1
 40
1
 10
232.932101
 20
41.750279
 30
0.0
 10
233.595274
 20
41.750279
 30
0.0
 10
234.220567
 20
42.373556
 30
0.0
 10
234.201618
 20
43.097359
 30
0.0
  0
LWPOLYLINE
  5
228
100
AcDbEntity
  8
Calque_1
 62
7
100
AcDbPolyline
 90
1
 70
1
 10
213.870349
 20
68.611287
 30
0.0
  0
SPLINE
  5
229
100
AcDbEntity
  8
Calque_1
 62
7
100
AcDbSpline
 70
8
 71
3
 72
8
 73
4
 74
0
 40
0
 40
0
 40
0
 40
0
 40
1
 40
1
 40
1
 40
1
 10
248.943207
 20
42.192600
 30
0.0
 10
249.189524
 20
41.830698
 30
0.0
 10
249.568490
 20
41.649753
 30
0.0
 10
249.928506
 20
41.649753
 30
0.0
  0
SPLINE
  5
22a
100
AcDbEntity
  8
Calque_1
 62
7
100
AcDbSpline
 70
8
 71
3
 72
8
 73
4
 74
0
 40
0
 40
0
 40
0
 40
0
 40
1
 40
1
 40
1
 40
1
 10
249.928506
 20
41.649753
 30
0.0
 10
250.572739
 20
41.649753
 30
0.0
 10
251.198022
 20
42.152395
 30
0.0
 10
251.179073
 20
42.976725
 30
0.0
  0
LWPOLYLINE
  5
22b
100
AcDbEntity
  8
Calque_1
 62
7
100
AcDbPolyline
 90
3
 70
0
 10
234.201618
 20
43.097359
 30
0.0
 10
233.595274
 20
65.635697
 30
0.0
 10
248.943207
 20
42.192600
 30
0.0
  0
SPLINE
  5
22c
100
AcDbEntity
  8
Calque_1
 62
7
100
AcDbSpline
 70
8
 71
3
 72
8
 73
4
 74
0
 40
0
 40
0
 40
0
 40
0
 40
1
 40
1
 40
1
 40
1
 10
250.364311
 20
70.561557
 30
0.0
 10
250.345381
 20
71.385886
 30
0.0
 10
249.739018
 20
71.787992
 30
0.0
 10
249.132685
 20
71.787992
 30
0.0
  0
SPLINE
  5
22d
100
AcDbEntity
  8
Calque_1
 62
7
100
AcDbSpline
 70
8
 71
3
 72
8
 73
4
 74
0
 40
0
 40
0
 40
0
 40
0
 40
1
 40
1
 40
1
 40
1
 10
249.132685
 20
71.787992
 30
0.0
 10
248.507402
 20
71.787992
 30
0.0
 10
247.863169
 20
71.345671
 30
0.0
 10
247.901058
 20
70.481137
 30
0.0
  0
LWPOLYLINE
  5
22e
100
AcDbEntity
  8
Calque_1
 62
7
100
AcDbPolyline
 90
2
 70
0
 10
251.179073
 20
42.976725
 30
0.0
 10
250.364311
 20
70.561557
 30
0.0
  0
SPLINE
  5
22f
100
AcDbEntity
  8
Calque_1
 62
7
100
AcDbSpline
 70
8
 71
3
 72
8
 73
4
 74
0
 40
0
 40
0
 40
0
 40
0
 40
1
 40
1
 40
1
 40
1
 10
233.254218
 20
70.722405
 30
0.0
 10
233.007891
 20
71.084307
 30
0.0
 10
232.647875
 20
71.265252
 30
0.0
 10
232.268919
 20
71.265252
 30
0.0
  0
SPLINE
  5
230
100
AcDbEntity
  8
Calque_1
 62
7
100
AcDbSpline
 70
8
 71
3
 72
8
 73
4
 74
0
 40
0
 40
0
 40
0
 40
0
 40
1
 40
1
 40
1
 40
1
 10
232.268919
 20
71.265252
 30
0.0
 10
231.624686
 20
71.265252
 30
0.0
 10
230.999393
 20
70.742512
 30
0.0
 10
231.018342
 20
69.938280
 30
0.0
  0
LWPOLYLINE
  5
231
100
AcDbEntity
  8
Calque_1
 62
7
100
AcDbPolyline
 90
3
 70
0
 10
247.901058
 20
70.481137
 30
0.0
 10
248.583191
 20
47.299415
 30
0.0
 10
233.254218
 20
70.722405
 30
0.0
  0
SPLINE
  5
232
100
AcDbEntity
  8
Calque_1
 62
7
100
AcDbSpline
 70
8
 71
3
 72
8
 73
4
 74
0
 40
0
 40
0
 40
0
 40
0
 40
1
 40
1
 40
1
 40
1
 10
231.738374
 20
43.016929
 30
0.0
 10
231.738374
 20
42.333341
 30
0.0
 10
232.325758
 20
41.750279
 30
0.0
 10
232.932101
 20
41.750279
 30
0.0
  0
LWPOLYLINE
  5
233
100
AcDbEntity
  8
Calque_1
 62
7
100
AcDbPolyline
 90
2
 70
0
 10
231.018342
 20
69.938280
 30
0.0
 10
231.738374
 20
43.016929
 30
0.0
  0
SPLINE
  5
234
100
AcDbEntity
  8
Calque_1
 62
7
100
AcDbSpline
 70
8
 71
3
 72
8
 73
4
 74
0
 40
0
 40
0
 40
0
 40
0
 40
1
 40
1
 40
1
 40
1
 10
256.162409
 20
41.629645
 30
0.0
 10
256.787701
 20
41.629645
 30
0.0
 10
257.375085
 20
42.132288
 30
0.0
 10
257.431934
 20
42.815876
 30
0.0
  0
SPLINE
  5
235
100
AcDbEntity
  8
Calque_1
 62
7
100
AcDbSpline
 70
8
 71
3
 72
8
 73
4
 74
0
 40
0
 40
0
 40
0
 40
0
 40
1
 40
1
 40
1
 40
1
 10
257.431934
 20
42.815876
 30
0.0
 10
257.678252
 20
46.253925
 30
0.0
 10
258.170907
 20
49.953349
 30
0.0
 10
258.928828
 20
53.914148
 30
0.0
  0
LWPOLYLINE
  5
236
100
AcDbEntity
  8
Calque_1
 62
7
100
AcDbPolyline
 90
1
 70
1
 10
232.932101
 20
41.750279
 30
0.0
  0
SPLINE
  5
237
100
AcDbEntity
  8
Calque_1
 62
7
100
AcDbSpline
 70
8
 71
3
 72
8
 73
4
 74
0
 40
0
 40
0
 40
0
 40
0
 40
1
 40
1
 40
1
 40
1
 10
272.514580
 20
53.914148
 30
0.0
 10
273.196713
 20
51.079269
 30
0.0
 10
273.821996
 20
47.922692
 30
0.0
 10
274.409390
 20
44.464535
 30
0.0
  0
LWPOLYLINE
  5
238
100
AcDbEntity
  8
Calque_1
 62
7
100
AcDbPolyline
 90
2
 70
0
 10
258.928828
 20
53.914148
 30
0.0
 10
272.514580
 20
53.914148
 30
0.0
  0
SPLINE
  5
239
100
AcDbEntity
  8
Calque_1
 62
7
100
AcDbSpline
 70
8
 71
3
 72
8
 73
4
 74
0
 40
0
 40
0
 40
0
 40
0
 40
1
 40
1
 40
1
 40
1
 10
274.693607
 20
42.715350
 30
0.0
 10
274.826245
 20
41.991547
 30
0.0
 10
275.337840
 20
41.669860
 30
0.0
 10
275.868394
 20
41.669860
 30
0.0
  0
SPLINE
  5
23a
100
AcDbEntity
  8
Calque_1
 62
7
100
AcDbSpline
 70
8
 71
3
 72
8
 73
4
 74
0
 40
0
 40
0
 40
0
 40
0
 40
1
 40
1
 40
1
 40
1
 10
275.868394
 20
41.669860
 30
0.0
 10
276.512627
 20
41.669860
 30
0.0
 10
277.156860
 20
42.132288
 30
0.0
 10
277.156860
 20
42.936510
 30
0.0
  0
SPLINE
  5
23b
100
AcDbEntity
  8
Calque_1
 62
7
100
AcDbSpline
 70
8
 71
3
 72
8
 73
4
 74
0
 40
0
 40
0
 40
0
 40
0
 40
1
 40
1
 40
1
 40
1
 10
277.156860
 20
42.936510
 30
0.0
 10
277.156860
 20
43.016960
 30
0.0
 10
277.156860
 20
43.077251
 30
0.0
 10
277.137929
 20
43.157671
 30
0.0
  0
LWPOLYLINE
  5
23c
100
AcDbEntity
  8
Calque_1
 62
7
100
AcDbPolyline
 90
2
 70
0
 10
274.409390
 20
44.464535
 30
0.0
 10
274.693607
 20
42.715350
 30
0.0
  0
SPLINE
  5
23d
100
AcDbEntity
  8
Calque_1
 62
7
100
AcDbSpline
 70
8
 71
3
 72
8
 73
4
 74
0
 40
0
 40
0
 40
0
 40
0
 40
1
 40
1
 40
1
 40
1
 10
276.834762
 20
44.926963
 30
0.0
 10
275.527347
 20
52.627391
 30
0.0
 10
273.992553
 20
58.840008
 30
0.0
 10
272.249332
 20
63.544717
 30
0.0
  0
SPLINE
  5
23e
100
AcDbEntity
  8
Calque_1
 62
7
100
AcDbSpline
 70
8
 71
3
 72
8
 73
4
 74
0
 40
0
 40
0
 40
0
 40
0
 40
1
 40
1
 40
1
 40
1
 10
272.249332
 20
63.544717
 30
0.0
 10
270.240834
 20
68.933005
 30
0.0
 10
268.080758
 20
71.627154
 30
0.0
 10
265.788043
 20
71.627154
 30
0.0
  0
SPLINE
  5
23f
100
AcDbEntity
  8
Calque_1
 62
7
100
AcDbSpline
 70
8
 71
3
 72
8
 73
4
 74
0
 40
0
 40
0
 40
0
 40
0
 40
1
 40
1
 40
1
 40
1
 10
265.788043
 20
71.627154
 30
0.0
 10
264.973282
 20
71.627154
 30
0.0
 10
264.139561
 20
71.285360
 30
0.0
 10
263.286900
 20
70.601771
 30
0.0
  0
SPLINE
  5
240
100
AcDbEntity
  8
Calque_1
 62
7
100
AcDbSpline
 70
8
 71
3
 72
8
 73
4
 74
0
 40
0
 40
0
 40
0
 40
0
 40
1
 40
1
 40
1
 40
1
 10
263.286900
 20
70.601771
 30
0.0
 10
261.202613
 20
68.933005
 30
0.0
 10
259.402552
 20
65.515063
 30
0.0
 10
257.905649
 20
60.368033
 30
0.0
  0
SPLINE
  5
241
100
AcDbEntity
  8
Calque_1
 62
7
100
AcDbSpline
 70
8
 71
3
 72
8
 73
4
 74
0
 40
0
 40
0
 40
0
 40
0
 40
1
 40
1
 40
1
 40
1
 10
257.905649
 20
60.368033
 30
0.0
 10
256.408755
 20
55.221013
 30
0.0
 10
255.423456
 20
49.410502
 30
0.0
 10
254.968701
 20
42.896295
 30
0.0
  0
SPLINE
  5
242
100
AcDbEntity
  8
Calque_1
 62
7
100
AcDbSpline
 70
8
 71
3
 72
8
 73
4
 74
0
 40
0
 40
0
 40
0
 40
0
 40
1
 40
1
 40
1
 40
1
 10
254.968701
 20
42.896295
 30
0.0
 10
254.930840
 20
42.252922
 30
0.0
 10
255.593994
 20
41.629645
 30
0.0
 10
256.162428
 20
41.629645
 30
0.0
  0
LWPOLYLINE
  5
243
100
AcDbEntity
  8
Calque_1
 62
7
100
AcDbPolyline
 90
2
 70
0
 10
277.137929
 20
43.157671
 30
0.0
 10
276.834762
 20
44.926963
 30
0.0
  0
SPLINE
  5
244
100
AcDbEntity
  8
Calque_1
 62
7
100
AcDbSpline
 70
8
 71
3
 72
8
 73
4
 74
0
 40
0
 40
0
 40
0
 40
0
 40
1
 40
1
 40
1
 40
1
 10
259.478322
 20
56.527868
 30
0.0
 10
260.501521
 20
60.971202
 30
0.0
 10
261.771037
 20
64.429359
 30
0.0
 10
263.305831
 20
66.862133
 30
0.0
  0
SPLINE
  5
245
100
AcDbEntity
  8
Calque_1
 62
7
100
AcDbSpline
 70
8
 71
3
 72
8
 73
4
 74
0
 40
0
 40
0
 40
0
 40
0
 40
1
 40
1
 40
1
 40
1
 10
263.305831
 20
66.862133
 30
0.0
 10
264.101652
 20
68.128783
 30
0.0
 10
264.897463
 20
68.792264
 30
0.0
 10
265.693285
 20
68.892800
 30
0.0
  0
SPLINE
  5
246
100
AcDbEntity
  8
Calque_1
 62
7
100
AcDbSpline
 70
8
 71
3
 72
8
 73
4
 74
0
 40
0
 40
0
 40
0
 40
0
 40
1
 40
1
 40
1
 40
1
 10
265.693285
 20
68.892800
 30
0.0
 10
265.844873
 20
68.912887
 30
0.0
 10
266.072241
 20
68.832437
 30
0.0
 10
266.413307
 20
68.631425
 30
0.0
  0
SPLINE
  5
247
100
AcDbEntity
  8
Calque_1
 62
7
100
AcDbSpline
 70
8
 71
3
 72
8
 73
4
 74
0
 40
0
 40
0
 40
0
 40
0
 40
1
 40
1
 40
1
 40
1
 10
266.413307
 20
68.631425
 30
0.0
 10
266.754373
 20
68.430372
 30
0.0
 10
267.095439
 20
68.108675
 30
0.0
 10
267.474405
 20
67.585936
 30
0.0
  0
SPLINE
  5
248
100
AcDbEntity
  8
Calque_1
 62
7
100
AcDbSpline
 70
8
 71
3
 72
8
 73
4
 74
0
 40
0
 40
0
 40
0
 40
0
 40
1
 40
1
 40
1
 40
1
 10
267.474405
 20
67.585936
 30
0.0
 10
268.971299
 20
65.575375
 30
0.0
 10
270.449243
 20
61.875951
 30
0.0
 10
271.870347
 20
56.527868
 30
0.0
  0
LWPOLYLINE
  5
249
100
AcDbEntity
  8
Calque_1
 62
7
100
AcDbPolyline
 90
1
 70
1
 10
256.162428
 20
41.629645
 30
0.0
  0
SPLINE
  5
24a
100
AcDbEntity
  8
Calque_1
 62
7
100
AcDbSpline
 70
8
 71
3
 72
8
 73
4
 74
0
 40
0
 40
0
 40
0
 40
0
 40
1
 40
1
 40
1
 40
1
 10
294.456431
 20
42.031762
 30
0.0
 10
296.768096
 20
42.031762
 30
0.0
 10
299.326088
 20
42.393663
 30
0.0
 10
302.149347
 20
43.097359
 30
0.0
  0
SPLINE
  5
24b
100
AcDbEntity
  8
Calque_1
 62
7
100
AcDbSpline
 70
8
 71
3
 72
8
 73
4
 74
0
 40
0
 40
0
 40
0
 40
0
 40
1
 40
1
 40
1
 40
1
 10
302.149347
 20
43.097359
 30
0.0
 10
302.793580
 20
43.258197
 30
0.0
 10
303.077797
 20
43.780947
 30
0.0
 10
303.077797
 20
44.303687
 30
0.0
  0
SPLINE
  5
24c
100
AcDbEntity
  8
Calque_1
 62
7
100
AcDbSpline
 70
8
 71
3
 72
8
 73
4
 74
0
 40
0
 40
0
 40
0
 40
0
 40
1
 40
1
 40
1
 40
1
 10
303.077797
 20
44.303687
 30
0.0
 10
303.077797
 20
44.987275
 30
0.0
 10
302.623042
 20
45.670864
 30
0.0
 10
301.884070
 20
45.670864
 30
0.0
  0
SPLINE
  5
24d
100
AcDbEntity
  8
Calque_1
 62
7
100
AcDbSpline
 70
8
 71
3
 72
8
 73
4
 74
0
 40
0
 40
0
 40
0
 40
0
 40
1
 40
1
 40
1
 40
1
 10
301.884070
 20
45.670864
 30
0.0
 10
301.789321
 20
45.670864
 30
0.0
 10
301.694592
 20
45.650777
 30
0.0
 10
301.580903
 20
45.630690
 30
0.0
  0
SPLINE
  5
24e
100
AcDbEntity
  8
Calque_1
 62
7
100
AcDbSpline
 70
8
 71
3
 72
8
 73
4
 74
0
 40
0
 40
0
 40
0
 40
0
 40
1
 40
1
 40
1
 40
1
 10
301.580903
 20
45.630690
 30
0.0
 10
298.947122
 20
44.967199
 30
0.0
 10
296.597568
 20
44.645512
 30
0.0
 10
294.494331
 20
44.645512
 30
0.0
  0
SPLINE
  5
24f
100
AcDbEntity
  8
Calque_1
 62
7
100
AcDbSpline
 70
8
 71
3
 72
8
 73
4
 74
0
 40
0
 40
0
 40
0
 40
0
 40
1
 40
1
 40
1
 40
1
 10
294.494331
 20
44.645512
 30
0.0
 10
288.165680
 20
44.645512
 30
0.0
 10
283.390772
 20
47.802089
 30
0.0
 10
283.390772
 20
54.376607
 30
0.0
  0
SPLINE
  5
250
100
AcDbEntity
  8
Calque_1
 62
7
100
AcDbSpline
 70
8
 71
3
 72
8
 73
4
 74
0
 40
0
 40
0
 40
0
 40
0
 40
1
 40
1
 40
1
 40
1
 10
283.390772
 20
54.376607
 30
0.0
 10
283.390772
 20
59.805110
 30
0.0
 10
286.877214
 20
64.369078
 30
0.0
 10
290.363656
 20
66.540477
 30
0.0
  0
SPLINE
  5
251
100
AcDbEntity
  8
Calque_1
 62
7
100
AcDbSpline
 70
8
 71
3
 72
8
 73
4
 74
0
 40
0
 40
0
 40
0
 40
0
 40
1
 40
1
 40
1
 40
1
 10
290.363656
 20
66.540477
 30
0.0
 10
292.675320
 20
67.967975
 30
0.0
 10
295.214353
 20
68.711875
 30
0.0
 10
297.961823
 20
68.711875
 30
0.0
  0
SPLINE
  5
252
100
AcDbEntity
  8
Calque_1
 62
7
100
AcDbSpline
 70
8
 71
3
 72
8
 73
4
 74
0
 40
0
 40
0
 40
0
 40
0
 40
1
 40
1
 40
1
 40
1
 10
297.961823
 20
68.711875
 30
0.0
 10
299.079761
 20
68.711875
 30
0.0
 10
300.216638
 20
68.591242
 30
0.0
 10
301.391425
 20
68.349974
 30
0.0
  0
SPLINE
  5
253
100
AcDbEntity
  8
Calque_1
 62
7
100
AcDbSpline
 70
8
 71
3
 72
8
 73
4
 74
0
 40
0
 40
0
 40
0
 40
0
 40
1
 40
1
 40
1
 40
1
 10
301.391425
 20
68.349974
 30
0.0
 10
301.486174
 20
68.329887
 30
0.0
 10
301.580903
 20
68.329887
 30
0.0
 10
301.656693
 20
68.329887
 30
0.0
  0
SPLINE
  5
254
100
AcDbEntity
  8
Calque_1
 62
7
100
AcDbSpline
 70
8
 71
3
 72
8
 73
4
 74
0
 40
0
 40
0
 40
0
 40
0
 40
1
 40
1
 40
1
 40
1
 10
301.656693
 20
68.329887
 30
0.0
 10
302.376725
 20
68.329887
 30
0.0
 10
302.793580
 20
68.993378
 30
0.0
 10
302.793580
 20
69.656859
 30
0.0
  0
SPLINE
  5
255
100
AcDbEntity
  8
Calque_1
 62
7
100
AcDbSpline
 70
8
 71
3
 72
8
 73
4
 74
0
 40
0
 40
0
 40
0
 40
0
 40
1
 40
1
 40
1
 40
1
 10
302.793580
 20
69.656859
 30
0.0
 10
302.793580
 20
70.219814
 30
0.0
 10
302.509353
 20
70.782768
 30
0.0
 10
301.846171
 20
70.903402
 30
0.0
  0
SPLINE
  5
256
100
AcDbEntity
  8
Calque_1
 62
7
100
AcDbSpline
 70
8
 71
3
 72
8
 73
4
 74
0
 40
0
 40
0
 40
0
 40
0
 40
1
 40
1
 40
1
 40
1
 10
301.846171
 20
70.903402
 30
0.0
 10
300.500865
 20
71.164777
 30
0.0
 10
299.174500
 20
71.305518
 30
0.0
 10
297.904983
 20
71.305518
 30
0.0
  0
SPLINE
  5
257
100
AcDbEntity
  8
Calque_1
 62
7
100
AcDbSpline
 70
8
 71
3
 72
8
 73
4
 74
0
 40
0
 40
0
 40
0
 40
0
 40
1
 40
1
 40
1
 40
1
 10
297.904983
 20
71.305518
 30
0.0
 10
294.740658
 20
71.305518
 30
0.0
 10
291.822650
 20
70.461082
 30
0.0
 10
289.132029
 20
68.792315
 30
0.0
  0
SPLINE
  5
258
100
AcDbEntity
  8
Calque_1
 62
7
100
AcDbSpline
 70
8
 71
3
 72
8
 73
4
 74
0
 40
0
 40
0
 40
0
 40
0
 40
1
 40
1
 40
1
 40
1
 10
289.132029
 20
68.792315
 30
0.0
 10
284.982404
 20
66.198703
 30
0.0
 10
280.946468
 20
60.870727
 30
0.0
 10
280.946468
 20
54.316316
 30
0.0
  0
SPLINE
  5
259
100
AcDbEntity
  8
Calque_1
 62
7
100
AcDbSpline
 70
8
 71
3
 72
8
 73
4
 74
0
 40
0
 40
0
 40
0
 40
0
 40
1
 40
1
 40
1
 40
1
 10
280.946468
 20
54.316316
 30
0.0
 10
280.946468
 20
46.354503
 30
0.0
 10
286.744575
 20
42.031813
 30
0.0
 10
294.456431
 20
42.031813
 30
0.0
  0
LWPOLYLINE
  5
25a
100
AcDbEntity
  8
Calque_1
 62
7
100
AcDbPolyline
 90
2
 70
0
 10
271.870347
 20
56.527868
 30
0.0
 10
259.478322
 20
56.527868
 30
0.0
  0
SPLINE
  5
25b
100
AcDbEntity
  8
Calque_1
 62
7
100
AcDbSpline
 70
8
 71
3
 72
8
 73
4
 74
0
 40
0
 40
0
 40
0
 40
0
 40
1
 40
1
 40
1
 40
1
 10
87.983449
 20
101.775916
 30
0.0
 10
90.598279
 20
102.926673
 30
0.0
 10
93.667860
 20
105.389305
 30
0.0
 10
93.667860
 20
109.025706
 30
0.0
  0
SPLINE
  5
25c
100
AcDbEntity
  8
Calque_1
 62
7
100
AcDbSpline
 70
8
 71
3
 72
8
 73
4
 74
0
 40
0
 40
0
 40
0
 40
0
 40
1
 40
1
 40
1
 40
1
 10
93.667860
 20
109.025706
 30
0.0
 10
93.667860
 20
109.785203
 30
0.0
 10
93.535224
 20
110.590735
 30
0.0
 10
93.232061
 20
111.465315
 30
0.0
  0
SPLINE
  5
25d
100
AcDbEntity
  8
Calque_1
 62
7
100
AcDbSpline
 70
8
 71
3
 72
8
 73
4
 74
0
 40
0
 40
0
 40
0
 40
0
 40
1
 40
1
 40
1
 40
1
 10
93.232061
 20
111.465315
 30
0.0
 10
91.602525
 20
116.022330
 30
0.0
 10
86.372865
 20
118.254808
 30
0.0
 10
80.783191
 20
118.254808
 30
0.0
  0
SPLINE
  5
25e
100
AcDbEntity
  8
Calque_1
 62
7
100
AcDbSpline
 70
8
 71
3
 72
8
 73
4
 74
0
 40
0
 40
0
 40
0
 40
0
 40
1
 40
1
 40
1
 40
1
 10
80.783191
 20
118.254808
 30
0.0
 10
79.949477
 20
118.254808
 30
0.0
 10
79.115763
 20
118.208740
 30
0.0
 10
78.282050
 20
118.116714
 30
0.0
  0
SPLINE
  5
25f
100
AcDbEntity
  8
Calque_1
 62
7
100
AcDbSpline
 70
8
 71
3
 72
8
 73
4
 74
0
 40
0
 40
0
 40
0
 40
0
 40
1
 40
1
 40
1
 40
1
 10
78.282050
 20
118.116714
 30
0.0
 10
77.694661
 20
118.047612
 30
0.0
 10
77.164116
 20
117.403241
 30
0.0
 10
77.164116
 20
116.620721
 30
0.0
  0
LWPOLYLINE
  5
260
100
AcDbEntity
  8
Calque_1
 62
7
100
AcDbPolyline
 90
1
 70
1
 10
294.456431
 20
42.031813
 30
0.0
  0
SPLINE
  5
261
100
AcDbEntity
  8
Calque_1
 62
7
100
AcDbSpline
 70
8
 71
3
 72
8
 73
4
 74
0
 40
0
 40
0
 40
0
 40
0
 40
1
 40
1
 40
1
 40
1
 10
77.277804
 20
86.424769
 30
0.0
 10
77.296749
 20
85.734308
 30
0.0
 10
77.751504
 20
85.135918
 30
0.0
 10
78.263102
 20
84.997823
 30
0.0
  0
SPLINE
  5
262
100
AcDbEntity
  8
Calque_1
 62
7
100
AcDbSpline
 70
8
 71
3
 72
8
 73
4
 74
0
 40
0
 40
0
 40
0
 40
0
 40
1
 40
1
 40
1
 40
1
 10
78.263102
 20
84.997823
 30
0.0
 10
80.309491
 20
84.491492
 30
0.0
 10
82.242191
 20
84.238326
 30
0.0
 10
84.061203
 20
84.238326
 30
0.0
  0
SPLINE
  5
263
100
AcDbEntity
  8
Calque_1
 62
7
100
AcDbSpline
 70
8
 71
3
 72
8
 73
4
 74
0
 40
0
 40
0
 40
0
 40
0
 40
1
 40
1
 40
1
 40
1
 10
84.061203
 20
84.238326
 30
0.0
 10
87.945552
 20
84.238326
 30
0.0
 10
90.920398
 20
85.297024
 30
0.0
 10
92.985733
 20
87.414420
 30
0.0
  0
SPLINE
  5
264
100
AcDbEntity
  8
Calque_1
 62
7
100
AcDbSpline
 70
8
 71
3
 72
8
 73
4
 74
0
 40
0
 40
0
 40
0
 40
0
 40
1
 40
1
 40
1
 40
1
 10
92.985733
 20
87.414420
 30
0.0
 10
94.520523
 20
88.956437
 30
0.0
 10
95.259496
 20
90.774643
 30
0.0
 10
95.259496
 20
92.869027
 30
0.0
  0
SPLINE
  5
265
100
AcDbEntity
  8
Calque_1
 62
7
100
AcDbSpline
 70
8
 71
3
 72
8
 73
4
 74
0
 40
0
 40
0
 40
0
 40
0
 40
1
 40
1
 40
1
 40
1
 10
95.259496
 20
92.869027
 30
0.0
 10
95.259496
 20
97.495090
 30
0.0
 10
91.488834
 20
100.464053
 30
0.0
 10
87.983449
 20
101.775916
 30
0.0
  0
LWPOLYLINE
  5
266
100
AcDbEntity
  8
Calque_1
 62
7
100
AcDbPolyline
 90
2
 70
0
 10
77.164116
 20
116.620721
 30
0.0
 10
77.277804
 20
86.424769
 30
0.0
  0
LWPOLYLINE
  5
267
100
AcDbEntity
  8
Calque_1
 62
7
100
AcDbPolyline
 90
1
 70
1
 10
87.983449
 20
101.775916
 30
0.0
  0
SPLINE
  5
268
100
AcDbEntity
  8
Calque_1
 62
7
100
AcDbSpline
 70
8
 71
3
 72
8
 73
4
 74
0
 40
0
 40
0
 40
0
 40
0
 40
1
 40
1
 40
1
 40
1
 10
79.627359
 20
115.262833
 30
0.0
 10
80.063165
 20
115.285867
 30
0.0
 10
80.498969
 20
115.308901
 30
0.0
 10
80.915826
 20
115.308901
 30
0.0
  0
SPLINE
  5
269
100
AcDbEntity
  8
Calque_1
 62
7
100
AcDbSpline
 70
8
 71
3
 72
8
 73
4
 74
0
 40
0
 40
0
 40
0
 40
0
 40
1
 40
1
 40
1
 40
1
 10
80.915826
 20
115.308901
 30
0.0
 10
85.065448
 20
115.308901
 30
0.0
 10
89.764563
 20
113.651813
 30
0.0
 10
90.977233
 20
110.291590
 30
0.0
  0
SPLINE
  5
26a
100
AcDbEntity
  8
Calque_1
 62
7
100
AcDbSpline
 70
8
 71
3
 72
8
 73
4
 74
0
 40
0
 40
0
 40
0
 40
0
 40
1
 40
1
 40
1
 40
1
 10
90.977233
 20
110.291590
 30
0.0
 10
91.128824
 20
109.900329
 30
0.0
 10
91.185669
 20
109.509069
 30
0.0
 10
91.185669
 20
109.140821
 30
0.0
  0
SPLINE
  5
26b
100
AcDbEntity
  8
Calque_1
 62
7
100
AcDbSpline
 70
8
 71
3
 72
8
 73
4
 74
0
 40
0
 40
0
 40
0
 40
0
 40
1
 40
1
 40
1
 40
1
 10
91.185669
 20
109.140821
 30
0.0
 10
91.185669
 20
108.404336
 30
0.0
 10
90.939342
 20
107.713887
 30
0.0
 10
90.446692
 20
107.023426
 30
0.0
  0
SPLINE
  5
26c
100
AcDbEntity
  8
Calque_1
 62
7
100
AcDbSpline
 70
8
 71
3
 72
8
 73
4
 74
0
 40
0
 40
0
 40
0
 40
0
 40
1
 40
1
 40
1
 40
1
 10
90.446692
 20
107.023426
 30
0.0
 10
89.120329
 20
105.205231
 30
0.0
 10
86.562343
 20
103.985415
 30
0.0
 10
82.753787
 20
103.364013
 30
0.0
  0
SPLINE
  5
26d
100
AcDbEntity
  8
Calque_1
 62
7
100
AcDbSpline
 70
8
 71
3
 72
8
 73
4
 74
0
 40
0
 40
0
 40
0
 40
0
 40
1
 40
1
 40
1
 40
1
 10
82.753787
 20
103.364013
 30
0.0
 10
81.957969
 20
103.225918
 30
0.0
 10
81.294787
 20
103.156871
 30
0.0
 10
80.745294
 20
103.110836
 30
0.0
  0
SPLINE
  5
26e
100
AcDbEntity
  8
Calque_1
 62
7
100
AcDbSpline
 70
8
 71
3
 72
8
 73
4
 74
0
 40
0
 40
0
 40
0
 40
0
 40
1
 40
1
 40
1
 40
1
 10
80.745294
 20
103.110836
 30
0.0
 10
80.195801
 20
103.064768
 30
0.0
 10
79.854736
 20
102.972753
 30
0.0
 10
79.684203
 20
102.857670
 30
0.0
  0
LWPOLYLINE
  5
26f
100
AcDbEntity
  8
Calque_1
 62
7
100
AcDbPolyline
 90
2
 70
0
 10
79.684205
 20
102.857626
 30
0.0
 10
79.627359
 20
115.262833
 30
0.0
  0
SPLINE
  5
270
100
AcDbEntity
  8
Calque_1
 62
7
100
AcDbSpline
 70
8
 71
3
 72
8
 73
4
 74
0
 40
0
 40
0
 40
0
 40
0
 40
1
 40
1
 40
1
 40
1
 10
80.138958
 20
100.072793
 30
0.0
 10
84.781229
 20
99.980766
 30
0.0
 10
88.248721
 20
98.968060
 30
0.0
 10
90.579330
 20
97.011770
 30
0.0
  0
SPLINE
  5
271
100
AcDbEntity
  8
Calque_1
 62
7
100
AcDbSpline
 70
8
 71
3
 72
8
 73
4
 74
0
 40
0
 40
0
 40
0
 40
0
 40
1
 40
1
 40
1
 40
1
 10
90.579330
 20
97.011770
 30
0.0
 10
91.962534
 20
95.861002
 30
0.0
 10
92.815197
 20
94.365020
 30
0.0
 10
92.815197
 20
92.846015
 30
0.0
  0
SPLINE
  5
272
100
AcDbEntity
  8
Calque_1
 62
7
100
AcDbSpline
 70
8
 71
3
 72
8
 73
4
 74
0
 40
0
 40
0
 40
0
 40
0
 40
1
 40
1
 40
1
 40
1
 10
92.815197
 20
92.846015
 30
0.0
 10
92.815197
 20
91.787317
 30
0.0
 10
92.379397
 20
90.705596
 30
0.0
 10
91.413044
 20
89.715945
 30
0.0
  0
SPLINE
  5
273
100
AcDbEntity
  8
Calque_1
 62
7
100
AcDbSpline
 70
8
 71
3
 72
8
 73
4
 74
0
 40
0
 40
0
 40
0
 40
0
 40
1
 40
1
 40
1
 40
1
 10
91.413044
 20
89.715945
 30
0.0
 10
89.802460
 20
88.081869
 30
0.0
 10
87.301319
 20
87.230302
 30
0.0
 10
84.061203
 20
87.230302
 30
0.0
  0
SPLINE
  5
274
100
AcDbEntity
  8
Calque_1
 62
7
100
AcDbSpline
 70
8
 71
3
 72
8
 73
4
 74
0
 40
0
 40
0
 40
0
 40
0
 40
1
 40
1
 40
1
 40
1
 10
84.061203
 20
87.230302
 30
0.0
 10
82.715892
 20
87.230302
 30
0.0
 10
81.275841
 20
87.368396
 30
0.0
 10
79.741049
 20
87.690609
 30
0.0
  0
LWPOLYLINE
  5
275
100
AcDbEntity
  8
Calque_1
 62
7
100
AcDbPolyline
 90
1
 70
1
 10
79.684203
 20
102.857670
 30
0.0
  0
SPLINE
  5
276
100
AcDbEntity
  8
Calque_1
 62
7
100
AcDbSpline
 70
8
 71
3
 72
8
 73
4
 74
0
 40
0
 40
0
 40
0
 40
0
 40
1
 40
1
 40
1
 40
1
 10
79.684204
 20
100.279923
 30
0.0
 10
79.797893
 20
100.210931
 30
0.0
 10
79.949477
 20
100.141840
 30
0.0
 10
80.138957
 20
100.072793
 30
0.0
  0
LWPOLYLINE
  5
277
100
AcDbEntity
  8
Calque_1
 62
7
100
AcDbPolyline
 90
2
 70
0
 10
79.741049
 20
87.690609
 30
0.0
 10
79.684204
 20
100.279923
 30
0.0
  0
SPLINE
  5
278
100
AcDbEntity
  8
Calque_1
 62
7
100
AcDbSpline
 70
8
 71
3
 72
8
 73
4
 74
0
 40
0
 40
0
 40
0
 40
0
 40
1
 40
1
 40
1
 40
1
 10
109.716859
 20
87.575526
 30
0.0
 10
107.840996
 20
87.575526
 30
0.0
 10
106.306207
 20
88.127893
 30
0.0
 10
105.169325
 20
89.186591
 30
0.0
  0
SPLINE
  5
279
100
AcDbEntity
  8
Calque_1
 62
7
100
AcDbSpline
 70
8
 71
3
 72
8
 73
4
 74
0
 40
0
 40
0
 40
0
 40
0
 40
1
 40
1
 40
1
 40
1
 10
105.169325
 20
89.186591
 30
0.0
 10
103.937699
 20
90.337359
 30
0.0
 10
102.971354
 20
93.007121
 30
0.0
 10
102.289218
 20
97.172877
 30
0.0
  0
SPLINE
  5
27a
100
AcDbEntity
  8
Calque_1
 62
7
100
AcDbSpline
 70
8
 71
3
 72
8
 73
4
 74
0
 40
0
 40
0
 40
0
 40
0
 40
1
 40
1
 40
1
 40
1
 10
102.289218
 20
97.172877
 30
0.0
 10
101.758673
 20
100.395005
 30
0.0
 10
101.512355
 20
105.044080
 30
0.0
 10
101.512355
 20
111.074055
 30
0.0
  0
SPLINE
  5
27b
100
AcDbEntity
  8
Calque_1
 62
7
100
AcDbSpline
 70
8
 71
3
 72
8
 73
4
 74
0
 40
0
 40
0
 40
0
 40
0
 40
1
 40
1
 40
1
 40
1
 10
101.512355
 20
111.074055
 30
0.0
 10
101.512355
 20
112.823213
 30
0.0
 10
101.531319
 20
114.710467
 30
0.0
 10
101.569155
 20
116.689768
 30
0.0
  0
SPLINE
  5
27c
100
AcDbEntity
  8
Calque_1
 62
7
100
AcDbSpline
 70
8
 71
3
 72
8
 73
4
 74
0
 40
0
 40
0
 40
0
 40
0
 40
1
 40
1
 40
1
 40
1
 10
101.569155
 20
116.689768
 30
0.0
 10
101.569155
 20
117.518323
 30
0.0
 10
101.019665
 20
118.231785
 30
0.0
 10
100.375429
 20
118.231785
 30
0.0
  0
SPLINE
  5
27d
100
AcDbEntity
  8
Calque_1
 62
7
100
AcDbSpline
 70
8
 71
3
 72
8
 73
4
 74
0
 40
0
 40
0
 40
0
 40
0
 40
1
 40
1
 40
1
 40
1
 10
100.375429
 20
118.231785
 30
0.0
 10
99.731202
 20
118.231785
 30
0.0
 10
99.124866
 20
117.564347
 30
0.0
 10
99.105911
 20
116.781827
 30
0.0
  0
SPLINE
  5
27e
100
AcDbEntity
  8
Calque_1
 62
7
100
AcDbSpline
 70
8
 71
3
 72
8
 73
4
 74
0
 40
0
 40
0
 40
0
 40
0
 40
1
 40
1
 40
1
 40
1
 10
99.105911
 20
116.781827
 30
0.0
 10
99.067984
 20
114.894585
 30
0.0
 10
99.049021
 20
113.099402
 30
0.0
 10
99.049021
 20
111.396267
 30
0.0
  0
SPLINE
  5
27f
100
AcDbEntity
  8
Calque_1
 62
7
100
AcDbSpline
 70
8
 71
3
 72
8
 73
4
 74
0
 40
0
 40
0
 40
0
 40
0
 40
1
 40
1
 40
1
 40
1
 10
99.049021
 20
111.396267
 30
0.0
 10
99.049021
 20
104.998045
 30
0.0
 10
99.333248
 20
100.049770
 30
0.0
 10
99.882738
 20
96.574475
 30
0.0
  0
SPLINE
  5
280
100
AcDbEntity
  8
Calque_1
 62
7
100
AcDbSpline
 70
8
 71
3
 72
8
 73
4
 74
0
 40
0
 40
0
 40
0
 40
0
 40
1
 40
1
 40
1
 40
1
 10
99.882738
 20
96.574475
 30
0.0
 10
101.019619
 20
89.577851
 30
0.0
 10
103.084954
 20
84.537527
 30
0.0
 10
109.754668
 20
84.537527
 30
0.0
  0
SPLINE
  5
281
100
AcDbEntity
  8
Calque_1
 62
7
100
AcDbSpline
 70
8
 71
3
 72
8
 73
4
 74
0
 40
0
 40
0
 40
0
 40
0
 40
1
 40
1
 40
1
 40
1
 10
109.754668
 20
84.537527
 30
0.0
 10
112.369503
 20
84.537527
 30
0.0
 10
114.775901
 20
85.504166
 30
0.0
 10
116.443327
 20
87.184266
 30
0.0
  0
SPLINE
  5
282
100
AcDbEntity
  8
Calque_1
 62
7
100
AcDbSpline
 70
8
 71
3
 72
8
 73
4
 74
0
 40
0
 40
0
 40
0
 40
0
 40
1
 40
1
 40
1
 40
1
 10
116.443327
 20
87.184266
 30
0.0
 10
119.626598
 20
90.360371
 30
0.0
 10
121.218233
 20
96.045132
 30
0.0
 10
121.218233
 20
104.169501
 30
0.0
  0
SPLINE
  5
283
100
AcDbEntity
  8
Calque_1
 62
7
100
AcDbSpline
 70
8
 71
3
 72
8
 73
4
 74
0
 40
0
 40
0
 40
0
 40
0
 40
1
 40
1
 40
1
 40
1
 10
121.218233
 20
104.169501
 30
0.0
 10
121.218233
 20
108.036055
 30
0.0
 10
120.877170
 20
112.431953
 30
0.0
 10
120.157143
 20
117.380229
 30
0.0
  0
SPLINE
  5
284
100
AcDbEntity
  8
Calque_1
 62
7
100
AcDbSpline
 70
8
 71
3
 72
8
 73
4
 74
0
 40
0
 40
0
 40
0
 40
0
 40
1
 40
1
 40
1
 40
1
 10
120.157143
 20
117.380229
 30
0.0
 10
120.043452
 20
118.208773
 30
0.0
 10
119.512907
 20
118.577021
 30
0.0
 10
119.001317
 20
118.577021
 30
0.0
  0
SPLINE
  5
285
100
AcDbEntity
  8
Calque_1
 62
7
100
AcDbSpline
 70
8
 71
3
 72
8
 73
4
 74
0
 40
0
 40
0
 40
0
 40
0
 40
1
 40
1
 40
1
 40
1
 10
119.001317
 20
118.577021
 30
0.0
 10
118.357081
 20
118.577021
 30
0.0
 10
117.712845
 20
118.047667
 30
0.0
 10
117.712845
 20
117.127063
 30
0.0
  0
SPLINE
  5
286
100
AcDbEntity
  8
Calque_1
 62
7
100
AcDbSpline
 70
8
 71
3
 72
8
 73
4
 74
0
 40
0
 40
0
 40
0
 40
0
 40
1
 40
1
 40
1
 40
1
 10
117.712845
 20
117.127063
 30
0.0
 10
117.712845
 20
117.035037
 30
0.0
 10
117.712845
 20
116.942934
 30
0.0
 10
117.731808
 20
116.850874
 30
0.0
  0
SPLINE
  5
287
100
AcDbEntity
  8
Calque_1
 62
7
100
AcDbSpline
 70
8
 71
3
 72
8
 73
4
 74
0
 40
0
 40
0
 40
0
 40
0
 40
1
 40
1
 40
1
 40
1
 10
117.731808
 20
116.850874
 30
0.0
 10
118.413935
 20
112.063716
 30
0.0
 10
118.773944
 20
107.897961
 30
0.0
 10
118.773944
 20
104.353619
 30
0.0
  0
SPLINE
  5
288
100
AcDbEntity
  8
Calque_1
 62
7
100
AcDbSpline
 70
8
 71
3
 72
8
 73
4
 74
0
 40
0
 40
0
 40
0
 40
0
 40
1
 40
1
 40
1
 40
1
 10
118.773944
 20
104.353619
 30
0.0
 10
118.773944
 20
95.101505
 30
0.0
 10
116.727554
 20
87.575526
 30
0.0
 10
109.716786
 20
87.575526
 30
0.0
  0
LWPOLYLINE
  5
289
100
AcDbEntity
  8
Calque_1
 62
7
100
AcDbPolyline
 90
1
 70
1
 10
80.138957
 20
100.072793
 30
0.0
  0
SPLINE
  5
28a
100
AcDbEntity
  8
Calque_1
 62
7
100
AcDbSpline
 70
8
 71
3
 72
8
 73
4
 74
0
 40
0
 40
0
 40
0
 40
0
 40
1
 40
1
 40
1
 40
1
 10
126.429030
 20
84.146267
 30
0.0
 10
127.054311
 20
84.146267
 30
0.0
 10
127.660647
 20
84.767670
 30
0.0
 10
127.698547
 20
85.550190
 30
0.0
  0
SPLINE
  5
28b
100
AcDbEntity
  8
Calque_1
 62
7
100
AcDbSpline
 70
8
 71
3
 72
8
 73
4
 74
0
 40
0
 40
0
 40
0
 40
0
 40
1
 40
1
 40
1
 40
1
 10
127.698547
 20
85.550190
 30
0.0
 10
127.755438
 20
87.069195
 30
0.0
 10
127.793283
 20
89.347697
 30
0.0
 10
127.793283
 20
92.385708
 30
0.0
  0
SPLINE
  5
28c
100
AcDbEntity
  8
Calque_1
 62
7
100
AcDbSpline
 70
8
 71
3
 72
8
 73
4
 74
0
 40
0
 40
0
 40
0
 40
0
 40
1
 40
1
 40
1
 40
1
 10
127.793283
 20
92.385708
 30
0.0
 10
127.793283
 20
93.789641
 30
0.0
 10
127.793283
 20
95.354671
 30
0.0
 10
127.774320
 20
97.080806
 30
0.0
  0
SPLINE
  5
28d
100
AcDbEntity
  8
Calque_1
 62
7
100
AcDbSpline
 70
8
 71
3
 72
8
 73
4
 74
0
 40
0
 40
0
 40
0
 40
0
 40
1
 40
1
 40
1
 40
1
 10
127.774320
 20
97.080806
 30
0.0
 10
127.831211
 20
97.034738
 30
0.0
 10
127.869065
 20
96.988780
 30
0.0
 10
127.906956
 20
96.965735
 30
0.0
  0
LWPOLYLINE
  5
28e
100
AcDbEntity
  8
Calque_1
 62
7
100
AcDbPolyline
 90
1
 70
1
 10
109.716786
 20
87.575526
 30
0.0
  0
SPLINE
  5
28f
100
AcDbEntity
  8
Calque_1
 62
7
100
AcDbSpline
 70
8
 71
3
 72
8
 73
4
 74
0
 40
0
 40
0
 40
0
 40
0
 40
1
 40
1
 40
1
 40
1
 10
145.358108
 20
84.399433
 30
0.0
 10
146.286562
 20
83.731995
 30
0.0
 10
147.177116
 20
84.767670
 30
0.0
 10
147.177116
 20
85.711296
 30
0.0
  0
SPLINE
  5
290
100
AcDbEntity
  8
Calque_1
 62
7
100
AcDbSpline
 70
8
 71
3
 72
8
 73
4
 74
0
 40
0
 40
0
 40
0
 40
0
 40
1
 40
1
 40
1
 40
1
 10
147.177116
 20
85.711296
 30
0.0
 10
147.177116
 20
86.194616
 30
0.0
 10
147.006589
 20
86.700947
 30
0.0
 10
146.608680
 20
86.977136
 30
0.0
  0
LWPOLYLINE
  5
291
100
AcDbEntity
  8
Calque_1
 62
7
100
AcDbPolyline
 90
2
 70
0
 10
127.906956
 20
96.965735
 30
0.0
 10
145.358108
 20
84.399433
 30
0.0
  0
SPLINE
  5
292
100
AcDbEntity
  8
Calque_1
 62
7
100
AcDbSpline
 70
8
 71
3
 72
8
 73
4
 74
0
 40
0
 40
0
 40
0
 40
0
 40
1
 40
1
 40
1
 40
1
 10
132.947135
 20
96.827641
 30
0.0
 10
133.894543
 20
96.896743
 30
0.0
 10
134.709306
 20
97.011770
 30
0.0
 10
135.429333
 20
97.149854
 30
0.0
  0
SPLINE
  5
293
100
AcDbEntity
  8
Calque_1
 62
7
100
AcDbSpline
 70
8
 71
3
 72
8
 73
4
 74
0
 40
0
 40
0
 40
0
 40
0
 40
1
 40
1
 40
1
 40
1
 10
135.429333
 20
97.149854
 30
0.0
 10
141.587447
 20
98.392681
 30
0.0
 10
144.675972
 20
101.983047
 30
0.0
 10
144.675972
 20
107.920973
 30
0.0
  0
SPLINE
  5
294
100
AcDbEntity
  8
Calque_1
 62
7
100
AcDbSpline
 70
8
 71
3
 72
8
 73
4
 74
0
 40
0
 40
0
 40
0
 40
0
 40
1
 40
1
 40
1
 40
1
 10
144.675972
 20
107.920973
 30
0.0
 10
144.675972
 20
112.754166
 30
0.0
 10
142.970655
 20
115.953283
 30
0.0
 10
139.654748
 20
117.518323
 30
0.0
  0
SPLINE
  5
295
100
AcDbEntity
  8
Calque_1
 62
7
100
AcDbSpline
 70
8
 71
3
 72
8
 73
4
 74
0
 40
0
 40
0
 40
0
 40
0
 40
1
 40
1
 40
1
 40
1
 10
139.654748
 20
117.518323
 30
0.0
 10
137.968368
 20
118.323855
 30
0.0
 10
135.732496
 20
118.715104
 30
0.0
 10
132.947135
 20
118.715104
 30
0.0
  0
SPLINE
  5
296
100
AcDbEntity
  8
Calque_1
 62
7
100
AcDbSpline
 70
8
 71
3
 72
8
 73
4
 74
0
 40
0
 40
0
 40
0
 40
0
 40
1
 40
1
 40
1
 40
1
 10
132.947135
 20
118.715104
 30
0.0
 10
130.938645
 20
118.715104
 30
0.0
 10
128.645928
 20
118.507974
 30
0.0
 10
126.068994
 20
118.093702
 30
0.0
  0
SPLINE
  5
297
100
AcDbEntity
  8
Calque_1
 62
7
100
AcDbSpline
 70
8
 71
3
 72
8
 73
4
 74
0
 40
0
 40
0
 40
0
 40
0
 40
1
 40
1
 40
1
 40
1
 10
126.068994
 20
118.093702
 30
0.0
 10
125.519503
 20
118.001676
 30
0.0
 10
124.988958
 20
117.334194
 30
0.0
 10
125.007903
 20
116.574697
 30
0.0
  0
LWPOLYLINE
  5
298
100
AcDbEntity
  8
Calque_1
 62
7
100
AcDbPolyline
 90
2
 70
0
 10
146.608680
 20
86.977136
 30
0.0
 10
132.947135
 20
96.827641
 30
0.0
  0
SPLINE
  5
299
100
AcDbEntity
  8
Calque_1
 62
7
100
AcDbSpline
 70
8
 71
3
 72
8
 73
4
 74
0
 40
0
 40
0
 40
0
 40
0
 40
1
 40
1
 40
1
 40
1
 10
125.140540
 20
109.486013
 30
0.0
 10
125.273176
 20
102.420342
 30
0.0
 10
125.330021
 20
96.781617
 30
0.0
 10
125.330021
 20
92.592849
 30
0.0
  0
SPLINE
  5
29a
100
AcDbEntity
  8
Calque_1
 62
7
100
AcDbSpline
 70
8
 71
3
 72
8
 73
4
 74
0
 40
0
 40
0
 40
0
 40
0
 40
1
 40
1
 40
1
 40
1
 10
125.330021
 20
92.592849
 30
0.0
 10
125.330021
 20
89.508804
 30
0.0
 10
125.292094
 20
87.207289
 30
0.0
 10
125.235285
 20
85.711296
 30
0.0
  0
SPLINE
  5
29b
100
AcDbEntity
  8
Calque_1
 62
7
100
AcDbSpline
 70
8
 71
3
 72
8
 73
4
 74
0
 40
0
 40
0
 40
0
 40
0
 40
1
 40
1
 40
1
 40
1
 10
125.235285
 20
85.711296
 30
0.0
 10
125.197358
 20
84.882752
 30
0.0
 10
125.784776
 20
84.146267
 30
0.0
 10
126.429012
 20
84.146267
 30
0.0
  0
LWPOLYLINE
  5
29c
100
AcDbEntity
  8
Calque_1
 62
7
100
AcDbPolyline
 90
2
 70
0
 10
125.007903
 20
116.574697
 30
0.0
 10
125.140540
 20
109.486013
 30
0.0
  0
SPLINE
  5
29d
100
AcDbEntity
  8
Calque_1
 62
7
100
AcDbSpline
 70
8
 71
3
 72
8
 73
4
 74
0
 40
0
 40
0
 40
0
 40
0
 40
1
 40
1
 40
1
 40
1
 10
127.755392
 20
99.428367
 30
0.0
 10
127.717465
 20
102.374307
 30
0.0
 10
127.679629
 20
105.734530
 30
0.0
 10
127.603811
 20
109.532037
 30
0.0
  0
LWPOLYLINE
  5
29e
100
AcDbEntity
  8
Calque_1
 62
7
100
AcDbPolyline
 90
1
 70
1
 10
126.429012
 20
84.146267
 30
0.0
  0
SPLINE
  5
29f
100
AcDbEntity
  8
Calque_1
 62
7
100
AcDbSpline
 70
8
 71
3
 72
8
 73
4
 74
0
 40
0
 40
0
 40
0
 40
0
 40
1
 40
1
 40
1
 40
1
 10
127.490120
 20
115.308857
 30
0.0
 10
129.498610
 20
115.608058
 30
0.0
 10
131.317627
 20
115.769164
 30
0.0
 10
132.909262
 20
115.769164
 30
0.0
  0
SPLINE
  5
2a0
100
AcDbEntity
  8
Calque_1
 62
7
100
AcDbSpline
 70
8
 71
3
 72
8
 73
4
 74
0
 40
0
 40
0
 40
0
 40
0
 40
1
 40
1
 40
1
 40
1
 10
132.909262
 20
115.769164
 30
0.0
 10
137.267314
 20
115.769164
 30
0.0
 10
140.071621
 20
114.618407
 30
0.0
 10
141.341138
 20
112.316882
 30
0.0
  0
SPLINE
  5
2a1
100
AcDbEntity
  8
Calque_1
 62
7
100
AcDbSpline
 70
8
 71
3
 72
8
 73
4
 74
0
 40
0
 40
0
 40
0
 40
0
 40
1
 40
1
 40
1
 40
1
 10
141.341138
 20
112.316882
 30
0.0
 10
141.909583
 20
111.258184
 30
0.0
 10
142.212747
 20
109.785203
 30
0.0
 10
142.212747
 20
107.943996
 30
0.0
  0
SPLINE
  5
2a2
100
AcDbEntity
  8
Calque_1
 62
7
100
AcDbSpline
 70
8
 71
3
 72
8
 73
4
 74
0
 40
0
 40
0
 40
0
 40
0
 40
1
 40
1
 40
1
 40
1
 10
142.212747
 20
107.943996
 30
0.0
 10
142.212747
 20
105.297246
 30
0.0
 10
141.341138
 20
103.271898
 30
0.0
 10
139.635812
 20
101.937023
 30
0.0
  0
SPLINE
  5
2a3
100
AcDbEntity
  8
Calque_1
 62
7
100
AcDbSpline
 70
8
 71
3
 72
8
 73
4
 74
0
 40
0
 40
0
 40
0
 40
0
 40
1
 40
1
 40
1
 40
1
 10
139.635812
 20
101.937023
 30
0.0
 10
137.778904
 20
100.464053
 30
0.0
 10
134.538788
 20
99.727557
 30
0.0
 10
129.953364
 20
99.727557
 30
0.0
  0
SPLINE
  5
2a4
100
AcDbEntity
  8
Calque_1
 62
7
100
AcDbSpline
 70
8
 71
3
 72
8
 73
4
 74
0
 40
0
 40
0
 40
0
 40
0
 40
1
 40
1
 40
1
 40
1
 10
129.953364
 20
99.727557
 30
0.0
 10
129.498610
 20
99.727557
 30
0.0
 10
129.024910
 20
99.727557
 30
0.0
 10
128.551210
 20
99.750591
 30
0.0
  0
SPLINE
  5
2a5
100
AcDbEntity
  8
Calque_1
 62
7
100
AcDbSpline
 70
8
 71
3
 72
8
 73
4
 74
0
 40
0
 40
0
 40
0
 40
0
 40
1
 40
1
 40
1
 40
1
 10
128.551210
 20
99.750591
 30
0.0
 10
128.248038
 20
99.750591
 30
0.0
 10
128.001720
 20
99.658565
 30
0.0
 10
127.755392
 20
99.428378
 30
0.0
  0
LWPOLYLINE
  5
2a6
100
AcDbEntity
  8
Calque_1
 62
7
100
AcDbPolyline
 90
2
 70
0
 10
127.603811
 20
109.532037
 30
0.0
 10
127.490120
 20
115.308857
 30
0.0
  0
SPLINE
  5
2a7
100
AcDbEntity
  8
Calque_1
 62
7
100
AcDbSpline
 70
8
 71
3
 72
8
 73
4
 74
0
 40
0
 40
0
 40
0
 40
0
 40
1
 40
1
 40
1
 40
1
 10
158.432272
 20
115.009656
 30
0.0
 10
164.078787
 20
115.009656
 30
0.0
 10
167.982084
 20
114.457301
 30
0.0
 10
170.085319
 20
113.329556
 30
0.0
  0
SPLINE
  5
2a8
100
AcDbEntity
  8
Calque_1
 62
7
100
AcDbSpline
 70
8
 71
3
 72
8
 73
4
 74
0
 40
0
 40
0
 40
0
 40
0
 40
1
 40
1
 40
1
 40
1
 10
170.085319
 20
113.329556
 30
0.0
 10
170.274801
 20
113.214473
 30
0.0
 10
170.464283
 20
113.168449
 30
0.0
 10
170.634810
 20
113.168449
 30
0.0
  0
SPLINE
  5
2a9
100
AcDbEntity
  8
Calque_1
 62
7
100
AcDbSpline
 70
8
 71
3
 72
8
 73
4
 74
0
 40
0
 40
0
 40
0
 40
0
 40
1
 40
1
 40
1
 40
1
 10
170.634810
 20
113.168449
 30
0.0
 10
171.335891
 20
113.168449
 30
0.0
 10
171.771691
 20
113.812875
 30
0.0
 10
171.790645
 20
114.595384
 30
0.0
  0
SPLINE
  5
2aa
100
AcDbEntity
  8
Calque_1
 62
7
100
AcDbSpline
 70
8
 71
3
 72
8
 73
4
 74
0
 40
0
 40
0
 40
0
 40
0
 40
1
 40
1
 40
1
 40
1
 10
171.790645
 20
114.595384
 30
0.0
 10
171.809609
 20
115.262833
 30
0.0
 10
171.582209
 20
115.769164
 30
0.0
 10
171.089564
 20
116.045342
 30
0.0
  0
SPLINE
  5
2ab
100
AcDbEntity
  8
Calque_1
 62
7
100
AcDbSpline
 70
8
 71
3
 72
8
 73
4
 74
0
 40
0
 40
0
 40
0
 40
0
 40
1
 40
1
 40
1
 40
1
 10
171.089564
 20
116.045342
 30
0.0
 10
169.005284
 20
117.173087
 30
0.0
 10
165.575686
 20
117.794501
 30
0.0
 10
160.743935
 20
117.978619
 30
0.0
  0
SPLINE
  5
2ac
100
AcDbEntity
  8
Calque_1
 62
7
100
AcDbSpline
 70
8
 71
3
 72
8
 73
4
 74
0
 40
0
 40
0
 40
0
 40
0
 40
1
 40
1
 40
1
 40
1
 10
160.743935
 20
117.978619
 30
0.0
 10
158.261736
 20
118.070646
 30
0.0
 10
155.931129
 20
118.047722
 30
0.0
 10
153.771048
 20
117.886593
 30
0.0
  0
LWPOLYLINE
  5
2ad
100
AcDbEntity
  8
Calque_1
 62
7
100
AcDbPolyline
 90
1
 70
1
 10
127.755392
 20
99.428378
 30
0.0
  0
SPLINE
  5
2ae
100
AcDbEntity
  8
Calque_1
 62
7
100
AcDbSpline
 70
8
 71
3
 72
8
 73
4
 74
0
 40
0
 40
0
 40
0
 40
0
 40
1
 40
1
 40
1
 40
1
 10
152.406795
 20
117.771522
 30
0.0
 10
151.800459
 20
117.725454
 30
0.0
 10
151.250959
 20
117.058049
 30
0.0
 10
151.250959
 20
116.298541
 30
0.0
  0
SPLINE
  5
2af
100
AcDbEntity
  8
Calque_1
 62
7
100
AcDbSpline
 70
8
 71
3
 72
8
 73
4
 74
0
 40
0
 40
0
 40
0
 40
0
 40
1
 40
1
 40
1
 40
1
 10
151.250959
 20
116.298541
 30
0.0
 10
151.250959
 20
111.672489
 30
0.0
 10
151.383595
 20
107.414675
 30
0.0
 10
151.383595
 20
103.571132
 30
0.0
  0
SPLINE
  5
2b0
100
AcDbEntity
  8
Calque_1
 62
7
100
AcDbSpline
 70
8
 71
3
 72
8
 73
4
 74
0
 40
0
 40
0
 40
0
 40
0
 40
1
 40
1
 40
1
 40
1
 10
151.383595
 20
103.571132
 30
0.0
 10
151.383595
 20
98.484773
 30
0.0
 10
151.004641
 20
87.414453
 30
0.0
 10
151.004641
 20
86.562897
 30
0.0
  0
SPLINE
  5
2b1
100
AcDbEntity
  8
Calque_1
 62
7
100
AcDbSpline
 70
8
 71
3
 72
8
 73
4
 74
0
 40
0
 40
0
 40
0
 40
0
 40
1
 40
1
 40
1
 40
1
 10
151.004641
 20
86.562897
 30
0.0
 10
151.004641
 20
85.711329
 30
0.0
 10
151.610977
 20
84.997856
 30
0.0
 10
152.236258
 20
84.997856
 30
0.0
  0
SPLINE
  5
2b2
100
AcDbEntity
  8
Calque_1
 62
7
100
AcDbSpline
 70
8
 71
3
 72
8
 73
4
 74
0
 40
0
 40
0
 40
0
 40
0
 40
1
 40
1
 40
1
 40
1
 10
152.236258
 20
84.997856
 30
0.0
 10
161.179734
 20
84.997856
 30
0.0
 10
166.902049
 20
85.112939
 30
0.0
 10
169.384238
 20
85.389117
 30
0.0
  0
SPLINE
  5
2b3
100
AcDbEntity
  8
Calque_1
 62
7
100
AcDbSpline
 70
8
 71
3
 72
8
 73
4
 74
0
 40
0
 40
0
 40
0
 40
0
 40
1
 40
1
 40
1
 40
1
 10
169.384238
 20
85.389117
 30
0.0
 10
170.123210
 20
85.458219
 30
0.0
 10
170.464283
 20
86.148625
 30
0.0
 10
170.464283
 20
86.862087
 30
0.0
  0
SPLINE
  5
2b4
100
AcDbEntity
  8
Calque_1
 62
7
100
AcDbSpline
 70
8
 71
3
 72
8
 73
4
 74
0
 40
0
 40
0
 40
0
 40
0
 40
1
 40
1
 40
1
 40
1
 10
170.464283
 20
86.862087
 30
0.0
 10
170.464283
 20
87.621595
 30
0.0
 10
170.047419
 20
88.473151
 30
0.0
 10
169.289502
 20
88.381092
 30
0.0
  0
SPLINE
  5
2b5
100
AcDbEntity
  8
Calque_1
 62
7
100
AcDbSpline
 70
8
 71
3
 72
8
 73
4
 74
0
 40
0
 40
0
 40
0
 40
0
 40
1
 40
1
 40
1
 40
1
 10
169.289502
 20
88.381092
 30
0.0
 10
167.034685
 20
88.150938
 30
0.0
 10
161.805025
 20
88.012855
 30
0.0
 10
153.524730
 20
87.989832
 30
0.0
  0
LWPOLYLINE
  5
2b6
100
AcDbEntity
  8
Calque_1
 62
7
100
AcDbPolyline
 90
2
 70
0
 10
153.771048
 20
117.886593
 30
0.0
 10
152.406795
 20
117.771522
 30
0.0
  0
SPLINE
  5
2b7
100
AcDbEntity
  8
Calque_1
 62
7
100
AcDbSpline
 70
8
 71
3
 72
8
 73
4
 74
0
 40
0
 40
0
 40
0
 40
0
 40
1
 40
1
 40
1
 40
1
 10
153.619466
 20
90.199298
 30
0.0
 10
153.714212
 20
92.615894
 30
0.0
 10
153.790003
 20
95.861035
 30
0.0
 10
153.827894
 20
99.957743
 30
0.0
  0
LWPOLYLINE
  5
2b8
100
AcDbEntity
  8
Calque_1
 62
7
100
AcDbPolyline
 90
2
 70
0
 10
153.524730
 20
87.989832
 30
0.0
 10
153.619466
 20
90.199298
 30
0.0
  0
SPLINE
  5
2b9
100
AcDbEntity
  8
Calque_1
 62
7
100
AcDbSpline
 70
8
 71
3
 72
8
 73
4
 74
0
 40
0
 40
0
 40
0
 40
0
 40
1
 40
1
 40
1
 40
1
 10
167.565230
 20
99.842672
 30
0.0
 10
168.361048
 20
99.819638
 30
0.0
 10
168.758957
 20
100.579157
 30
0.0
 10
168.758957
 20
101.338654
 30
0.0
  0
SPLINE
  5
2ba
100
AcDbEntity
  8
Calque_1
 62
7
100
AcDbSpline
 70
8
 71
3
 72
8
 73
4
 74
0
 40
0
 40
0
 40
0
 40
0
 40
1
 40
1
 40
1
 40
1
 10
168.758957
 20
101.338654
 30
0.0
 10
168.758957
 20
102.075150
 30
0.0
 10
168.361048
 20
102.834647
 30
0.0
 10
167.584176
 20
102.834647
 30
0.0
  0
LWPOLYLINE
  5
2bb
100
AcDbEntity
  8
Calque_1
 62
7
100
AcDbPolyline
 90
2
 70
0
 10
153.827894
 20
99.957743
 30
0.0
 10
167.565230
 20
99.842672
 30
0.0
  0
SPLINE
  5
2bc
100
AcDbEntity
  8
Calque_1
 62
7
100
AcDbSpline
 70
8
 71
3
 72
8
 73
4
 74
0
 40
0
 40
0
 40
0
 40
0
 40
1
 40
1
 40
1
 40
1
 10
153.846848
 20
102.949718
 30
0.0
 10
153.846848
 20
106.471048
 30
0.0
 10
153.808921
 20
110.452685
 30
0.0
 10
153.733157
 20
114.871606
 30
0.0
  0
SPLINE
  5
2bd
100
AcDbEntity
  8
Calque_1
 62
7
100
AcDbSpline
 70
8
 71
3
 72
8
 73
4
 74
0
 40
0
 40
0
 40
0
 40
0
 40
1
 40
1
 40
1
 40
1
 10
153.733157
 20
114.871606
 30
0.0
 10
154.926884
 20
114.963632
 30
0.0
 10
156.840637
 20
115.009689
 30
0.0
 10
158.432272
 20
115.009689
 30
0.0
  0
LWPOLYLINE
  5
2be
100
AcDbEntity
  8
Calque_1
 62
7
100
AcDbPolyline
 90
2
 70
0
 10
167.584176
 20
102.834647
 30
0.0
 10
153.846848
 20
102.949718
 30
0.0
  0
SPLINE
  5
2bf
100
AcDbEntity
  8
Calque_1
 62
7
100
AcDbSpline
 70
8
 71
3
 72
8
 73
4
 74
0
 40
0
 40
0
 40
0
 40
0
 40
1
 40
1
 40
1
 40
1
 10
176.773979
 20
84.123244
 30
0.0
 10
177.399269
 20
84.123244
 30
0.0
 10
177.986660
 20
84.698634
 30
0.0
 10
178.043496
 20
85.481143
 30
0.0
  0
SPLINE
  5
2c0
100
AcDbEntity
  8
Calque_1
 62
7
100
AcDbSpline
 70
8
 71
3
 72
8
 73
4
 74
0
 40
0
 40
0
 40
0
 40
0
 40
1
 40
1
 40
1
 40
1
 10
178.043496
 20
85.481143
 30
0.0
 10
178.289823
 20
89.416744
 30
0.0
 10
178.782477
 20
93.651547
 30
0.0
 10
179.540395
 20
98.185539
 30
0.0
  0
LWPOLYLINE
  5
2c1
100
AcDbEntity
  8
Calque_1
 62
7
100
AcDbPolyline
 90
1
 70
1
 10
158.432272
 20
115.009689
 30
0.0
  0
SPLINE
  5
2c2
100
AcDbEntity
  8
Calque_1
 62
7
100
AcDbSpline
 70
8
 71
3
 72
8
 73
4
 74
0
 40
0
 40
0
 40
0
 40
0
 40
1
 40
1
 40
1
 40
1
 10
193.126141
 20
98.185539
 30
0.0
 10
193.808276
 20
94.940399
 30
0.0
 10
194.433558
 20
91.327010
 30
0.0
 10
195.020948
 20
87.368396
 30
0.0
  0
LWPOLYLINE
  5
2c3
100
AcDbEntity
  8
Calque_1
 62
7
100
AcDbPolyline
 90
2
 70
0
 10
179.540395
 20
98.185539
 30
0.0
 10
193.126141
 20
98.185539
 30
0.0
  0
SPLINE
  5
2c4
100
AcDbEntity
  8
Calque_1
 62
7
100
AcDbSpline
 70
8
 71
3
 72
8
 73
4
 74
0
 40
0
 40
0
 40
0
 40
0
 40
1
 40
1
 40
1
 40
1
 10
195.305166
 20
85.366071
 30
0.0
 10
195.437803
 20
84.537527
 30
0.0
 10
195.949402
 20
84.169279
 30
0.0
 10
196.479947
 20
84.169279
 30
0.0
  0
SPLINE
  5
2c5
100
AcDbEntity
  8
Calque_1
 62
7
100
AcDbSpline
 70
8
 71
3
 72
8
 73
4
 74
0
 40
0
 40
0
 40
0
 40
0
 40
1
 40
1
 40
1
 40
1
 10
196.479947
 20
84.169279
 30
0.0
 10
197.124183
 20
84.169279
 30
0.0
 10
197.768410
 20
84.698634
 30
0.0
 10
197.768410
 20
85.619237
 30
0.0
  0
SPLINE
  5
2c6
100
AcDbEntity
  8
Calque_1
 62
7
100
AcDbSpline
 70
8
 71
3
 72
8
 73
4
 74
0
 40
0
 40
0
 40
0
 40
0
 40
1
 40
1
 40
1
 40
1
 10
197.768410
 20
85.619237
 30
0.0
 10
197.768410
 20
85.711263
 30
0.0
 10
197.768410
 20
85.780344
 30
0.0
 10
197.749447
 20
85.872403
 30
0.0
  0
LWPOLYLINE
  5
2c7
100
AcDbEntity
  8
Calque_1
 62
7
100
AcDbPolyline
 90
2
 70
0
 10
195.020948
 20
87.368396
 30
0.0
 10
195.305166
 20
85.366071
 30
0.0
  0
SPLINE
  5
2c8
100
AcDbEntity
  8
Calque_1
 62
7
100
AcDbSpline
 70
8
 71
3
 72
8
 73
4
 74
0
 40
0
 40
0
 40
0
 40
0
 40
1
 40
1
 40
1
 40
1
 10
197.446274
 20
87.897739
 30
0.0
 10
196.138866
 20
96.712569
 30
0.0
 10
194.604076
 20
103.824265
 30
0.0
 10
192.860850
 20
109.209825
 30
0.0
  0
SPLINE
  5
2c9
100
AcDbEntity
  8
Calque_1
 62
7
100
AcDbSpline
 70
8
 71
3
 72
8
 73
4
 74
0
 40
0
 40
0
 40
0
 40
0
 40
1
 40
1
 40
1
 40
1
 10
192.860850
 20
109.209825
 30
0.0
 10
190.852360
 20
115.377904
 30
0.0
 10
188.692280
 20
118.461939
 30
0.0
 10
186.399572
 20
118.461939
 30
0.0
  0
SPLINE
  5
2ca
100
AcDbEntity
  8
Calque_1
 62
7
100
AcDbSpline
 70
8
 71
3
 72
8
 73
4
 74
0
 40
0
 40
0
 40
0
 40
0
 40
1
 40
1
 40
1
 40
1
 10
186.399572
 20
118.461939
 30
0.0
 10
185.584800
 20
118.461939
 30
0.0
 10
184.751092
 20
118.070679
 30
0.0
 10
183.898428
 20
117.288170
 30
0.0
  0
SPLINE
  5
2cb
100
AcDbEntity
  8
Calque_1
 62
7
100
AcDbSpline
 70
8
 71
3
 72
8
 73
4
 74
0
 40
0
 40
0
 40
0
 40
0
 40
1
 40
1
 40
1
 40
1
 10
183.898428
 20
117.288170
 30
0.0
 10
181.814139
 20
115.377904
 30
0.0
 10
180.014076
 20
111.465315
 30
0.0
 10
178.517187
 20
105.573424
 30
0.0
  0
SPLINE
  5
2cc
100
AcDbEntity
  8
Calque_1
 62
7
100
AcDbSpline
 70
8
 71
3
 72
8
 73
4
 74
0
 40
0
 40
0
 40
0
 40
0
 40
1
 40
1
 40
1
 40
1
 10
178.517187
 20
105.573424
 30
0.0
 10
177.020288
 20
99.681533
 30
0.0
 10
176.034988
 20
93.030133
 30
0.0
 10
175.580234
 20
85.573202
 30
0.0
  0
SPLINE
  5
2cd
100
AcDbEntity
  8
Calque_1
 62
7
100
AcDbSpline
 70
8
 71
3
 72
8
 73
4
 74
0
 40
0
 40
0
 40
0
 40
0
 40
1
 40
1
 40
1
 40
1
 10
175.580234
 20
85.573202
 30
0.0
 10
175.542307
 20
84.836717
 30
0.0
 10
176.205524
 20
84.123244
 30
0.0
 10
176.773960
 20
84.123244
 30
0.0
  0
LWPOLYLINE
  5
2ce
100
AcDbEntity
  8
Calque_1
 62
7
100
AcDbPolyline
 90
2
 70
0
 10
197.749447
 20
85.872403
 30
0.0
 10
197.446274
 20
87.897739
 30
0.0
  0
SPLINE
  5
2cf
100
AcDbEntity
  8
Calque_1
 62
7
100
AcDbSpline
 70
8
 71
3
 72
8
 73
4
 74
0
 40
0
 40
0
 40
0
 40
0
 40
1
 40
1
 40
1
 40
1
 10
180.089885
 20
101.177515
 30
0.0
 10
181.113085
 20
106.263884
 30
0.0
 10
182.382602
 20
110.222498
 30
0.0
 10
183.917392
 20
113.007343
 30
0.0
  0
SPLINE
  5
2d0
100
AcDbEntity
  8
Calque_1
 62
7
100
AcDbSpline
 70
8
 71
3
 72
8
 73
4
 74
0
 40
0
 40
0
 40
0
 40
0
 40
1
 40
1
 40
1
 40
1
 10
183.917392
 20
113.007343
 30
0.0
 10
184.713210
 20
114.457301
 30
0.0
 10
185.509027
 20
115.216798
 30
0.0
 10
186.304845
 20
115.331869
 30
0.0
  0
SPLINE
  5
2d1
100
AcDbEntity
  8
Calque_1
 62
7
100
AcDbSpline
 70
8
 71
3
 72
8
 73
4
 74
0
 40
0
 40
0
 40
0
 40
0
 40
1
 40
1
 40
1
 40
1
 10
186.304845
 20
115.331869
 30
0.0
 10
186.456436
 20
115.354903
 30
0.0
 10
186.683808
 20
115.262877
 30
0.0
 10
187.024872
 20
115.032679
 30
0.0
  0
SPLINE
  5
2d2
100
AcDbEntity
  8
Calque_1
 62
7
100
AcDbSpline
 70
8
 71
3
 72
8
 73
4
 74
0
 40
0
 40
0
 40
0
 40
0
 40
1
 40
1
 40
1
 40
1
 10
187.024872
 20
115.032679
 30
0.0
 10
187.365935
 20
114.802526
 30
0.0
 10
187.706999
 20
114.434278
 30
0.0
 10
188.085962
 20
113.835887
 30
0.0
  0
SPLINE
  5
2d3
100
AcDbEntity
  8
Calque_1
 62
7
100
AcDbSpline
 70
8
 71
3
 72
8
 73
4
 74
0
 40
0
 40
0
 40
0
 40
0
 40
1
 40
1
 40
1
 40
1
 10
188.085962
 20
113.835887
 30
0.0
 10
189.582861
 20
111.534362
 30
0.0
 10
191.060806
 20
107.299570
 30
0.0
 10
192.481914
 20
101.177515
 30
0.0
  0
LWPOLYLINE
  5
2d4
100
AcDbEntity
  8
Calque_1
 62
7
100
AcDbPolyline
 90
1
 70
1
 10
176.773960
 20
84.123244
 30
0.0
  0
SPLINE
  5
2d5
100
AcDbEntity
  8
Calque_1
 62
7
100
AcDbSpline
 70
8
 71
3
 72
8
 73
4
 74
0
 40
0
 40
0
 40
0
 40
0
 40
1
 40
1
 40
1
 40
1
 10
212.206819
 20
87.575526
 30
0.0
 10
210.330966
 20
87.575526
 30
0.0
 10
208.796176
 20
88.127893
 30
0.0
 10
207.659295
 20
89.186591
 30
0.0
  0
SPLINE
  5
2d6
100
AcDbEntity
  8
Calque_1
 62
7
100
AcDbSpline
 70
8
 71
3
 72
8
 73
4
 74
0
 40
0
 40
0
 40
0
 40
0
 40
1
 40
1
 40
1
 40
1
 10
207.659295
 20
89.186591
 30
0.0
 10
206.427668
 20
90.337359
 30
0.0
 10
205.461314
 20
93.007121
 30
0.0
 10
204.779188
 20
97.172877
 30
0.0
  0
SPLINE
  5
2d7
100
AcDbEntity
  8
Calque_1
 62
7
100
AcDbSpline
 70
8
 71
3
 72
8
 73
4
 74
0
 40
0
 40
0
 40
0
 40
0
 40
1
 40
1
 40
1
 40
1
 10
204.779188
 20
97.172877
 30
0.0
 10
204.248642
 20
100.395005
 30
0.0
 10
204.002315
 20
105.044080
 30
0.0
 10
204.002315
 20
111.074055
 30
0.0
  0
SPLINE
  5
2d8
100
AcDbEntity
  8
Calque_1
 62
7
100
AcDbSpline
 70
8
 71
3
 72
8
 73
4
 74
0
 40
0
 40
0
 40
0
 40
0
 40
1
 40
1
 40
1
 40
1
 10
204.002315
 20
111.074055
 30
0.0
 10
204.002315
 20
112.823213
 30
0.0
 10
204.021279
 20
114.710467
 30
0.0
 10
204.059115
 20
116.689768
 30
0.0
  0
SPLINE
  5
2d9
100
AcDbEntity
  8
Calque_1
 62
7
100
AcDbSpline
 70
8
 71
3
 72
8
 73
4
 74
0
 40
0
 40
0
 40
0
 40
0
 40
1
 40
1
 40
1
 40
1
 10
204.059115
 20
116.689768
 30
0.0
 10
204.059115
 20
117.518323
 30
0.0
 10
203.509625
 20
118.231785
 30
0.0
 10
202.865389
 20
118.231785
 30
0.0
  0
SPLINE
  5
2da
100
AcDbEntity
  8
Calque_1
 62
7
100
AcDbSpline
 70
8
 71
3
 72
8
 73
4
 74
0
 40
0
 40
0
 40
0
 40
0
 40
1
 40
1
 40
1
 40
1
 10
202.865389
 20
118.231785
 30
0.0
 10
202.221162
 20
118.231785
 30
0.0
 10
201.614817
 20
117.564347
 30
0.0
 10
201.595871
 20
116.781827
 30
0.0
  0
SPLINE
  5
2db
100
AcDbEntity
  8
Calque_1
 62
7
100
AcDbSpline
 70
8
 71
3
 72
8
 73
4
 74
0
 40
0
 40
0
 40
0
 40
0
 40
1
 40
1
 40
1
 40
1
 10
201.595871
 20
116.781827
 30
0.0
 10
201.557944
 20
114.894585
 30
0.0
 10
201.539071
 20
113.099402
 30
0.0
 10
201.539071
 20
111.396267
 30
0.0
  0
SPLINE
  5
2dc
100
AcDbEntity
  8
Calque_1
 62
7
100
AcDbSpline
 70
8
 71
3
 72
8
 73
4
 74
0
 40
0
 40
0
 40
0
 40
0
 40
1
 40
1
 40
1
 40
1
 10
201.539071
 20
111.396267
 30
0.0
 10
201.539071
 20
104.998045
 30
0.0
 10
201.823299
 20
100.049770
 30
0.0
 10
202.372789
 20
96.574475
 30
0.0
  0
SPLINE
  5
2dd
100
AcDbEntity
  8
Calque_1
 62
7
100
AcDbSpline
 70
8
 71
3
 72
8
 73
4
 74
0
 40
0
 40
0
 40
0
 40
0
 40
1
 40
1
 40
1
 40
1
 10
202.372789
 20
96.574475
 30
0.0
 10
203.509670
 20
89.577851
 30
0.0
 10
205.575005
 20
84.537527
 30
0.0
 10
212.244719
 20
84.537527
 30
0.0
  0
SPLINE
  5
2de
100
AcDbEntity
  8
Calque_1
 62
7
100
AcDbSpline
 70
8
 71
3
 72
8
 73
4
 74
0
 40
0
 40
0
 40
0
 40
0
 40
1
 40
1
 40
1
 40
1
 10
212.244719
 20
84.537527
 30
0.0
 10
214.859545
 20
84.537527
 30
0.0
 10
217.265952
 20
85.504166
 30
0.0
 10
218.933378
 20
87.184266
 30
0.0
  0
SPLINE
  5
2df
100
AcDbEntity
  8
Calque_1
 62
7
100
AcDbSpline
 70
8
 71
3
 72
8
 73
4
 74
0
 40
0
 40
0
 40
0
 40
0
 40
1
 40
1
 40
1
 40
1
 10
218.933378
 20
87.184266
 30
0.0
 10
222.116649
 20
90.360371
 30
0.0
 10
223.708284
 20
96.045132
 30
0.0
 10
223.708284
 20
104.169501
 30
0.0
  0
SPLINE
  5
2e0
100
AcDbEntity
  8
Calque_1
 62
7
100
AcDbSpline
 70
8
 71
3
 72
8
 73
4
 74
0
 40
0
 40
0
 40
0
 40
0
 40
1
 40
1
 40
1
 40
1
 10
223.708284
 20
104.169501
 30
0.0
 10
223.708284
 20
108.036055
 30
0.0
 10
223.367221
 20
112.431953
 30
0.0
 10
222.647194
 20
117.380229
 30
0.0
  0
SPLINE
  5
2e1
100
AcDbEntity
  8
Calque_1
 62
7
100
AcDbSpline
 70
8
 71
3
 72
8
 73
4
 74
0
 40
0
 40
0
 40
0
 40
0
 40
1
 40
1
 40
1
 40
1
 10
222.647194
 20
117.380229
 30
0.0
 10
222.533503
 20
118.208773
 30
0.0
 10
222.002958
 20
118.577021
 30
0.0
 10
221.491367
 20
118.577021
 30
0.0
  0
SPLINE
  5
2e2
100
AcDbEntity
  8
Calque_1
 62
7
100
AcDbSpline
 70
8
 71
3
 72
8
 73
4
 74
0
 40
0
 40
0
 40
0
 40
0
 40
1
 40
1
 40
1
 40
1
 10
221.491367
 20
118.577021
 30
0.0
 10
220.847132
 20
118.577021
 30
0.0
 10
220.202896
 20
118.047667
 30
0.0
 10
220.202896
 20
117.127063
 30
0.0
  0
SPLINE
  5
2e3
100
AcDbEntity
  8
Calque_1
 62
7
100
AcDbSpline
 70
8
 71
3
 72
8
 73
4
 74
0
 40
0
 40
0
 40
0
 40
0
 40
1
 40
1
 40
1
 40
1
 10
220.202896
 20
117.127063
 30
0.0
 10
220.202896
 20
117.035037
 30
0.0
 10
220.202896
 20
116.942934
 30
0.0
 10
220.221859
 20
116.850874
 30
0.0
  0
SPLINE
  5
2e4
100
AcDbEntity
  8
Calque_1
 62
7
100
AcDbSpline
 70
8
 71
3
 72
8
 73
4
 74
0
 40
0
 40
0
 40
0
 40
0
 40
1
 40
1
 40
1
 40
1
 10
220.221859
 20
116.850874
 30
0.0
 10
220.903995
 20
112.063716
 30
0.0
 10
221.264004
 20
107.897961
 30
0.0
 10
221.264004
 20
104.353619
 30
0.0
  0
SPLINE
  5
2e5
100
AcDbEntity
  8
Calque_1
 62
7
100
AcDbSpline
 70
8
 71
3
 72
8
 73
4
 74
0
 40
0
 40
0
 40
0
 40
0
 40
1
 40
1
 40
1
 40
1
 10
221.264004
 20
104.353619
 30
0.0
 10
221.264004
 20
95.101505
 30
0.0
 10
219.217614
 20
87.575526
 30
0.0
 10
212.206837
 20
87.575526
 30
0.0
  0
LWPOLYLINE
  5
2e6
100
AcDbEntity
  8
Calque_1
 62
7
100
AcDbPolyline
 90
2
 70
0
 10
192.481914
 20
101.177515
 30
0.0
 10
180.089885
 20
101.177515
 30
0.0
  0
SPLINE
  5
2e7
100
AcDbEntity
  8
Calque_1
 62
7
100
AcDbSpline
 70
8
 71
3
 72
8
 73
4
 74
0
 40
0
 40
0
 40
0
 40
0
 40
1
 40
1
 40
1
 40
1
 10
251.220848
 20
99.635497
 30
0.0
 10
253.096701
 20
99.635497
 30
0.0
 10
254.479909
 20
99.359320
 30
0.0
 10
255.332573
 20
98.806953
 30
0.0
  0
SPLINE
  5
2e8
100
AcDbEntity
  8
Calque_1
 62
7
100
AcDbSpline
 70
8
 71
3
 72
8
 73
4
 74
0
 40
0
 40
0
 40
0
 40
0
 40
1
 40
1
 40
1
 40
1
 10
255.332573
 20
98.806953
 30
0.0
 10
256.583144
 20
98.024433
 30
0.0
 10
257.871607
 20
96.482416
 30
0.0
 10
257.871607
 20
94.457079
 30
0.0
  0
SPLINE
  5
2e9
100
AcDbEntity
  8
Calque_1
 62
7
100
AcDbSpline
 70
8
 71
3
 72
8
 73
4
 74
0
 40
0
 40
0
 40
0
 40
0
 40
1
 40
1
 40
1
 40
1
 10
257.871607
 20
94.457079
 30
0.0
 10
257.871607
 20
94.157878
 30
0.0
 10
257.833680
 20
93.835666
 30
0.0
 10
257.776871
 20
93.513453
 30
0.0
  0
SPLINE
  5
2ea
100
AcDbEntity
  8
Calque_1
 62
7
100
AcDbSpline
 70
8
 71
3
 72
8
 73
4
 74
0
 40
0
 40
0
 40
0
 40
0
 40
1
 40
1
 40
1
 40
1
 10
257.776871
 20
93.513453
 30
0.0
 10
257.397908
 20
91.534151
 30
0.0
 10
256.374717
 20
90.084182
 30
0.0
 10
254.688337
 20
89.140567
 30
0.0
  0
SPLINE
  5
2eb
100
AcDbEntity
  8
Calque_1
 62
7
100
AcDbSpline
 70
8
 71
3
 72
8
 73
4
 74
0
 40
0
 40
0
 40
0
 40
0
 40
1
 40
1
 40
1
 40
1
 10
254.688337
 20
89.140567
 30
0.0
 10
253.305128
 20
88.358047
 30
0.0
 10
251.902975
 20
87.989799
 30
0.0
 10
250.425030
 20
87.989799
 30
0.0
  0
SPLINE
  5
2ec
100
AcDbEntity
  8
Calque_1
 62
7
100
AcDbSpline
 70
8
 71
3
 72
8
 73
4
 74
0
 40
0
 40
0
 40
0
 40
0
 40
1
 40
1
 40
1
 40
1
 10
250.425030
 20
87.989799
 30
0.0
 10
250.102912
 20
87.989799
 30
0.0
 10
249.780794
 20
87.989799
 30
0.0
 10
249.458676
 20
88.035867
 30
0.0
  0
SPLINE
  5
2ed
100
AcDbEntity
  8
Calque_1
 62
7
100
AcDbSpline
 70
8
 71
3
 72
8
 73
4
 74
0
 40
0
 40
0
 40
0
 40
0
 40
1
 40
1
 40
1
 40
1
 10
249.458676
 20
88.035867
 30
0.0
 10
245.858551
 20
88.450139
 30
0.0
 10
242.883708
 20
89.923109
 30
0.0
 10
240.534146
 20
92.408753
 30
0.0
  0
SPLINE
  5
2ee
100
AcDbEntity
  8
Calque_1
 62
7
100
AcDbSpline
 70
8
 71
3
 72
8
 73
4
 74
0
 40
0
 40
0
 40
0
 40
0
 40
1
 40
1
 40
1
 40
1
 10
240.534146
 20
92.408753
 30
0.0
 10
240.287828
 20
92.661929
 30
0.0
 10
240.022555
 20
92.777001
 30
0.0
 10
239.776228
 20
92.777001
 30
0.0
  0
SPLINE
  5
2ef
100
AcDbEntity
  8
Calque_1
 62
7
100
AcDbSpline
 70
8
 71
3
 72
8
 73
4
 74
0
 40
0
 40
0
 40
0
 40
0
 40
1
 40
1
 40
1
 40
1
 10
239.776228
 20
92.777001
 30
0.0
 10
239.113047
 20
92.777001
 30
0.0
 10
238.506711
 20
92.017504
 30
0.0
 10
238.506711
 20
91.211971
 30
0.0
  0
SPLINE
  5
2f0
100
AcDbEntity
  8
Calque_1
 62
7
100
AcDbSpline
 70
8
 71
3
 72
8
 73
4
 74
0
 40
0
 40
0
 40
0
 40
0
 40
1
 40
1
 40
1
 40
1
 10
238.506711
 20
91.211971
 30
0.0
 10
238.506711
 20
90.843723
 30
0.0
 10
238.620393
 20
90.475475
 30
0.0
 10
238.923565
 20
90.153263
 30
0.0
  0
SPLINE
  5
2f1
100
AcDbEntity
  8
Calque_1
 62
7
100
AcDbSpline
 70
8
 71
3
 72
8
 73
4
 74
0
 40
0
 40
0
 40
0
 40
0
 40
1
 40
1
 40
1
 40
1
 10
238.923565
 20
90.153263
 30
0.0
 10
241.671036
 20
87.230335
 30
0.0
 10
245.081679
 20
85.550223
 30
0.0
 10
249.212349
 20
85.066904
 30
0.0
  0
SPLINE
  5
2f2
100
AcDbEntity
  8
Calque_1
 62
7
100
AcDbSpline
 70
8
 71
3
 72
8
 73
4
 74
0
 40
0
 40
0
 40
0
 40
0
 40
1
 40
1
 40
1
 40
1
 10
249.212349
 20
85.066904
 30
0.0
 10
249.629213
 20
85.020835
 30
0.0
 10
250.065012
 20
84.997801
 30
0.0
 10
250.481876
 20
84.997801
 30
0.0
  0
SPLINE
  5
2f3
100
AcDbEntity
  8
Calque_1
 62
7
100
AcDbSpline
 70
8
 71
3
 72
8
 73
4
 74
0
 40
0
 40
0
 40
0
 40
0
 40
1
 40
1
 40
1
 40
1
 10
250.481876
 20
84.997801
 30
0.0
 10
252.262984
 20
84.997801
 30
0.0
 10
253.968310
 20
85.435097
 30
0.0
 10
255.559945
 20
86.332688
 30
0.0
  0
SPLINE
  5
2f4
100
AcDbEntity
  8
Calque_1
 62
7
100
AcDbSpline
 70
8
 71
3
 72
8
 73
4
 74
0
 40
0
 40
0
 40
0
 40
0
 40
1
 40
1
 40
1
 40
1
 10
255.559945
 20
86.332688
 30
0.0
 10
258.080034
 20
87.736611
 30
0.0
 10
259.633779
 20
89.946077
 30
0.0
 10
260.202215
 20
92.961064
 30
0.0
  0
SPLINE
  5
2f5
100
AcDbEntity
  8
Calque_1
 62
7
100
AcDbSpline
 70
8
 71
3
 72
8
 73
4
 74
0
 40
0
 40
0
 40
0
 40
0
 40
1
 40
1
 40
1
 40
1
 10
260.202215
 20
92.961064
 30
0.0
 10
260.296960
 20
93.490419
 30
0.0
 10
260.353806
 20
93.996750
 30
0.0
 10
260.353806
 20
94.480069
 30
0.0
  0
SPLINE
  5
2f6
100
AcDbEntity
  8
Calque_1
 62
7
100
AcDbSpline
 70
8
 71
3
 72
8
 73
4
 74
0
 40
0
 40
0
 40
0
 40
0
 40
1
 40
1
 40
1
 40
1
 10
260.353806
 20
94.480069
 30
0.0
 10
260.353806
 20
97.679186
 30
0.0
 10
258.421098
 20
100.256889
 30
0.0
 10
256.526299
 20
101.430669
 30
0.0
  0
SPLINE
  5
2f7
100
AcDbEntity
  8
Calque_1
 62
7
100
AcDbSpline
 70
8
 71
3
 72
8
 73
4
 74
0
 40
0
 40
0
 40
0
 40
0
 40
1
 40
1
 40
1
 40
1
 10
256.526299
 20
101.430669
 30
0.0
 10
255.275727
 20
102.236201
 30
0.0
 10
253.475665
 20
102.627451
 30
0.0
 10
251.164003
 20
102.627451
 30
0.0
  0
SPLINE
  5
2f8
100
AcDbEntity
  8
Calque_1
 62
7
100
AcDbSpline
 70
8
 71
3
 72
8
 73
4
 74
0
 40
0
 40
0
 40
0
 40
0
 40
1
 40
1
 40
1
 40
1
 10
251.164003
 20
102.627451
 30
0.0
 10
250.083967
 20
102.627451
 30
0.0
 10
248.852340
 20
102.489367
 30
0.0
 10
247.904941
 20
102.489367
 30
0.0
  0
SPLINE
  5
2f9
100
AcDbEntity
  8
Calque_1
 62
7
100
AcDbSpline
 70
8
 71
3
 72
8
 73
4
 74
0
 40
0
 40
0
 40
0
 40
0
 40
1
 40
1
 40
1
 40
1
 10
247.904941
 20
102.489367
 30
0.0
 10
245.233261
 20
102.489367
 30
0.0
 10
243.565835
 20
103.133793
 30
0.0
 10
242.220527
 20
104.583751
 30
0.0
  0
SPLINE
  5
2fa
100
AcDbEntity
  8
Calque_1
 62
7
100
AcDbSpline
 70
8
 71
3
 72
8
 73
4
 74
0
 40
0
 40
0
 40
0
 40
0
 40
1
 40
1
 40
1
 40
1
 10
242.220527
 20
104.583751
 30
0.0
 10
241.348918
 20
105.527377
 30
0.0
 10
240.572046
 20
106.977335
 30
0.0
 10
240.572046
 20
108.772518
 30
0.0
  0
SPLINE
  5
2fb
100
AcDbEntity
  8
Calque_1
 62
7
100
AcDbSpline
 70
8
 71
3
 72
8
 73
4
 74
0
 40
0
 40
0
 40
0
 40
0
 40
1
 40
1
 40
1
 40
1
 10
240.572046
 20
108.772518
 30
0.0
 10
240.572046
 20
109.301862
 30
0.0
 10
240.647810
 20
109.854228
 30
0.0
 10
240.799418
 20
110.429607
 30
0.0
  0
SPLINE
  5
2fc
100
AcDbEntity
  8
Calque_1
 62
7
100
AcDbSpline
 70
8
 71
3
 72
8
 73
4
 74
0
 40
0
 40
0
 40
0
 40
0
 40
1
 40
1
 40
1
 40
1
 10
240.799418
 20
110.429607
 30
0.0
 10
241.557345
 20
113.214451
 30
0.0
 10
243.963744
 20
114.572350
 30
0.0
 10
247.052278
 20
114.572350
 30
0.0
  0
SPLINE
  5
2fd
100
AcDbEntity
  8
Calque_1
 62
7
100
AcDbSpline
 70
8
 71
3
 72
8
 73
4
 74
0
 40
0
 40
0
 40
0
 40
0
 40
1
 40
1
 40
1
 40
1
 10
247.052278
 20
114.572350
 30
0.0
 10
251.599802
 20
114.572350
 30
0.0
 10
255.351518
 20
112.408919
 30
0.0
 10
257.776871
 20
109.578050
 30
0.0
  0
SPLINE
  5
2fe
100
AcDbEntity
  8
Calque_1
 62
7
100
AcDbSpline
 70
8
 71
3
 72
8
 73
4
 74
0
 40
0
 40
0
 40
0
 40
0
 40
1
 40
1
 40
1
 40
1
 10
257.776871
 20
109.578050
 30
0.0
 10
258.023189
 20
109.301862
 30
0.0
 10
258.326362
 20
109.163778
 30
0.0
 10
258.667425
 20
109.163778
 30
0.0
  0
SPLINE
  5
2ff
100
AcDbEntity
  8
Calque_1
 62
7
100
AcDbSpline
 70
8
 71
3
 72
8
 73
4
 74
0
 40
0
 40
0
 40
0
 40
0
 40
1
 40
1
 40
1
 40
1
 10
258.667425
 20
109.163778
 30
0.0
 10
259.387452
 20
109.186812
 30
0.0
 10
259.861151
 20
109.923275
 30
0.0
 10
259.861151
 20
110.682784
 30
0.0
  0
SPLINE
  5
300
100
AcDbEntity
  8
Calque_1
 62
7
100
AcDbSpline
 70
8
 71
3
 72
8
 73
4
 74
0
 40
0
 40
0
 40
0
 40
0
 40
1
 40
1
 40
1
 40
1
 10
259.861151
 20
110.682784
 30
0.0
 10
259.861151
 20
111.074033
 30
0.0
 10
259.747470
 20
111.442281
 30
0.0
 10
259.482197
 20
111.741481
 30
0.0
  0
SPLINE
  5
301
100
AcDbEntity
  8
Calque_1
 62
7
100
AcDbSpline
 70
8
 71
3
 72
8
 73
4
 74
0
 40
0
 40
0
 40
0
 40
0
 40
1
 40
1
 40
1
 40
1
 10
259.482197
 20
111.741481
 30
0.0
 10
256.602090
 20
115.078682
 30
0.0
 10
252.319829
 20
117.564325
 30
0.0
 10
246.919642
 20
117.564325
 30
0.0
  0
SPLINE
  5
302
100
AcDbEntity
  8
Calque_1
 62
7
100
AcDbSpline
 70
8
 71
3
 72
8
 73
4
 74
0
 40
0
 40
0
 40
0
 40
0
 40
1
 40
1
 40
1
 40
1
 10
246.919642
 20
117.564325
 30
0.0
 10
242.788963
 20
117.564325
 30
0.0
 10
239.529901
 20
115.239788
 30
0.0
 10
238.468811
 20
111.373233
 30
0.0
  0
SPLINE
  5
303
100
AcDbEntity
  8
Calque_1
 62
7
100
AcDbSpline
 70
8
 71
3
 72
8
 73
4
 74
0
 40
0
 40
0
 40
0
 40
0
 40
1
 40
1
 40
1
 40
1
 10
238.468811
 20
111.373233
 30
0.0
 10
238.222484
 20
110.475642
 30
0.0
 10
238.108802
 20
109.601063
 30
0.0
 10
238.108802
 20
108.772518
 30
0.0
  0
SPLINE
  5
304
100
AcDbEntity
  8
Calque_1
 62
7
100
AcDbSpline
 70
8
 71
3
 72
8
 73
4
 74
0
 40
0
 40
0
 40
0
 40
0
 40
1
 40
1
 40
1
 40
1
 10
238.108802
 20
108.772518
 30
0.0
 10
238.108802
 20
106.079733
 30
0.0
 10
239.264629
 20
103.824243
 30
0.0
 10
240.534146
 20
102.420320
 30
0.0
  0
SPLINE
  5
305
100
AcDbEntity
  8
Calque_1
 62
7
100
AcDbSpline
 70
8
 71
3
 72
8
 73
4
 74
0
 40
0
 40
0
 40
0
 40
0
 40
1
 40
1
 40
1
 40
1
 10
240.534146
 20
102.420320
 30
0.0
 10
242.428954
 20
100.325936
 30
0.0
 10
244.570080
 20
99.497392
 30
0.0
 10
247.904941
 20
99.497392
 30
0.0
  0
SPLINE
  5
306
100
AcDbEntity
  8
Calque_1
 62
7
100
AcDbSpline
 70
8
 71
3
 72
8
 73
4
 74
0
 40
0
 40
0
 40
0
 40
0
 40
1
 40
1
 40
1
 40
1
 10
247.904941
 20
99.497392
 30
0.0
 10
248.890240
 20
99.497392
 30
0.0
 10
250.102912
 20
99.635475
 30
0.0
 10
251.220848
 20
99.635475
 30
0.0
  0
LWPOLYLINE
  5
307
100
AcDbEntity
  8
Calque_1
 62
7
100
AcDbPolyline
 90
1
 70
1
 10
212.206837
 20
87.575526
 30
0.0
  0
SPLINE
  5
308
100
AcDbEntity
  8
Calque_1
 62
7
100
AcDbSpline
 70
8
 71
3
 72
8
 73
4
 74
0
 40
0
 40
0
 40
0
 40
0
 40
1
 40
1
 40
1
 40
1
 10
292.546530
 20
100.625159
 30
0.0
 10
292.546530
 20
104.123466
 30
0.0
 10
291.542285
 20
107.575748
 30
0.0
 10
289.704323
 20
110.498676
 30
0.0
  0
SPLINE
  5
309
100
AcDbEntity
  8
Calque_1
 62
7
100
AcDbSpline
 70
8
 71
3
 72
8
 73
4
 74
0
 40
0
 40
0
 40
0
 40
0
 40
1
 40
1
 40
1
 40
1
 10
289.704323
 20
110.498676
 30
0.0
 10
287.373715
 20
114.158100
 30
0.0
 10
283.356736
 20
117.219122
 30
0.0
 10
278.562876
 20
117.541335
 30
0.0
  0
SPLINE
  5
30a
100
AcDbEntity
  8
Calque_1
 62
7
100
AcDbSpline
 70
8
 71
3
 72
8
 73
4
 74
0
 40
0
 40
0
 40
0
 40
0
 40
1
 40
1
 40
1
 40
1
 10
278.562876
 20
117.541335
 30
0.0
 10
278.373394
 20
117.564369
 30
0.0
 10
278.183912
 20
117.679430
 30
0.0
 10
277.899694
 20
117.656407
 30
0.0
  0
SPLINE
  5
30b
100
AcDbEntity
  8
Calque_1
 62
7
100
AcDbSpline
 70
8
 71
3
 72
8
 73
4
 74
0
 40
0
 40
0
 40
0
 40
0
 40
1
 40
1
 40
1
 40
1
 10
277.899694
 20
117.656407
 30
0.0
 10
274.602733
 20
117.495300
 30
0.0
 10
271.703689
 20
116.160425
 30
0.0
 10
269.183591
 20
113.651769
 30
0.0
  0
SPLINE
  5
30c
100
AcDbEntity
  8
Calque_1
 62
7
100
AcDbSpline
 70
8
 71
3
 72
8
 73
4
 74
0
 40
0
 40
0
 40
0
 40
0
 40
1
 40
1
 40
1
 40
1
 10
269.183591
 20
113.651769
 30
0.0
 10
266.530865
 20
111.051043
 30
0.0
 10
264.105521
 20
106.378956
 30
0.0
 10
264.105521
 20
101.177515
 30
0.0
  0
SPLINE
  5
30d
100
AcDbEntity
  8
Calque_1
 62
7
100
AcDbSpline
 70
8
 71
3
 72
8
 73
4
 74
0
 40
0
 40
0
 40
0
 40
0
 40
1
 40
1
 40
1
 40
1
 10
264.105521
 20
101.177515
 30
0.0
 10
264.105521
 20
99.957710
 30
0.0
 10
264.238158
 20
98.691882
 30
0.0
 10
264.484485
 20
97.426042
 30
0.0
  0
SPLINE
  5
30e
100
AcDbEntity
  8
Calque_1
 62
7
100
AcDbSpline
 70
8
 71
3
 72
8
 73
4
 74
0
 40
0
 40
0
 40
0
 40
0
 40
1
 40
1
 40
1
 40
1
 10
264.484485
 20
97.426042
 30
0.0
 10
265.564520
 20
91.856364
 30
0.0
 10
268.918318
 20
87.943774
 30
0.0
 10
272.897416
 20
86.194616
 30
0.0
  0
SPLINE
  5
30f
100
AcDbEntity
  8
Calque_1
 62
7
100
AcDbSpline
 70
8
 71
3
 72
8
 73
4
 74
0
 40
0
 40
0
 40
0
 40
0
 40
1
 40
1
 40
1
 40
1
 10
272.897416
 20
86.194616
 30
0.0
 10
274.697478
 20
85.412096
 30
0.0
 10
276.535440
 20
85.043859
 30
0.0
 10
278.316548
 20
85.043859
 30
0.0
  0
SPLINE
  5
310
100
AcDbEntity
  8
Calque_1
 62
7
100
AcDbSpline
 70
8
 71
3
 72
8
 73
4
 74
0
 40
0
 40
0
 40
0
 40
0
 40
1
 40
1
 40
1
 40
1
 10
278.316548
 20
85.043859
 30
0.0
 10
286.142098
 20
85.043859
 30
0.0
 10
292.546530
 20
91.350022
 30
0.0
 10
292.546530
 20
100.625159
 30
0.0
  0
LWPOLYLINE
  5
311
100
AcDbEntity
  8
Calque_1
 62
7
100
AcDbPolyline
 90
1
 70
1
 10
251.220848
 20
99.635475
 30
0.0
  0
SPLINE
  5
312
100
AcDbEntity
  8
Calque_1
 62
7
100
AcDbSpline
 70
8
 71
3
 72
8
 73
4
 74
0
 40
0
 40
0
 40
0
 40
0
 40
1
 40
1
 40
1
 40
1
 10
278.032330
 20
114.664431
 30
0.0
 10
278.164967
 20
114.595439
 30
0.0
 10
278.297603
 20
114.549360
 30
0.0
 10
278.430239
 20
114.549360
 30
0.0
  0
SPLINE
  5
313
100
AcDbEntity
  8
Calque_1
 62
7
100
AcDbSpline
 70
8
 71
3
 72
8
 73
4
 74
0
 40
0
 40
0
 40
0
 40
0
 40
1
 40
1
 40
1
 40
1
 10
278.430239
 20
114.549360
 30
0.0
 10
280.249256
 20
114.434278
 30
0.0
 10
281.992473
 20
113.835887
 30
0.0
 10
283.640954
 20
112.800201
 30
0.0
  0
SPLINE
  5
314
100
AcDbEntity
  8
Calque_1
 62
7
100
AcDbSpline
 70
8
 71
3
 72
8
 73
4
 74
0
 40
0
 40
0
 40
0
 40
0
 40
1
 40
1
 40
1
 40
1
 10
283.640954
 20
112.800201
 30
0.0
 10
287.089497
 20
110.613758
 30
0.0
 10
290.102232
 20
106.240861
 30
0.0
 10
290.102232
 20
100.487065
 30
0.0
  0
SPLINE
  5
315
100
AcDbEntity
  8
Calque_1
 62
7
100
AcDbSpline
 70
8
 71
3
 72
8
 73
4
 74
0
 40
0
 40
0
 40
0
 40
0
 40
1
 40
1
 40
1
 40
1
 10
290.102232
 20
100.487065
 30
0.0
 10
290.102232
 20
93.812653
 30
0.0
 10
285.744189
 20
89.301673
 30
0.0
 10
280.647165
 20
88.265987
 30
0.0
  0
SPLINE
  5
316
100
AcDbEntity
  8
Calque_1
 62
7
100
AcDbSpline
 70
8
 71
3
 72
8
 73
4
 74
0
 40
0
 40
0
 40
0
 40
0
 40
1
 40
1
 40
1
 40
1
 10
280.647165
 20
88.265987
 30
0.0
 10
279.813447
 20
88.104881
 30
0.0
 10
279.017630
 20
88.012822
 30
0.0
 10
278.240758
 20
88.012822
 30
0.0
  0
SPLINE
  5
317
100
AcDbEntity
  8
Calque_1
 62
7
100
AcDbSpline
 70
8
 71
3
 72
8
 73
4
 74
0
 40
0
 40
0
 40
0
 40
0
 40
1
 40
1
 40
1
 40
1
 10
278.240758
 20
88.012822
 30
0.0
 10
273.844815
 20
88.012822
 30
0.0
 10
270.415217
 20
90.567513
 30
0.0
 10
268.406728
 20
93.927725
 30
0.0
  0
SPLINE
  5
318
100
AcDbEntity
  8
Calque_1
 62
7
100
AcDbSpline
 70
8
 71
3
 72
8
 73
4
 74
0
 40
0
 40
0
 40
0
 40
0
 40
1
 40
1
 40
1
 40
1
 10
268.406728
 20
93.927725
 30
0.0
 10
267.383528
 20
95.607836
 30
0.0
 10
266.587711
 20
98.231575
 30
0.0
 10
266.587711
 20
101.085455
 30
0.0
  0
SPLINE
  5
319
100
AcDbEntity
  8
Calque_1
 62
7
100
AcDbSpline
 70
8
 71
3
 72
8
 73
4
 74
0
 40
0
 40
0
 40
0
 40
0
 40
1
 40
1
 40
1
 40
1
 10
266.587711
 20
101.085455
 30
0.0
 10
266.587711
 20
101.683857
 30
0.0
 10
266.625638
 20
102.328283
 30
0.0
 10
266.701401
 20
102.949685
 30
0.0
  0
SPLINE
  5
31a
100
AcDbEntity
  8
Calque_1
 62
7
100
AcDbSpline
 70
8
 71
3
 72
8
 73
4
 74
0
 40
0
 40
0
 40
0
 40
0
 40
1
 40
1
 40
1
 40
1
 10
266.701401
 20
102.949685
 30
0.0
 10
267.137210
 20
106.309909
 30
0.0
 10
268.444619
 20
109.048718
 30
0.0
 10
270.623644
 20
111.212149
 30
0.0
  0
SPLINE
  5
31b
100
AcDbEntity
  8
Calque_1
 62
7
100
AcDbSpline
 70
8
 71
3
 72
8
 73
4
 74
0
 40
0
 40
0
 40
0
 40
0
 40
1
 40
1
 40
1
 40
1
 10
270.623644
 20
111.212149
 30
0.0
 10
272.802670
 20
113.375580
 30
0.0
 10
275.265914
 20
114.526337
 30
0.0
 10
278.032330
 20
114.664431
 30
0.0
  0
LWPOLYLINE
  5
31c
100
AcDbEntity
  8
Calque_1
 62
7
100
AcDbPolyline
 90
1
 70
1
 10
292.546530
 20
100.625159
 30
0.0
  0
SPLINE
  5
31d
100
AcDbEntity
  8
Calque_1
 62
7
100
AcDbSpline
 70
8
 71
3
 72
8
 73
4
 74
0
 40
0
 40
0
 40
0
 40
0
 40
1
 40
1
 40
1
 40
1
 10
297.624599
 20
118.392892
 30
0.0
 10
296.980363
 20
118.392892
 30
0.0
 10
296.355082
 20
117.679430
 30
0.0
 10
296.355082
 20
116.873897
 30
0.0
  0
SPLINE
  5
31e
100
AcDbEntity
  8
Calque_1
 62
7
100
AcDbSpline
 70
8
 71
3
 72
8
 73
4
 74
0
 40
0
 40
0
 40
0
 40
0
 40
1
 40
1
 40
1
 40
1
 10
296.355082
 20
116.873897
 30
0.0
 10
296.355082
 20
103.202862
 30
0.0
 10
296.999309
 20
93.053145
 30
0.0
 10
297.435118
 20
86.723970
 30
0.0
  0
SPLINE
  5
31f
100
AcDbEntity
  8
Calque_1
 62
7
100
AcDbSpline
 70
8
 71
3
 72
8
 73
4
 74
0
 40
0
 40
0
 40
0
 40
0
 40
1
 40
1
 40
1
 40
1
 10
297.435118
 20
86.723970
 30
0.0
 10
297.492009
 20
85.872403
 30
0.0
 10
297.795127
 20
85.320036
 30
0.0
 10
298.306726
 20
85.089883
 30
0.0
  0
SPLINE
  5
320
100
AcDbEntity
  8
Calque_1
 62
7
100
AcDbSpline
 70
8
 71
3
 72
8
 73
4
 74
0
 40
0
 40
0
 40
0
 40
0
 40
1
 40
1
 40
1
 40
1
 10
298.306726
 20
85.089883
 30
0.0
 10
299.026753
 20
84.767670
 30
0.0
 10
299.595198
 20
84.652598
 30
0.0
 10
300.258380
 20
84.652598
 30
0.0
  0
SPLINE
  5
321
100
AcDbEntity
  8
Calque_1
 62
7
100
AcDbSpline
 70
8
 71
3
 72
8
 73
4
 74
0
 40
0
 40
0
 40
0
 40
0
 40
1
 40
1
 40
1
 40
1
 10
300.258380
 20
84.652598
 30
0.0
 10
300.940506
 20
84.652598
 30
0.0
 10
301.698424
 20
84.767670
 30
0.0
 10
302.740569
 20
84.928776
 30
0.0
  0
SPLINE
  5
322
100
AcDbEntity
  8
Calque_1
 62
7
100
AcDbSpline
 70
8
 71
3
 72
8
 73
4
 74
0
 40
0
 40
0
 40
0
 40
0
 40
1
 40
1
 40
1
 40
1
 10
302.740569
 20
84.928776
 30
0.0
 10
304.843804
 20
85.250989
 30
0.0
 10
307.458629
 20
85.665272
 30
0.0
 10
309.789237
 20
85.665272
 30
0.0
  0
SPLINE
  5
323
100
AcDbEntity
  8
Calque_1
 62
7
100
AcDbSpline
 70
8
 71
3
 72
8
 73
4
 74
0
 40
0
 40
0
 40
0
 40
0
 40
1
 40
1
 40
1
 40
1
 10
309.789237
 20
85.665272
 30
0.0
 10
311.759836
 20
85.665272
 30
0.0
 10
313.503062
 20
85.389083
 30
0.0
 10
314.999952
 20
84.859740
 30
0.0
  0
SPLINE
  5
324
100
AcDbEntity
  8
Calque_1
 62
7
100
AcDbSpline
 70
8
 71
3
 72
8
 73
4
 74
0
 40
0
 40
0
 40
0
 40
0
 40
1
 40
1
 40
1
 40
1
 10
314.999952
 20
84.859740
 30
0.0
 10
315.852615
 20
84.560539
 30
0.0
 10
316.534742
 20
85.435119
 30
0.0
 10
316.534742
 20
86.240651
 30
0.0
  0
SPLINE
  5
325
100
AcDbEntity
  8
Calque_1
 62
7
100
AcDbSpline
 70
8
 71
3
 72
8
 73
4
 74
0
 40
0
 40
0
 40
0
 40
0
 40
1
 40
1
 40
1
 40
1
 10
316.534742
 20
86.240651
 30
0.0
 10
316.534742
 20
86.885077
 30
0.0
 10
316.212624
 20
87.529502
 30
0.0
 10
315.682079
 20
87.736633
 30
0.0
  0
SPLINE
  5
326
100
AcDbEntity
  8
Calque_1
 62
7
100
AcDbSpline
 70
8
 71
3
 72
8
 73
4
 74
0
 40
0
 40
0
 40
0
 40
0
 40
1
 40
1
 40
1
 40
1
 10
315.682079
 20
87.736633
 30
0.0
 10
313.976761
 20
88.358047
 30
0.0
 10
312.044063
 20
88.657247
 30
0.0
 10
309.865037
 20
88.657247
 30
0.0
  0
SPLINE
  5
327
100
AcDbEntity
  8
Calque_1
 62
7
100
AcDbSpline
 70
8
 71
3
 72
8
 73
4
 74
0
 40
0
 40
0
 40
0
 40
0
 40
1
 40
1
 40
1
 40
1
 10
309.865037
 20
88.657247
 30
0.0
 10
308.766047
 20
88.657247
 30
0.0
 10
307.629166
 20
88.565221
 30
0.0
 10
306.416494
 20
88.427094
 30
0.0
  0
SPLINE
  5
328
100
AcDbEntity
  8
Calque_1
 62
7
100
AcDbSpline
 70
8
 71
3
 72
8
 73
4
 74
0
 40
0
 40
0
 40
0
 40
0
 40
1
 40
1
 40
1
 40
1
 10
306.416494
 20
88.427094
 30
0.0
 10
304.294304
 20
88.173928
 30
0.0
 10
302.001597
 20
87.690609
 30
0.0
 10
300.049943
 20
87.690609
 30
0.0
  0
SPLINE
  5
329
100
AcDbEntity
  8
Calque_1
 62
7
100
AcDbSpline
 70
8
 71
3
 72
8
 73
4
 74
0
 40
0
 40
0
 40
0
 40
0
 40
1
 40
1
 40
1
 40
1
 10
300.049943
 20
87.690609
 30
0.0
 10
299.974180
 20
87.690609
 30
0.0
 10
299.898362
 20
87.690609
 30
0.0
 10
299.841516
 20
87.690609
 30
0.0
  0
SPLINE
  5
32a
100
AcDbEntity
  8
Calque_1
 62
7
100
AcDbSpline
 70
8
 71
3
 72
8
 73
4
 74
0
 40
0
 40
0
 40
0
 40
0
 40
1
 40
1
 40
1
 40
1
 10
299.841516
 20
87.690609
 30
0.0
 10
299.424662
 20
94.042807
 30
0.0
 10
299.102544
 20
103.824265
 30
0.0
 10
298.818326
 20
116.942934
 30
0.0
  0
SPLINE
  5
32b
100
AcDbEntity
  8
Calque_1
 62
7
100
AcDbSpline
 70
8
 71
3
 72
8
 73
4
 74
0
 40
0
 40
0
 40
0
 40
0
 40
1
 40
1
 40
1
 40
1
 10
298.818326
 20
116.942934
 30
0.0
 10
298.818326
 20
117.725454
 30
0.0
 10
298.230935
 20
118.392892
 30
0.0
 10
297.624599
 20
118.392892
 30
0.0
  0
LWPOLYLINE
  5
32c
100
AcDbEntity
  8
Calque_1
 62
7
100
AcDbPolyline
 90
1
 70
1
 10
278.032330
 20
114.664431
 30
0.0
  0
SPLINE
  5
32d
100
AcDbEntity
  8
Calque_1
 62
7
100
AcDbSpline
 70
8
 71
3
 72
8
 73
4
 74
0
 40
0
 40
0
 40
0
 40
0
 40
1
 40
1
 40
1
 40
1
 10
321.631775
 20
118.530986
 30
0.0
 10
320.968584
 20
118.530986
 30
0.0
 10
320.362248
 20
117.817513
 30
0.0
 10
320.362248
 20
117.011981
 30
0.0
  0
LWPOLYLINE
  5
32e
100
AcDbEntity
  8
Calque_1
 62
7
100
AcDbPolyline
 90
1
 70
1
 10
297.624599
 20
118.392892
 30
0.0
  0
SPLINE
  5
32f
100
AcDbEntity
  8
Calque_1
 62
7
100
AcDbSpline
 70
8
 71
3
 72
8
 73
4
 74
0
 40
0
 40
0
 40
0
 40
0
 40
1
 40
1
 40
1
 40
1
 10
320.608575
 20
85.849391
 30
0.0
 10
320.608575
 20
84.905764
 30
0.0
 10
321.214911
 20
84.422445
 30
0.0
 10
321.821247
 20
84.422445
 30
0.0
  0
SPLINE
  5
330
100
AcDbEntity
  8
Calque_1
 62
7
100
AcDbSpline
 70
8
 71
3
 72
8
 73
4
 74
0
 40
0
 40
0
 40
0
 40
0
 40
1
 40
1
 40
1
 40
1
 10
321.821247
 20
84.422445
 30
0.0
 10
322.446538
 20
84.422445
 30
0.0
 10
323.090774
 20
84.928776
 30
0.0
 10
323.071819
 20
85.895415
 30
0.0
  0
LWPOLYLINE
  5
331
100
AcDbEntity
  8
Calque_1
 62
7
100
AcDbPolyline
 90
2
 70
0
 10
320.362248
 20
117.011981
 30
0.0
 10
320.608575
 20
85.849391
 30
0.0
  0
SPLINE
  5
332
100
AcDbEntity
  8
Calque_1
 62
7
100
AcDbSpline
 70
8
 71
3
 72
8
 73
4
 74
0
 40
0
 40
0
 40
0
 40
0
 40
1
 40
1
 40
1
 40
1
 10
322.825501
 20
117.035004
 30
0.0
 10
322.825501
 20
117.817513
 30
0.0
 10
322.238111
 20
118.530986
 30
0.0
 10
321.631775
 20
118.530986
 30
0.0
  0
LWPOLYLINE
  5
333
100
AcDbEntity
  8
Calque_1
 62
7
100
AcDbPolyline
 90
2
 70
0
 10
323.071819
 20
85.895415
 30
0.0
 10
322.825501
 20
117.035004
 30
0.0
  0
SPLINE
  5
334
100
AcDbEntity
  8
Calque_1
 62
7
100
AcDbSpline
 70
8
 71
3
 72
8
 73
4
 74
0
 40
0
 40
0
 40
0
 40
0
 40
1
 40
1
 40
1
 40
1
 10
326.956171
 20
86.240651
 30
0.0
 10
327.013062
 20
85.481143
 30
0.0
 10
327.524607
 20
84.790693
 30
0.0
 10
328.187789
 20
84.790693
 30
0.0
  0
SPLINE
  5
335
100
AcDbEntity
  8
Calque_1
 62
7
100
AcDbSpline
 70
8
 71
3
 72
8
 73
4
 74
0
 40
0
 40
0
 40
0
 40
0
 40
1
 40
1
 40
1
 40
1
 10
328.187789
 20
84.790693
 30
0.0
 10
328.225716
 20
84.790693
 30
0.0
 10
328.244679
 20
84.790693
 30
0.0
 10
328.282534
 20
84.790693
 30
0.0
  0
SPLINE
  5
336
100
AcDbEntity
  8
Calque_1
 62
7
100
AcDbSpline
 70
8
 71
3
 72
8
 73
4
 74
0
 40
0
 40
0
 40
0
 40
0
 40
1
 40
1
 40
1
 40
1
 10
328.282534
 20
84.790693
 30
0.0
 10
336.127020
 20
85.504166
 30
0.0
 10
342.266188
 20
89.808005
 30
0.0
 10
343.535706
 20
97.955386
 30
0.0
  0
SPLINE
  5
337
100
AcDbEntity
  8
Calque_1
 62
7
100
AcDbSpline
 70
8
 71
3
 72
8
 73
4
 74
0
 40
0
 40
0
 40
0
 40
0
 40
1
 40
1
 40
1
 40
1
 10
343.535706
 20
97.955386
 30
0.0
 10
343.706242
 20
98.968060
 30
0.0
 10
343.763087
 20
99.980733
 30
0.0
 10
343.763087
 20
100.970384
 30
0.0
  0
SPLINE
  5
338
100
AcDbEntity
  8
Calque_1
 62
7
100
AcDbSpline
 70
8
 71
3
 72
8
 73
4
 74
0
 40
0
 40
0
 40
0
 40
0
 40
1
 40
1
 40
1
 40
1
 10
343.763087
 20
100.970384
 30
0.0
 10
343.763087
 20
107.529713
 30
0.0
 10
340.485071
 20
113.145426
 30
0.0
 10
337.150219
 20
115.815189
 30
0.0
  0
SPLINE
  5
339
100
AcDbEntity
  8
Calque_1
 62
7
100
AcDbSpline
 70
8
 71
3
 72
8
 73
4
 74
0
 40
0
 40
0
 40
0
 40
0
 40
1
 40
1
 40
1
 40
1
 10
337.150219
 20
115.815189
 30
0.0
 10
335.065929
 20
117.472288
 30
0.0
 10
332.867958
 20
118.300832
 30
0.0
 10
330.537351
 20
118.300832
 30
0.0
  0
SPLINE
  5
33a
100
AcDbEntity
  8
Calque_1
 62
7
100
AcDbSpline
 70
8
 71
3
 72
8
 73
4
 74
0
 40
0
 40
0
 40
0
 40
0
 40
1
 40
1
 40
1
 40
1
 10
330.537351
 20
118.300832
 30
0.0
 10
329.646788
 20
118.300832
 30
0.0
 10
328.737288
 20
118.185761
 30
0.0
 10
327.808834
 20
117.932595
 30
0.0
  0
SPLINE
  5
33b
100
AcDbEntity
  8
Calque_1
 62
7
100
AcDbSpline
 70
8
 71
3
 72
8
 73
4
 74
0
 40
0
 40
0
 40
0
 40
0
 40
1
 40
1
 40
1
 40
1
 10
327.808834
 20
117.932595
 30
0.0
 10
327.297235
 20
117.794501
 30
0.0
 10
326.842480
 20
117.196110
 30
0.0
 10
326.842480
 20
116.459614
 30
0.0
  0
LWPOLYLINE
  5
33c
100
AcDbEntity
  8
Calque_1
 62
7
100
AcDbPolyline
 90
1
 70
1
 10
321.631775
 20
118.530986
 30
0.0
  0
SPLINE
  5
33d
100
AcDbEntity
  8
Calque_1
 62
7
100
AcDbSpline
 70
8
 71
3
 72
8
 73
4
 74
0
 40
0
 40
0
 40
0
 40
0
 40
1
 40
1
 40
1
 40
1
 10
329.305724
 20
115.216798
 30
0.0
 10
329.722587
 20
115.285900
 30
0.0
 10
330.120496
 20
115.308824
 30
0.0
 10
330.518405
 20
115.308824
 30
0.0
  0
SPLINE
  5
33e
100
AcDbEntity
  8
Calque_1
 62
7
100
AcDbSpline
 70
8
 71
3
 72
8
 73
4
 74
0
 40
0
 40
0
 40
0
 40
0
 40
1
 40
1
 40
1
 40
1
 10
330.518405
 20
115.308824
 30
0.0
 10
332.356359
 20
115.308824
 30
0.0
 10
334.080630
 20
114.664398
 30
0.0
 10
335.691220
 20
113.398559
 30
0.0
  0
SPLINE
  5
33f
100
AcDbEntity
  8
Calque_1
 62
7
100
AcDbSpline
 70
8
 71
3
 72
8
 73
4
 74
0
 40
0
 40
0
 40
0
 40
0
 40
1
 40
1
 40
1
 40
1
 10
335.691220
 20
113.398559
 30
0.0
 10
338.552373
 20
111.120057
 30
0.0
 10
341.280889
 20
106.494005
 30
0.0
 10
341.280889
 20
100.924316
 30
0.0
  0
SPLINE
  5
340
100
AcDbEntity
  8
Calque_1
 62
7
100
AcDbSpline
 70
8
 71
3
 72
8
 73
4
 74
0
 40
0
 40
0
 40
0
 40
0
 40
1
 40
1
 40
1
 40
1
 10
341.280889
 20
100.924316
 30
0.0
 10
341.280889
 20
100.072760
 30
0.0
 10
341.223998
 20
99.175168
 30
0.0
 10
341.072462
 20
98.254554
 30
0.0
  0
SPLINE
  5
341
100
AcDbEntity
  8
Calque_1
 62
7
100
AcDbSpline
 70
8
 71
3
 72
8
 73
4
 74
0
 40
0
 40
0
 40
0
 40
0
 40
1
 40
1
 40
1
 40
1
 10
341.072462
 20
98.254554
 30
0.0
 10
340.106108
 20
92.132509
 30
0.0
 10
335.217520
 20
88.795298
 30
0.0
 10
329.419415
 20
87.943741
 30
0.0
  0
LWPOLYLINE
  5
342
100
AcDbEntity
  8
Calque_1
 62
7
100
AcDbPolyline
 90
2
 70
0
 10
326.842480
 20
116.459614
 30
0.0
 10
326.956171
 20
86.240651
 30
0.0
  0
SPLINE
  5
343
100
AcDbEntity
  8
Calque_1
 62
7
100
AcDbSpline
 70
8
 71
3
 72
8
 73
4
 74
0
 40
0
 40
0
 40
0
 40
0
 40
1
 40
1
 40
1
 40
1
 10
348.746430
 20
84.123244
 30
0.0
 10
349.371720
 20
84.123244
 30
0.0
 10
349.959111
 20
84.698634
 30
0.0
 10
350.015947
 20
85.481143
 30
0.0
  0
SPLINE
  5
344
100
AcDbEntity
  8
Calque_1
 62
7
100
AcDbSpline
 70
8
 71
3
 72
8
 73
4
 74
0
 40
0
 40
0
 40
0
 40
0
 40
1
 40
1
 40
1
 40
1
 10
350.015947
 20
85.481143
 30
0.0
 10
350.262274
 20
89.416744
 30
0.0
 10
350.754928
 20
93.651547
 30
0.0
 10
351.512846
 20
98.185539
 30
0.0
  0
LWPOLYLINE
  5
345
100
AcDbEntity
  8
Calque_1
 62
7
100
AcDbPolyline
 90
2
 70
0
 10
329.419415
 20
87.943741
 30
0.0
 10
329.305724
 20
115.216798
 30
0.0
  0
SPLINE
  5
346
100
AcDbEntity
  8
Calque_1
 62
7
100
AcDbSpline
 70
8
 71
3
 72
8
 73
4
 74
0
 40
0
 40
0
 40
0
 40
0
 40
1
 40
1
 40
1
 40
1
 10
365.098592
 20
98.185539
 30
0.0
 10
365.780727
 20
94.940399
 30
0.0
 10
366.406009
 20
91.327010
 30
0.0
 10
366.993399
 20
87.368396
 30
0.0
  0
LWPOLYLINE
  5
347
100
AcDbEntity
  8
Calque_1
 62
7
100
AcDbPolyline
 90
2
 70
0
 10
351.512846
 20
98.185539
 30
0.0
 10
365.098592
 20
98.185539
 30
0.0
  0
SPLINE
  5
348
100
AcDbEntity
  8
Calque_1
 62
7
100
AcDbSpline
 70
8
 71
3
 72
8
 73
4
 74
0
 40
0
 40
0
 40
0
 40
0
 40
1
 40
1
 40
1
 40
1
 10
367.277617
 20
85.366071
 30
0.0
 10
367.410254
 20
84.537527
 30
0.0
 10
367.921853
 20
84.169279
 30
0.0
 10
368.452398
 20
84.169279
 30
0.0
  0
SPLINE
  5
349
100
AcDbEntity
  8
Calque_1
 62
7
100
AcDbSpline
 70
8
 71
3
 72
8
 73
4
 74
0
 40
0
 40
0
 40
0
 40
0
 40
1
 40
1
 40
1
 40
1
 10
368.452398
 20
84.169279
 30
0.0
 10
369.096634
 20
84.169279
 30
0.0
 10
369.740861
 20
84.698634
 30
0.0
 10
369.740861
 20
85.619237
 30
0.0
  0
SPLINE
  5
34a
100
AcDbEntity
  8
Calque_1
 62
7
100
AcDbSpline
 70
8
 71
3
 72
8
 73
4
 74
0
 40
0
 40
0
 40
0
 40
0
 40
1
 40
1
 40
1
 40
1
 10
369.740861
 20
85.619237
 30
0.0
 10
369.740861
 20
85.711263
 30
0.0
 10
369.740861
 20
85.780344
 30
0.0
 10
369.721898
 20
85.872403
 30
0.0
  0
LWPOLYLINE
  5
34b
100
AcDbEntity
  8
Calque_1
 62
7
100
AcDbPolyline
 90
2
 70
0
 10
366.993399
 20
87.368396
 30
0.0
 10
367.277617
 20
85.366071
 30
0.0
  0
SPLINE
  5
34c
100
AcDbEntity
  8
Calque_1
 62
7
100
AcDbSpline
 70
8
 71
3
 72
8
 73
4
 74
0
 40
0
 40
0
 40
0
 40
0
 40
1
 40
1
 40
1
 40
1
 10
369.418725
 20
87.897739
 30
0.0
 10
368.111317
 20
96.712569
 30
0.0
 10
366.576527
 20
103.824265
 30
0.0
 10
364.833301
 20
109.209825
 30
0.0
  0
SPLINE
  5
34d
100
AcDbEntity
  8
Calque_1
 62
7
100
AcDbSpline
 70
8
 71
3
 72
8
 73
4
 74
0
 40
0
 40
0
 40
0
 40
0
 40
1
 40
1
 40
1
 40
1
 10
364.833301
 20
109.209825
 30
0.0
 10
362.824811
 20
115.377904
 30
0.0
 10
360.664731
 20
118.461939
 30
0.0
 10
358.372023
 20
118.461939
 30
0.0
  0
SPLINE
  5
34e
100
AcDbEntity
  8
Calque_1
 62
7
100
AcDbSpline
 70
8
 71
3
 72
8
 73
4
 74
0
 40
0
 40
0
 40
0
 40
0
 40
1
 40
1
 40
1
 40
1
 10
358.372023
 20
118.461939
 30
0.0
 10
357.557251
 20
118.461939
 30
0.0
 10
356.723543
 20
118.070679
 30
0.0
 10
355.870879
 20
117.288170
 30
0.0
  0
SPLINE
  5
34f
100
AcDbEntity
  8
Calque_1
 62
7
100
AcDbSpline
 70
8
 71
3
 72
8
 73
4
 74
0
 40
0
 40
0
 40
0
 40
0
 40
1
 40
1
 40
1
 40
1
 10
355.870879
 20
117.288170
 30
0.0
 10
353.786590
 20
115.377904
 30
0.0
 10
351.986527
 20
111.465315
 30
0.0
 10
350.489638
 20
105.573424
 30
0.0
  0
SPLINE
  5
350
100
AcDbEntity
  8
Calque_1
 62
7
100
AcDbSpline
 70
8
 71
3
 72
8
 73
4
 74
0
 40
0
 40
0
 40
0
 40
0
 40
1
 40
1
 40
1
 40
1
 10
350.489638
 20
105.573424
 30
0.0
 10
348.992739
 20
99.681533
 30
0.0
 10
348.007439
 20
93.030133
 30
0.0
 10
347.552685
 20
85.573202
 30
0.0
  0
SPLINE
  5
351
100
AcDbEntity
  8
Calque_1
 62
7
100
AcDbSpline
 70
8
 71
3
 72
8
 73
4
 74
0
 40
0
 40
0
 40
0
 40
0
 40
1
 40
1
 40
1
 40
1
 10
347.552685
 20
85.573202
 30
0.0
 10
347.514758
 20
84.836717
 30
0.0
 10
348.177975
 20
84.123244
 30
0.0
 10
348.746411
 20
84.123244
 30
0.0
  0
LWPOLYLINE
  5
352
100
AcDbEntity
  8
Calque_1
 62
7
100
AcDbPolyline
 90
2
 70
0
 10
369.721898
 20
85.872403
 30
0.0
 10
369.418725
 20
87.897739
 30
0.0
  0
SPLINE
  5
353
100
AcDbEntity
  8
Calque_1
 62
7
100
AcDbSpline
 70
8
 71
3
 72
8
 73
4
 74
0
 40
0
 40
0
 40
0
 40
0
 40
1
 40
1
 40
1
 40
1
 10
352.062336
 20
101.177515
 30
0.0
 10
353.085536
 20
106.263884
 30
0.0
 10
354.355053
 20
110.222498
 30
0.0
 10
355.889843
 20
113.007343
 30
0.0
  0
SPLINE
  5
354
100
AcDbEntity
  8
Calque_1
 62
7
100
AcDbSpline
 70
8
 71
3
 72
8
 73
4
 74
0
 40
0
 40
0
 40
0
 40
0
 40
1
 40
1
 40
1
 40
1
 10
355.889843
 20
113.007343
 30
0.0
 10
356.685661
 20
114.457301
 30
0.0
 10
357.481478
 20
115.216798
 30
0.0
 10
358.277296
 20
115.331869
 30
0.0
  0
SPLINE
  5
355
100
AcDbEntity
  8
Calque_1
 62
7
100
AcDbSpline
 70
8
 71
3
 72
8
 73
4
 74
0
 40
0
 40
0
 40
0
 40
0
 40
1
 40
1
 40
1
 40
1
 10
358.277296
 20
115.331869
 30
0.0
 10
358.428878
 20
115.354903
 30
0.0
 10
358.656259
 20
115.262877
 30
0.0
 10
358.997323
 20
115.032679
 30
0.0
  0
SPLINE
  5
356
100
AcDbEntity
  8
Calque_1
 62
7
100
AcDbSpline
 70
8
 71
3
 72
8
 73
4
 74
0
 40
0
 40
0
 40
0
 40
0
 40
1
 40
1
 40
1
 40
1
 10
358.997323
 20
115.032679
 30
0.0
 10
359.338386
 20
114.802526
 30
0.0
 10
359.679450
 20
114.434278
 30
0.0
 10
360.058413
 20
113.835887
 30
0.0
  0
SPLINE
  5
357
100
AcDbEntity
  8
Calque_1
 62
7
100
AcDbSpline
 70
8
 71
3
 72
8
 73
4
 74
0
 40
0
 40
0
 40
0
 40
0
 40
1
 40
1
 40
1
 40
1
 10
360.058413
 20
113.835887
 30
0.0
 10
361.555312
 20
111.534362
 30
0.0
 10
363.033257
 20
107.299570
 30
0.0
 10
364.454356
 20
101.177515
 30
0.0
  0
LWPOLYLINE
  5
358
100
AcDbEntity
  8
Calque_1
 62
7
100
AcDbPolyline
 90
1
 70
1
 10
348.746411
 20
84.123244
 30
0.0
  0
SPLINE
  5
359
100
AcDbEntity
  8
Calque_1
 62
7
100
AcDbSpline
 70
8
 71
3
 72
8
 73
4
 74
0
 40
0
 40
0
 40
0
 40
0
 40
1
 40
1
 40
1
 40
1
 10
374.781022
 20
118.530986
 30
0.0
 10
374.117840
 20
118.530986
 30
0.0
 10
373.511504
 20
117.817513
 30
0.0
 10
373.511504
 20
117.011981
 30
0.0
  0
LWPOLYLINE
  5
35a
100
AcDbEntity
  8
Calque_1
 62
7
100
AcDbPolyline
 90
2
 70
0
 10
364.454356
 20
101.177515
 30
0.0
 10
352.062336
 20
101.177515
 30
0.0
  0
SPLINE
  5
35b
100
AcDbEntity
  8
Calque_1
 62
7
100
AcDbSpline
 70
8
 71
3
 72
8
 73
4
 74
0
 40
0
 40
0
 40
0
 40
0
 40
1
 40
1
 40
1
 40
1
 10
373.757831
 20
85.849391
 30
0.0
 10
373.757831
 20
84.905764
 30
0.0
 10
374.364167
 20
84.422445
 30
0.0
 10
374.970503
 20
84.422445
 30
0.0
  0
SPLINE
  5
35c
100
AcDbEntity
  8
Calque_1
 62
7
100
AcDbSpline
 70
8
 71
3
 72
8
 73
4
 74
0
 40
0
 40
0
 40
0
 40
0
 40
1
 40
1
 40
1
 40
1
 10
374.970503
 20
84.422445
 30
0.0
 10
375.595785
 20
84.422445
 30
0.0
 10
376.240021
 20
84.928776
 30
0.0
 10
376.221075
 20
85.895415
 30
0.0
  0
LWPOLYLINE
  5
35d
100
AcDbEntity
  8
Calque_1
 62
7
100
AcDbPolyline
 90
2
 70
0
 10
373.511504
 20
117.011981
 30
0.0
 10
373.757831
 20
85.849391
 30
0.0
  0
SPLINE
  5
35e
100
AcDbEntity
  8
Calque_1
 62
7
100
AcDbSpline
 70
8
 71
3
 72
8
 73
4
 74
0
 40
0
 40
0
 40
0
 40
0
 40
1
 40
1
 40
1
 40
1
 10
375.974748
 20
117.035004
 30
0.0
 10
375.974748
 20
117.817513
 30
0.0
 10
375.387358
 20
118.530986
 30
0.0
 10
374.781022
 20
118.530986
 30
0.0
  0
LWPOLYLINE
  5
35f
100
AcDbEntity
  8
Calque_1
 62
7
100
AcDbPolyline
 90
2
 70
0
 10
376.221075
 20
85.895415
 30
0.0
 10
375.974748
 20
117.035004
 30
0.0
  0
SPLINE
  5
360
100
AcDbEntity
  8
Calque_1
 62
7
100
AcDbSpline
 70
8
 71
3
 72
8
 73
4
 74
0
 40
0
 40
0
 40
0
 40
0
 40
1
 40
1
 40
1
 40
1
 10
381.412863
 20
84.146267
 30
0.0
 10
382.038153
 20
84.146267
 30
0.0
 10
382.644489
 20
84.767670
 30
0.0
 10
382.682380
 20
85.550190
 30
0.0
  0
SPLINE
  5
361
100
AcDbEntity
  8
Calque_1
 62
7
100
AcDbSpline
 70
8
 71
3
 72
8
 73
4
 74
0
 40
0
 40
0
 40
0
 40
0
 40
1
 40
1
 40
1
 40
1
 10
382.682380
 20
85.550190
 30
0.0
 10
382.739180
 20
87.069195
 30
0.0
 10
382.777125
 20
89.347697
 30
0.0
 10
382.777125
 20
92.385708
 30
0.0
  0
SPLINE
  5
362
100
AcDbEntity
  8
Calque_1
 62
7
100
AcDbSpline
 70
8
 71
3
 72
8
 73
4
 74
0
 40
0
 40
0
 40
0
 40
0
 40
1
 40
1
 40
1
 40
1
 10
382.777125
 20
92.385708
 30
0.0
 10
382.777125
 20
93.789641
 30
0.0
 10
382.777125
 20
95.354671
 30
0.0
 10
382.758162
 20
97.080806
 30
0.0
  0
SPLINE
  5
363
100
AcDbEntity
  8
Calque_1
 62
7
100
AcDbSpline
 70
8
 71
3
 72
8
 73
4
 74
0
 40
0
 40
0
 40
0
 40
0
 40
1
 40
1
 40
1
 40
1
 10
382.758162
 20
97.080806
 30
0.0
 10
382.814962
 20
97.034738
 30
0.0
 10
382.852907
 20
96.988780
 30
0.0
 10
382.890807
 20
96.965735
 30
0.0
  0
LWPOLYLINE
  5
364
100
AcDbEntity
  8
Calque_1
 62
7
100
AcDbPolyline
 90
1
 70
1
 10
374.781022
 20
118.530986
 30
0.0
  0
SPLINE
  5
365
100
AcDbEntity
  8
Calque_1
 62
7
100
AcDbSpline
 70
8
 71
3
 72
8
 73
4
 74
0
 40
0
 40
0
 40
0
 40
0
 40
1
 40
1
 40
1
 40
1
 10
400.341950
 20
84.399433
 30
0.0
 10
401.270404
 20
83.731995
 30
0.0
 10
402.160967
 20
84.767670
 30
0.0
 10
402.160967
 20
85.711296
 30
0.0
  0
SPLINE
  5
366
100
AcDbEntity
  8
Calque_1
 62
7
100
AcDbSpline
 70
8
 71
3
 72
8
 73
4
 74
0
 40
0
 40
0
 40
0
 40
0
 40
1
 40
1
 40
1
 40
1
 10
402.160967
 20
85.711296
 30
0.0
 10
402.160967
 20
86.194616
 30
0.0
 10
401.990431
 20
86.700947
 30
0.0
 10
401.592522
 20
86.977136
 30
0.0
  0
LWPOLYLINE
  5
367
100
AcDbEntity
  8
Calque_1
 62
7
100
AcDbPolyline
 90
2
 70
0
 10
382.890807
 20
96.965735
 30
0.0
 10
400.341950
 20
84.399433
 30
0.0
  0
SPLINE
  5
368
100
AcDbEntity
  8
Calque_1
 62
7
100
AcDbSpline
 70
8
 71
3
 72
8
 73
4
 74
0
 40
0
 40
0
 40
0
 40
0
 40
1
 40
1
 40
1
 40
1
 10
387.930986
 20
96.827641
 30
0.0
 10
388.878385
 20
96.896743
 30
0.0
 10
389.693148
 20
97.011770
 30
0.0
 10
390.413175
 20
97.149854
 30
0.0
  0
SPLINE
  5
369
100
AcDbEntity
  8
Calque_1
 62
7
100
AcDbSpline
 70
8
 71
3
 72
8
 73
4
 74
0
 40
0
 40
0
 40
0
 40
0
 40
1
 40
1
 40
1
 40
1
 10
390.413175
 20
97.149854
 30
0.0
 10
396.571289
 20
98.392681
 30
0.0
 10
399.659823
 20
101.983047
 30
0.0
 10
399.659823
 20
107.920973
 30
0.0
  0
SPLINE
  5
36a
100
AcDbEntity
  8
Calque_1
 62
7
100
AcDbSpline
 70
8
 71
3
 72
8
 73
4
 74
0
 40
0
 40
0
 40
0
 40
0
 40
1
 40
1
 40
1
 40
1
 10
399.659823
 20
107.920973
 30
0.0
 10
399.659823
 20
112.754166
 30
0.0
 10
397.954497
 20
115.953283
 30
0.0
 10
394.638590
 20
117.518323
 30
0.0
  0
SPLINE
  5
36b
100
AcDbEntity
  8
Calque_1
 62
7
100
AcDbSpline
 70
8
 71
3
 72
8
 73
4
 74
0
 40
0
 40
0
 40
0
 40
0
 40
1
 40
1
 40
1
 40
1
 10
394.638590
 20
117.518323
 30
0.0
 10
392.952210
 20
118.323855
 30
0.0
 10
390.716348
 20
118.715104
 30
0.0
 10
387.930986
 20
118.715104
 30
0.0
  0
SPLINE
  5
36c
100
AcDbEntity
  8
Calque_1
 62
7
100
AcDbSpline
 70
8
 71
3
 72
8
 73
4
 74
0
 40
0
 40
0
 40
0
 40
0
 40
1
 40
1
 40
1
 40
1
 10
387.930986
 20
118.715104
 30
0.0
 10
385.922487
 20
118.715104
 30
0.0
 10
383.629779
 20
118.507974
 30
0.0
 10
381.052845
 20
118.093702
 30
0.0
  0
SPLINE
  5
36d
100
AcDbEntity
  8
Calque_1
 62
7
100
AcDbSpline
 70
8
 71
3
 72
8
 73
4
 74
0
 40
0
 40
0
 40
0
 40
0
 40
1
 40
1
 40
1
 40
1
 10
381.052845
 20
118.093702
 30
0.0
 10
380.503345
 20
118.001676
 30
0.0
 10
379.972800
 20
117.334194
 30
0.0
 10
379.991755
 20
116.574697
 30
0.0
  0
LWPOLYLINE
  5
36e
100
AcDbEntity
  8
Calque_1
 62
7
100
AcDbPolyline
 90
2
 70
0
 10
401.592522
 20
86.977136
 30
0.0
 10
387.930986
 20
96.827641
 30
0.0
  0
SPLINE
  5
36f
100
AcDbEntity
  8
Calque_1
 62
7
100
AcDbSpline
 70
8
 71
3
 72
8
 73
4
 74
0
 40
0
 40
0
 40
0
 40
0
 40
1
 40
1
 40
1
 40
1
 10
380.124391
 20
109.486013
 30
0.0
 10
380.257027
 20
102.420342
 30
0.0
 10
380.313873
 20
96.781617
 30
0.0
 10
380.313873
 20
92.592849
 30
0.0
  0
SPLINE
  5
370
100
AcDbEntity
  8
Calque_1
 62
7
100
AcDbSpline
 70
8
 71
3
 72
8
 73
4
 74
0
 40
0
 40
0
 40
0
 40
0
 40
1
 40
1
 40
1
 40
1
 10
380.313873
 20
92.592849
 30
0.0
 10
380.313873
 20
89.508804
 30
0.0
 10
380.275945
 20
87.207289
 30
0.0
 10
380.219127
 20
85.711296
 30
0.0
  0
SPLINE
  5
371
100
AcDbEntity
  8
Calque_1
 62
7
100
AcDbSpline
 70
8
 71
3
 72
8
 73
4
 74
0
 40
0
 40
0
 40
0
 40
0
 40
1
 40
1
 40
1
 40
1
 10
380.219127
 20
85.711296
 30
0.0
 10
380.181200
 20
84.882752
 30
0.0
 10
380.768618
 20
84.146267
 30
0.0
 10
381.412854
 20
84.146267
 30
0.0
  0
LWPOLYLINE
  5
372
100
AcDbEntity
  8
Calque_1
 62
7
100
AcDbPolyline
 90
2
 70
0
 10
379.991755
 20
116.574697
 30
0.0
 10
380.124391
 20
109.486013
 30
0.0
  0
SPLINE
  5
373
100
AcDbEntity
  8
Calque_1
 62
7
100
AcDbSpline
 70
8
 71
3
 72
8
 73
4
 74
0
 40
0
 40
0
 40
0
 40
0
 40
1
 40
1
 40
1
 40
1
 10
382.739225
 20
99.428367
 30
0.0
 10
382.701298
 20
102.374307
 30
0.0
 10
382.663462
 20
105.734530
 30
0.0
 10
382.587644
 20
109.532037
 30
0.0
  0
LWPOLYLINE
  5
374
100
AcDbEntity
  8
Calque_1
 62
7
100
AcDbPolyline
 90
1
 70
1
 10
381.412854
 20
84.146267
 30
0.0
  0
SPLINE
  5
375
100
AcDbEntity
  8
Calque_1
 62
7
100
AcDbSpline
 70
8
 71
3
 72
8
 73
4
 74
0
 40
0
 40
0
 40
0
 40
0
 40
1
 40
1
 40
1
 40
1
 10
382.473953
 20
115.308857
 30
0.0
 10
384.482452
 20
115.608058
 30
0.0
 10
386.301459
 20
115.769164
 30
0.0
 10
387.893095
 20
115.769164
 30
0.0
  0
SPLINE
  5
376
100
AcDbEntity
  8
Calque_1
 62
7
100
AcDbSpline
 70
8
 71
3
 72
8
 73
4
 74
0
 40
0
 40
0
 40
0
 40
0
 40
1
 40
1
 40
1
 40
1
 10
387.893095
 20
115.769164
 30
0.0
 10
392.251147
 20
115.769164
 30
0.0
 10
395.055454
 20
114.618407
 30
0.0
 10
396.324971
 20
112.316882
 30
0.0
  0
SPLINE
  5
377
100
AcDbEntity
  8
Calque_1
 62
7
100
AcDbSpline
 70
8
 71
3
 72
8
 73
4
 74
0
 40
0
 40
0
 40
0
 40
0
 40
1
 40
1
 40
1
 40
1
 10
396.324971
 20
112.316882
 30
0.0
 10
396.893416
 20
111.258184
 30
0.0
 10
397.196589
 20
109.785203
 30
0.0
 10
397.196589
 20
107.943996
 30
0.0
  0
SPLINE
  5
378
100
AcDbEntity
  8
Calque_1
 62
7
100
AcDbSpline
 70
8
 71
3
 72
8
 73
4
 74
0
 40
0
 40
0
 40
0
 40
0
 40
1
 40
1
 40
1
 40
1
 10
397.196589
 20
107.943996
 30
0.0
 10
397.196589
 20
105.297246
 30
0.0
 10
396.324971
 20
103.271898
 30
0.0
 10
394.619654
 20
101.937023
 30
0.0
  0
SPLINE
  5
379
100
AcDbEntity
  8
Calque_1
 62
7
100
AcDbSpline
 70
8
 71
3
 72
8
 73
4
 74
0
 40
0
 40
0
 40
0
 40
0
 40
1
 40
1
 40
1
 40
1
 10
394.619654
 20
101.937023
 30
0.0
 10
392.762746
 20
100.464053
 30
0.0
 10
389.522630
 20
99.727557
 30
0.0
 10
384.937197
 20
99.727557
 30
0.0
  0
SPLINE
  5
37a
100
AcDbEntity
  8
Calque_1
 62
7
100
AcDbSpline
 70
8
 71
3
 72
8
 73
4
 74
0
 40
0
 40
0
 40
0
 40
0
 40
1
 40
1
 40
1
 40
1
 10
384.937197
 20
99.727557
 30
0.0
 10
384.482452
 20
99.727557
 30
0.0
 10
384.008743
 20
99.727557
 30
0.0
 10
383.535043
 20
99.750591
 30
0.0
  0
SPLINE
  5
37b
100
AcDbEntity
  8
Calque_1
 62
7
100
AcDbSpline
 70
8
 71
3
 72
8
 73
4
 74
0
 40
0
 40
0
 40
0
 40
0
 40
1
 40
1
 40
1
 40
1
 10
383.535043
 20
99.750591
 30
0.0
 10
383.231880
 20
99.750591
 30
0.0
 10
382.985553
 20
99.658565
 30
0.0
 10
382.739225
 20
99.428378
 30
0.0
  0
LWPOLYLINE
  5
37c
100
AcDbEntity
  8
Calque_1
 62
7
100
AcDbPolyline
 90
2
 70
0
 10
382.587644
 20
109.532037
 30
0.0
 10
382.473953
 20
115.308857
 30
0.0
  0
SPLINE
  5
37d
100
AcDbEntity
  8
Calque_1
 62
7
100
AcDbSpline
 70
8
 71
3
 72
8
 73
4
 74
0
 40
0
 40
0
 40
0
 40
0
 40
1
 40
1
 40
1
 40
1
 10
413.416096
 20
115.009656
 30
0.0
 10
419.062620
 20
115.009656
 30
0.0
 10
422.965917
 20
114.457301
 30
0.0
 10
425.069143
 20
113.329556
 30
0.0
  0
SPLINE
  5
37e
100
AcDbEntity
  8
Calque_1
 62
7
100
AcDbSpline
 70
8
 71
3
 72
8
 73
4
 74
0
 40
0
 40
0
 40
0
 40
0
 40
1
 40
1
 40
1
 40
1
 10
425.069143
 20
113.329556
 30
0.0
 10
425.258625
 20
113.214473
 30
0.0
 10
425.448107
 20
113.168449
 30
0.0
 10
425.618643
 20
113.168449
 30
0.0
  0
SPLINE
  5
37f
100
AcDbEntity
  8
Calque_1
 62
7
100
AcDbSpline
 70
8
 71
3
 72
8
 73
4
 74
0
 40
0
 40
0
 40
0
 40
0
 40
1
 40
1
 40
1
 40
1
 10
425.618643
 20
113.168449
 30
0.0
 10
426.319715
 20
113.168449
 30
0.0
 10
426.755524
 20
113.812875
 30
0.0
 10
426.774469
 20
114.595384
 30
0.0
  0
SPLINE
  5
380
100
AcDbEntity
  8
Calque_1
 62
7
100
AcDbSpline
 70
8
 71
3
 72
8
 73
4
 74
0
 40
0
 40
0
 40
0
 40
0
 40
1
 40
1
 40
1
 40
1
 10
426.774469
 20
114.595384
 30
0.0
 10
426.793433
 20
115.262833
 30
0.0
 10
426.566042
 20
115.769164
 30
0.0
 10
426.073397
 20
116.045342
 30
0.0
  0
SPLINE
  5
381
100
AcDbEntity
  8
Calque_1
 62
7
100
AcDbSpline
 70
8
 71
3
 72
8
 73
4
 74
0
 40
0
 40
0
 40
0
 40
0
 40
1
 40
1
 40
1
 40
1
 10
426.073397
 20
116.045342
 30
0.0
 10
423.989108
 20
117.173087
 30
0.0
 10
420.559510
 20
117.794501
 30
0.0
 10
415.727758
 20
117.978619
 30
0.0
  0
SPLINE
  5
382
100
AcDbEntity
  8
Calque_1
 62
7
100
AcDbSpline
 70
8
 71
3
 72
8
 73
4
 74
0
 40
0
 40
0
 40
0
 40
0
 40
1
 40
1
 40
1
 40
1
 10
415.727758
 20
117.978619
 30
0.0
 10
413.245569
 20
118.070646
 30
0.0
 10
410.914962
 20
118.047722
 30
0.0
 10
408.754881
 20
117.886593
 30
0.0
  0
LWPOLYLINE
  5
383
100
AcDbEntity
  8
Calque_1
 62
7
100
AcDbPolyline
 90
1
 70
1
 10
382.739225
 20
99.428378
 30
0.0
  0
SPLINE
  5
384
100
AcDbEntity
  8
Calque_1
 62
7
100
AcDbSpline
 70
8
 71
3
 72
8
 73
4
 74
0
 40
0
 40
0
 40
0
 40
0
 40
1
 40
1
 40
1
 40
1
 10
407.390618
 20
117.771522
 30
0.0
 10
406.784282
 20
117.725454
 30
0.0
 10
406.234792
 20
117.058049
 30
0.0
 10
406.234792
 20
116.298541
 30
0.0
  0
SPLINE
  5
385
100
AcDbEntity
  8
Calque_1
 62
7
100
AcDbSpline
 70
8
 71
3
 72
8
 73
4
 74
0
 40
0
 40
0
 40
0
 40
0
 40
1
 40
1
 40
1
 40
1
 10
406.234792
 20
116.298541
 30
0.0
 10
406.234792
 20
111.672489
 30
0.0
 10
406.367428
 20
107.414675
 30
0.0
 10
406.367428
 20
103.571132
 30
0.0
  0
SPLINE
  5
386
100
AcDbEntity
  8
Calque_1
 62
7
100
AcDbSpline
 70
8
 71
3
 72
8
 73
4
 74
0
 40
0
 40
0
 40
0
 40
0
 40
1
 40
1
 40
1
 40
1
 10
406.367428
 20
103.571132
 30
0.0
 10
406.367428
 20
98.484773
 30
0.0
 10
405.988465
 20
87.414453
 30
0.0
 10
405.988465
 20
86.562897
 30
0.0
  0
SPLINE
  5
387
100
AcDbEntity
  8
Calque_1
 62
7
100
AcDbSpline
 70
8
 71
3
 72
8
 73
4
 74
0
 40
0
 40
0
 40
0
 40
0
 40
1
 40
1
 40
1
 40
1
 10
405.988465
 20
86.562897
 30
0.0
 10
405.988465
 20
85.711329
 30
0.0
 10
406.594801
 20
84.997856
 30
0.0
 10
407.220091
 20
84.997856
 30
0.0
  0
SPLINE
  5
388
100
AcDbEntity
  8
Calque_1
 62
7
100
AcDbSpline
 70
8
 71
3
 72
8
 73
4
 74
0
 40
0
 40
0
 40
0
 40
0
 40
1
 40
1
 40
1
 40
1
 10
407.220091
 20
84.997856
 30
0.0
 10
416.163567
 20
84.997856
 30
0.0
 10
421.885873
 20
85.112939
 30
0.0
 10
424.368071
 20
85.389117
 30
0.0
  0
SPLINE
  5
389
100
AcDbEntity
  8
Calque_1
 62
7
100
AcDbSpline
 70
8
 71
3
 72
8
 73
4
 74
0
 40
0
 40
0
 40
0
 40
0
 40
1
 40
1
 40
1
 40
1
 10
424.368071
 20
85.389117
 30
0.0
 10
425.107043
 20
85.458219
 30
0.0
 10
425.448107
 20
86.148625
 30
0.0
 10
425.448107
 20
86.862087
 30
0.0
  0
SPLINE
  5
38a
100
AcDbEntity
  8
Calque_1
 62
7
100
AcDbSpline
 70
8
 71
3
 72
8
 73
4
 74
0
 40
0
 40
0
 40
0
 40
0
 40
1
 40
1
 40
1
 40
1
 10
425.448107
 20
86.862087
 30
0.0
 10
425.448107
 20
87.621595
 30
0.0
 10
425.031252
 20
88.473151
 30
0.0
 10
424.273326
 20
88.381092
 30
0.0
  0
SPLINE
  5
38b
100
AcDbEntity
  8
Calque_1
 62
7
100
AcDbSpline
 70
8
 71
3
 72
8
 73
4
 74
0
 40
0
 40
0
 40
0
 40
0
 40
1
 40
1
 40
1
 40
1
 10
424.273326
 20
88.381092
 30
0.0
 10
422.018509
 20
88.150938
 30
0.0
 10
416.788849
 20
88.012855
 30
0.0
 10
408.508554
 20
87.989832
 30
0.0
  0
LWPOLYLINE
  5
38c
100
AcDbEntity
  8
Calque_1
 62
7
100
AcDbPolyline
 90
2
 70
0
 10
408.754881
 20
117.886593
 30
0.0
 10
407.390618
 20
117.771522
 30
0.0
  0
SPLINE
  5
38d
100
AcDbEntity
  8
Calque_1
 62
7
100
AcDbSpline
 70
8
 71
3
 72
8
 73
4
 74
0
 40
0
 40
0
 40
0
 40
0
 40
1
 40
1
 40
1
 40
1
 10
408.603299
 20
90.199298
 30
0.0
 10
408.698036
 20
92.615894
 30
0.0
 10
408.773827
 20
95.861035
 30
0.0
 10
408.811727
 20
99.957743
 30
0.0
  0
LWPOLYLINE
  5
38e
100
AcDbEntity
  8
Calque_1
 62
7
100
AcDbPolyline
 90
2
 70
0
 10
408.508554
 20
87.989832
 30
0.0
 10
408.603299
 20
90.199298
 30
0.0
  0
SPLINE
  5
38f
100
AcDbEntity
  8
Calque_1
 62
7
100
AcDbSpline
 70
8
 71
3
 72
8
 73
4
 74
0
 40
0
 40
0
 40
0
 40
0
 40
1
 40
1
 40
1
 40
1
 10
422.549054
 20
99.842672
 30
0.0
 10
423.344872
 20
99.819638
 30
0.0
 10
423.742780
 20
100.579157
 30
0.0
 10
423.742780
 20
101.338654
 30
0.0
  0
SPLINE
  5
390
100
AcDbEntity
  8
Calque_1
 62
7
100
AcDbSpline
 70
8
 71
3
 72
8
 73
4
 74
0
 40
0
 40
0
 40
0
 40
0
 40
1
 40
1
 40
1
 40
1
 10
423.742780
 20
101.338654
 30
0.0
 10
423.742780
 20
102.075150
 30
0.0
 10
423.344872
 20
102.834647
 30
0.0
 10
422.568008
 20
102.834647
 30
0.0
  0
LWPOLYLINE
  5
391
100
AcDbEntity
  8
Calque_1
 62
7
100
AcDbPolyline
 90
2
 70
0
 10
408.811727
 20
99.957743
 30
0.0
 10
422.549054
 20
99.842672
 30
0.0
  0
SPLINE
  5
392
100
AcDbEntity
  8
Calque_1
 62
7
100
AcDbSpline
 70
8
 71
3
 72
8
 73
4
 74
0
 40
0
 40
0
 40
0
 40
0
 40
1
 40
1
 40
1
 40
1
 10
408.830672
 20
102.949718
 30
0.0
 10
408.830672
 20
106.471048
 30
0.0
 10
408.792745
 20
110.452685
 30
0.0
 10
408.716981
 20
114.871606
 30
0.0
  0
SPLINE
  5
393
100
AcDbEntity
  8
Calque_1
 62
7
100
AcDbSpline
 70
8
 71
3
 72
8
 73
4
 74
0
 40
0
 40
0
 40
0
 40
0
 40
1
 40
1
 40
1
 40
1
 10
408.716981
 20
114.871606
 30
0.0
 10
409.910717
 20
114.963632
 30
0.0
 10
411.824461
 20
115.009689
 30
0.0
 10
413.416096
 20
115.009689
 30
0.0
  0
LWPOLYLINE
  5
394
100
AcDbEntity
  8
Calque_1
 62
7
100
AcDbPolyline
 90
2
 70
0
 10
422.568008
 20
102.834647
 30
0.0
 10
408.830672
 20
102.949718
 30
0.0
  0
LWPOLYLINE
  5
395
100
AcDbEntity
  8
Calque_1
 62
7
100
AcDbPolyline
 90
1
 70
1
 10
413.416096
 20
115.009689
 30
0.0
  0
ENDSEC
  0
SECTION
  2
OBJECTS
  0
DICTIONARY
  5
C
330
0
100
AcDbDictionary
  3
ACAD_GROUP
350
D
  3
ACAD_MLINESTYLE
350
17
  0
DICTIONARY
  5
D
330
C
100
AcDbDictionary
  0
DICTIONARY
  5
1A
330
C
100
AcDbDictionary
  0
DICTIONARY
  5
17
330
C
100
AcDbDictionary
  3
STANDARD
350
18
  0
DICTIONARY
  5
19
330
C
100
AcDbDictionary
  0
ENDSEC
  0
EOF
